LankaverseSans.glyphspackage
{
glyphname = AE;
layers = (
{
layerId = "7B4D842D-CA8D-4153-9CDE-FADFBE419175";
paths = (
{
closed = 1;
nodes = (
"169 0 LINE",
"313 286 LINE SMOOTH",
"402 462 OFFCURVE",
"471 609 OFFCURVE",
"487 674 CURVE",
"333 674 LINE",
"8 0 LINE"
);
},
{
closed = 1;
nodes = (
"529 138 LINE",
"529 262 LINE",
"214 262 LINE",
"214 138 LINE"
);
},
{
closed = 1;
nodes = (
"880 0 LINE",
"880 123 LINE",
"519 123 LINE",
"519 0 LINE"
);
},
{
closed = 1;
nodes = (
"616 0 LINE",
"616 674 LINE",
"467 674 LINE",
"467 0 LINE"
);
},
{
closed = 1;
nodes = (
"848 276 LINE",
"848 398 LINE",
"519 398 LINE",
"519 276 LINE"
);
},
{
closed = 1;
nodes = (
"876 551 LINE",
"876 674 LINE",
"519 674 LINE",
"519 551 LINE"
);
}
);
width = 940;
},
{
layerId = "25BA55F5-DD3E-4682-A696-ADF7D9496427";
paths = (
{
closed = 1;
nodes = (
"94 0 LINE",
"263 284 LINE SMOOTH",
"421 550 OFFCURVE",
"487 674 OFFCURVE",
"487 674 CURVE",
"425 674 LINE",
"27 0 LINE"
);
},
{
closed = 1;
nodes = (
"483 187 LINE",
"483 242 LINE",
"185 242 LINE",
"185 187 LINE"
);
},
{
closed = 1;
nodes = (
"818 0 LINE",
"818 57 LINE",
"461 57 LINE",
"461 0 LINE"
);
},
{
closed = 1;
nodes = (
"515 0 LINE",
"515 674 LINE",
"453 674 LINE",
"453 0 LINE"
);
},
{
closed = 1;
nodes = (
"777 308 LINE",
"777 365 LINE",
"461 365 LINE",
"461 308 LINE"
);
},
{
closed = 1;
nodes = (
"812 617 LINE",
"812 674 LINE",
"461 674 LINE",
"461 617 LINE"
);
}
);
width = 863;
}
);
unicode = 00C6;
}
{
glyphname = Eth;
layers = (
{
layerId = "7B4D842D-CA8D-4153-9CDE-FADFBE419175";
paths = (
{
closed = 1;
nodes = (
"289 0 LINE",
"289 674 LINE",
"131 674 LINE",
"131 0 LINE"
);
},
{
closed = 1;
nodes = (
"568 0 OFFCURVE",
"709 130 OFFCURVE",
"709 348 CURVE SMOOTH",
"709 530 OFFCURVE",
"569 674 OFFCURVE",
"363 674 CURVE SMOOTH",
"131 674 LINE",
"131 547 LINE",
"358 547 LINE SMOOTH",
"485 547 OFFCURVE",
"553 464 OFFCURVE",
"553 348 CURVE SMOOTH",
"553 207 OFFCURVE",
"484 126 OFFCURVE",
"359 126 CURVE SMOOTH",
"131 126 LINE",
"131 0 LINE",
"361 0 LINE SMOOTH"
);
},
{
closed = 1;
nodes = (
"427 393 LINE",
"65 393 LINE",
"65 269 LINE",
"427 269 LINE"
);
}
);
width = 749;
},
{
layerId = "25BA55F5-DD3E-4682-A696-ADF7D9496427";
paths = (
{
closed = 1;
nodes = (
"212 0 LINE",
"212 674 LINE",
"150 674 LINE",
"150 0 LINE"
);
},
{
closed = 1;
nodes = (
"573 0 OFFCURVE",
"680 166 OFFCURVE",
"680 341 CURVE SMOOTH",
"680 541 OFFCURVE",
"538 674 OFFCURVE",
"342 674 CURVE SMOOTH",
"150 674 LINE",
"150 617 LINE",
"342 617 LINE SMOOTH",
"506 617 OFFCURVE",
"615 491 OFFCURVE",
"615 341 CURVE SMOOTH",
"615 198 OFFCURVE",
"537 57 OFFCURVE",
"347 57 CURVE SMOOTH",
"150 57 LINE",
"150 0 LINE",
"347 0 LINE SMOOTH"
);
},
{
closed = 1;
nodes = (
"396 366 LINE",
"60 366 LINE",
"60 313 LINE",
"396 313 LINE"
);
}
);
width = 725;
}
);
unicode = 00D0;
}
{
glyphname = Thorn;
layers = (
{
layerId = "7B4D842D-CA8D-4153-9CDE-FADFBE419175";
paths = (
{
closed = 1;
nodes = (
"430 110 OFFCURVE",
"548 186 OFFCURVE",
"548 342 CURVE SMOOTH",
"548 469 OFFCURVE",
"449 564 OFFCURVE",
"297 564 CURVE SMOOTH",
"65 564 LINE",
"65 441 LINE",
"285 441 LINE SMOOTH",
"369 441 OFFCURVE",
"392 383 OFFCURVE",
"392 336 CURVE SMOOTH",
"392 279 OFFCURVE",
"360 232 OFFCURVE",
"285 232 CURVE SMOOTH",
"65 232 LINE",
"65 110 LINE",
"297 110 LINE SMOOTH"
);
},
{
closed = 1;
nodes = (
"219 0 LINE",
"219 674 LINE",
"65 674 LINE",
"65 0 LINE"
);
}
);
width = 563;
},
{
layerId = "25BA55F5-DD3E-4682-A696-ADF7D9496427";
paths = (
{
closed = 1;
nodes = (
"407 128 OFFCURVE",
"485 223 OFFCURVE",
"485 330 CURVE SMOOTH",
"485 456 OFFCURVE",
"403 546 OFFCURVE",
"232 546 CURVE SMOOTH",
"80 546 LINE",
"80 491 LINE",
"239 491 LINE SMOOTH",
"366 491 OFFCURVE",
"422 427 OFFCURVE",
"422 330 CURVE SMOOTH",
"422 249 OFFCURVE",
"369 183 OFFCURVE",
"250 183 CURVE SMOOTH",
"80 183 LINE",
"80 128 LINE",
"243 128 LINE SMOOTH"
);
},
{
closed = 1;
nodes = (
"142 0 LINE",
"142 674 LINE",
"80 674 LINE",
"80 0 LINE"
);
}
);
width = 529;
}
);
unicode = 00DE;
}
{
glyphname = cedilla;
layers = (
{
layerId = "7B4D842D-CA8D-4153-9CDE-FADFBE419175";
paths = (
{
closed = 1;
nodes = (
"339 -99 OFFCURVE",
"334 -70 OFFCURVE",
"322 -51 CURVE",
"209 -51 LINE",
"219 -64 OFFCURVE",
"235 -87 OFFCURVE",
"235 -113 CURVE SMOOTH",
"235 -152 OFFCURVE",
"209 -177 OFFCURVE",
"160 -177 CURVE",
"160 -268 LINE",
"284 -268 OFFCURVE",
"339 -203 OFFCURVE",
"339 -125 CURVE SMOOTH"
);
}
);
width = 500;
},
{
layerId = "25BA55F5-DD3E-4682-A696-ADF7D9496427";
paths = (
{
closed = 1;
nodes = (
"271 -99 OFFCURVE",
"264 -67 OFFCURVE",
"253 -51 CURVE",
"192 -51 LINE",
"209 -79 OFFCURVE",
"215 -98 OFFCURVE",
"215 -126 CURVE SMOOTH",
"215 -168 OFFCURVE",
"185 -193 OFFCURVE",
"128 -199 CURVE",
"128 -248 LINE",
"224 -244 OFFCURVE",
"271 -186 OFFCURVE",
"271 -121 CURVE SMOOTH"
);
}
);
width = 400;
}
);
unicode = 00B8;
}
{
glyphname = cent;
layers = (
{
layerId = "7B4D842D-CA8D-4153-9CDE-FADFBE419175";
paths = (
{
closed = 1;
nodes = (
"179 347 OFFCURVE",
"242 394 OFFCURVE",
"320 394 CURVE SMOOTH",
"360 394 OFFCURVE",
"403 383 OFFCURVE",
"438 361 CURVE",
"438 483 LINE",
"392 507 OFFCURVE",
"345 515 OFFCURVE",
"305 515 CURVE SMOOTH",
"133 515 OFFCURVE",
"32 398 OFFCURVE",
"30 252 CURVE",
"30 98 OFFCURVE",
"145 -8 OFFCURVE",
"296 -8 CURVE SMOOTH",
"348 -8 OFFCURVE",
"399 3 OFFCURVE",
"438 24 CURVE",
"438 146 LINE",
"400 123 OFFCURVE",
"357 111 OFFCURVE",
"317 111 CURVE SMOOTH",
"238 111 OFFCURVE",
"183 163 OFFCURVE",
"178 252 CURVE"
);
},
{
closed = 1;
nodes = (
"359 620 LINE",
"237 620 LINE",
"237 421 LINE",
"359 421 LINE"
);
},
{
closed = 1;
nodes = (
"238 -111 LINE",
"359 -111 LINE",
"359 99 LINE",
"238 99 LINE"
);
}
);
width = 478;
},
{
layerId = "25BA55F5-DD3E-4682-A696-ADF7D9496427";
paths = (
{
closed = 1;
nodes = (
"114 358 OFFCURVE",
"188 453 OFFCURVE",
"317 453 CURVE SMOOTH",
"345 453 OFFCURVE",
"377 445 OFFCURVE",
"405 430 CURVE",
"405 492 LINE",
"371 507 OFFCURVE",
"340 512 OFFCURVE",
"311 512 CURVE SMOOTH",
"142 512 OFFCURVE",
"50 384 OFFCURVE",
"50 252 CURVE SMOOTH",
"50 116 OFFCURVE",
"139 -8 OFFCURVE",
"311 -8 CURVE SMOOTH",
"340 -8 OFFCURVE",
"372 -3 OFFCURVE",
"405 11 CURVE",
"405 73 LINE",
"380 59 OFFCURVE",
"346 51 OFFCURVE",
"318 51 CURVE SMOOTH",
"180 51 OFFCURVE",
"114 145 OFFCURVE",
"114 251 CURVE SMOOTH"
);
},
{
closed = 1;
nodes = (
"327 614 LINE",
"272 614 LINE",
"272 470 LINE",
"327 470 LINE"
);
},
{
closed = 1;
nodes = (
"272 -111 LINE",
"327 -111 LINE",
"327 32 LINE",
"272 32 LINE"
);
}
);
width = 445;
}
);
unicode = 00A2;
}
{
glyphname = currency;
layers = (
{
layerId = "7B4D842D-CA8D-4153-9CDE-FADFBE419175";
paths = (
{
closed = 1;
nodes = (
"58 271 OFFCURVE",
"69 231 OFFCURVE",
"87 199 CURVE",
"28 142 LINE",
"113 60 LINE",
"171 117 LINE",
"205 99 OFFCURVE",
"244 90 OFFCURVE",
"286 90 CURVE SMOOTH",
"328 90 OFFCURVE",
"366 99 OFFCURVE",
"399 116 CURVE",
"458 60 LINE",
"543 142 LINE",
"484 199 LINE",
"502 231 OFFCURVE",
"514 271 OFFCURVE",
"514 311 CURVE SMOOTH",
"514 351 OFFCURVE",
"502 390 OFFCURVE",
"485 421 CURVE",
"543 478 LINE",
"458 560 LINE",
"400 504 LINE",
"367 521 OFFCURVE",
"328 531 OFFCURVE",
"286 531 CURVE SMOOTH",
"243 531 OFFCURVE",
"204 521 OFFCURVE",
"171 503 CURVE",
"113 560 LINE",
"28 478 LINE",
"86 421 LINE",
"69 390 OFFCURVE",
"58 350 OFFCURVE",
"58 311 CURVE SMOOTH"
);
},
{
closed = 1;
nodes = (
"180 368 OFFCURVE",
"223 418 OFFCURVE",
"286 418 CURVE SMOOTH",
"349 418 OFFCURVE",
"392 368 OFFCURVE",
"392 311 CURVE SMOOTH",
"392 254 OFFCURVE",
"349 204 OFFCURVE",
"286 204 CURVE SMOOTH",
"223 204 OFFCURVE",
"180 254 OFFCURVE",
"180 311 CURVE SMOOTH"
);
}
);
width = 571;
},
{
layerId = "25BA55F5-DD3E-4682-A696-ADF7D9496427";
paths = (
{
closed = 1;
nodes = (
"54 258 OFFCURVE",
"68 214 OFFCURVE",
"94 179 CURVE",
"36 121 LINE",
"77 80 LINE",
"136 139 LINE",
"170 114 OFFCURVE",
"214 100 OFFCURVE",
"264 100 CURVE SMOOTH",
"314 100 OFFCURVE",
"360 115 OFFCURVE",
"396 142 CURVE",
"459 80 LINE",
"500 121 LINE",
"437 183 LINE",
"465 219 OFFCURVE",
"482 265 OFFCURVE",
"482 316 CURVE SMOOTH",
"482 366 OFFCURVE",
"467 410 OFFCURVE",
"442 445 CURVE",
"500 503 LINE",
"459 544 LINE",
"401 486 LINE",
"366 511 OFFCURVE",
"322 526 OFFCURVE",
"272 526 CURVE SMOOTH",
"221 526 OFFCURVE",
"175 510 OFFCURVE",
"138 482 CURVE",
"77 544 LINE",
"36 503 LINE",
"97 441 LINE",
"70 405 OFFCURVE",
"54 359 OFFCURVE",
"54 309 CURVE SMOOTH"
);
},
{
closed = 1;
nodes = (
"108 406 OFFCURVE",
"175 474 OFFCURVE",
"268 474 CURVE SMOOTH",
"361 474 OFFCURVE",
"428 405 OFFCURVE",
"428 312 CURVE SMOOTH",
"428 219 OFFCURVE",
"361 152 OFFCURVE",
"268 152 CURVE SMOOTH",
"175 152 OFFCURVE",
"108 220 OFFCURVE",
"108 313 CURVE SMOOTH"
);
}
);
width = 536;
}
);
unicode = 00A4;
}
{
glyphname = degree;
layers = (
{
layerId = "7B4D842D-CA8D-4153-9CDE-FADFBE419175";
paths = (
{
closed = 1;
nodes = (
"30 390 OFFCURVE",
"115 305 OFFCURVE",
"220 305 CURVE SMOOTH",
"325 305 OFFCURVE",
"410 390 OFFCURVE",
"410 495 CURVE SMOOTH",
"410 600 OFFCURVE",
"325 685 OFFCURVE",
"220 685 CURVE SMOOTH",
"115 685 OFFCURVE",
"30 600 OFFCURVE",
"30 495 CURVE SMOOTH"
);
},
{
closed = 1;
nodes = (
"132 543 OFFCURVE",
"172 583 OFFCURVE",
"220 583 CURVE SMOOTH",
"268 583 OFFCURVE",
"308 543 OFFCURVE",
"308 495 CURVE SMOOTH",
"308 447 OFFCURVE",
"268 407 OFFCURVE",
"220 407 CURVE SMOOTH",
"172 407 OFFCURVE",
"132 447 OFFCURVE",
"132 495 CURVE SMOOTH"
);
}
);
width = 440;
},
{
layerId = "25BA55F5-DD3E-4682-A696-ADF7D9496427";
paths = (
{
closed = 1;
nodes = (
"30 460 OFFCURVE",
"85 408 OFFCURVE",
"164 408 CURVE SMOOTH",
"243 408 OFFCURVE",
"302 464 OFFCURVE",
"302 543 CURVE SMOOTH",
"302 622 OFFCURVE",
"247 674 OFFCURVE",
"168 674 CURVE SMOOTH",
"89 674 OFFCURVE",
"30 618 OFFCURVE",
"30 539 CURVE SMOOTH"
);
},
{
closed = 1;
nodes = (
"83 589 OFFCURVE",
"116 627 OFFCURVE",
"164 627 CURVE SMOOTH",
"212 627 OFFCURVE",
"249 589 OFFCURVE",
"249 541 CURVE SMOOTH",
"249 493 OFFCURVE",
"216 455 OFFCURVE",
"168 455 CURVE SMOOTH",
"120 455 OFFCURVE",
"83 493 OFFCURVE",
"83 541 CURVE SMOOTH"
);
}
);
width = 332;
}
);
unicode = 00B0;
}
{
glyphname = dieresis;
layers = (
{
layerId = "7B4D842D-CA8D-4153-9CDE-FADFBE419175";
paths = (
{
closed = 1;
nodes = (
"33 664 OFFCURVE",
"68 628 OFFCURVE",
"116 628 CURVE SMOOTH",
"163 628 OFFCURVE",
"198 664 OFFCURVE",
"198 710 CURVE SMOOTH",
"198 755 OFFCURVE",
"163 791 OFFCURVE",
"116 791 CURVE SMOOTH",
"68 791 OFFCURVE",
"33 755 OFFCURVE",
"33 710 CURVE SMOOTH"
);
},
{
closed = 1;
nodes = (
"301 664 OFFCURVE",
"336 628 OFFCURVE",
"384 628 CURVE SMOOTH",
"431 628 OFFCURVE",
"467 664 OFFCURVE",
"467 710 CURVE SMOOTH",
"467 755 OFFCURVE",
"431 791 OFFCURVE",
"384 791 CURVE SMOOTH",
"336 791 OFFCURVE",
"301 755 OFFCURVE",
"301 710 CURVE SMOOTH"
);
}
);
width = 500;
},
{
layerId = "25BA55F5-DD3E-4682-A696-ADF7D9496427";
paths = (
{
closed = 1;
nodes = (
"65 702 OFFCURVE",
"83 683 OFFCURVE",
"108 683 CURVE SMOOTH",
"132 683 OFFCURVE",
"151 702 OFFCURVE",
"151 726 CURVE SMOOTH",
"151 751 OFFCURVE",
"132 769 OFFCURVE",
"108 769 CURVE SMOOTH",
"83 769 OFFCURVE",
"65 751 OFFCURVE",
"65 726 CURVE SMOOTH"
);
},
{
closed = 1;
nodes = (
"249 702 OFFCURVE",
"268 683 OFFCURVE",
"292 683 CURVE SMOOTH",
"317 683 OFFCURVE",
"335 702 OFFCURVE",
"335 726 CURVE SMOOTH",
"335 751 OFFCURVE",
"317 769 OFFCURVE",
"292 769 CURVE SMOOTH",
"268 769 OFFCURVE",
"249 751 OFFCURVE",
"249 726 CURVE SMOOTH"
);
}
);
width = 400;
}
);
unicode = 00A8;
}
{
glyphname = divide;
layers = (
{
layerId = "7B4D842D-CA8D-4153-9CDE-FADFBE419175";
paths = (
{
closed = 1;
nodes = (
"214 475 OFFCURVE",
"249 440 OFFCURVE",
"290 440 CURVE SMOOTH",
"331 440 OFFCURVE",
"366 475 OFFCURVE",
"366 516 CURVE SMOOTH",
"366 557 OFFCURVE",
"331 592 OFFCURVE",
"290 592 CURVE SMOOTH",
"249 592 OFFCURVE",
"214 557 OFFCURVE",
"214 516 CURVE SMOOTH"
);
},
{
closed = 1;
nodes = (
"544 275 LINE",
"544 405 LINE",
"45 405 LINE",
"45 275 LINE"
);
},
{
closed = 1;
nodes = (
"214 123 OFFCURVE",
"249 88 OFFCURVE",
"290 88 CURVE SMOOTH",
"331 88 OFFCURVE",
"366 123 OFFCURVE",
"366 164 CURVE SMOOTH",
"366 205 OFFCURVE",
"331 240 OFFCURVE",
"290 240 CURVE SMOOTH",
"249 240 OFFCURVE",
"214 205 OFFCURVE",
"214 164 CURVE SMOOTH"
);
}
);
width = 589;
},
{
layerId = "25BA55F5-DD3E-4682-A696-ADF7D9496427";
paths = (
{
closed = 1;
nodes = (
"226 494 OFFCURVE",
"247 473 OFFCURVE",
"272 473 CURVE SMOOTH",
"297 473 OFFCURVE",
"318 494 OFFCURVE",
"318 519 CURVE SMOOTH",
"318 544 OFFCURVE",
"297 565 OFFCURVE",
"272 565 CURVE SMOOTH",
"247 565 OFFCURVE",
"226 544 OFFCURVE",
"226 519 CURVE SMOOTH"
);
},
{
closed = 1;
nodes = (
"484 312 LINE",
"484 368 LINE",
"60 368 LINE",
"60 312 LINE"
);
},
{
closed = 1;
nodes = (
"226 136 OFFCURVE",
"247 115 OFFCURVE",
"272 115 CURVE SMOOTH",
"297 115 OFFCURVE",
"318 136 OFFCURVE",
"318 161 CURVE SMOOTH",
"318 186 OFFCURVE",
"297 207 OFFCURVE",
"272 207 CURVE SMOOTH",
"247 207 OFFCURVE",
"226 186 OFFCURVE",
"226 161 CURVE SMOOTH"
);
}
);
width = 544;
}
);
unicode = 00F7;
}
{
glyphname = exclamdown;
layers = (
{
layerId = "7B4D842D-CA8D-4153-9CDE-FADFBE419175";
paths = (
{
closed = 1;
nodes = (
"214 273 LINE",
"214 -165 LINE",
"75 -165 LINE",
"75 273 LINE"
);
},
{
closed = 1;
nodes = (
"52 477 OFFCURVE",
"92 517 OFFCURVE",
"143 517 CURVE SMOOTH",
"194 517 OFFCURVE",
"234 477 OFFCURVE",
"234 426 CURVE SMOOTH",
"234 375 OFFCURVE",
"194 335 OFFCURVE",
"143 335 CURVE SMOOTH",
"92 335 OFFCURVE",
"52 375 OFFCURVE",
"52 426 CURVE SMOOTH"
);
}
);
width = 289;
},
{
layerId = "25BA55F5-DD3E-4682-A696-ADF7D9496427";
paths = (
{
closed = 1;
nodes = (
"151 313 LINE",
"151 -165 LINE",
"90 -165 LINE",
"90 313 LINE"
);
},
{
closed = 1;
nodes = (
"69 496 OFFCURVE",
"90 517 OFFCURVE",
"119 517 CURVE SMOOTH",
"148 517 OFFCURVE",
"171 496 OFFCURVE",
"171 467 CURVE SMOOTH",
"171 439 OFFCURVE",
"148 416 OFFCURVE",
"119 416 CURVE SMOOTH",
"90 416 OFFCURVE",
"69 439 OFFCURVE",
"69 467 CURVE SMOOTH"
);
}
);
width = 241;
}
);
unicode = 00A1;
}
{
glyphname = germandbls;
layers = (
{
layerId = "7B4D842D-CA8D-4153-9CDE-FADFBE419175";
paths = (
{
closed = 1;
nodes = (
"320 112 OFFCURVE",
"346 105 OFFCURVE",
"381 105 CURVE SMOOTH",
"416 105 OFFCURVE",
"442 124 OFFCURVE",
"442 157 CURVE SMOOTH",
"442 231 OFFCURVE",
"297 247 OFFCURVE",
"297 351 CURVE SMOOTH",
"297 422 OFFCURVE",
"354 454 OFFCURVE",
"354 506 CURVE SMOOTH",
"354 540 OFFCURVE",
"335 563 OFFCURVE",
"292 563 CURVE SMOOTH",
"233 563 OFFCURVE",
"202 536 OFFCURVE",
"202 470 CURVE SMOOTH",
"202 0 LINE",
"60 0 LINE",
"60 461 LINE SMOOTH",
"60 606 OFFCURVE",
"139 690 OFFCURVE",
"283 690 CURVE SMOOTH",
"418 690 OFFCURVE",
"502 608 OFFCURVE",
"502 519 CURVE SMOOTH",
"502 430 OFFCURVE",
"447 405 OFFCURVE",
"447 366 CURVE SMOOTH",
"447 329 OFFCURVE",
"578 304 OFFCURVE",
"578 159 CURVE SMOOTH",
"578 58 OFFCURVE",
"507 -9 OFFCURVE",
"397 -9 CURVE SMOOTH",
"361 -9 OFFCURVE",
"307 -3 OFFCURVE",
"280 15 CURVE",
"280 138 LINE"
);
}
);
width = 598;
},
{
layerId = "25BA55F5-DD3E-4682-A696-ADF7D9496427";
paths = (
{
closed = 1;
nodes = (
"278 55 OFFCURVE",
"299 50 OFFCURVE",
"333 50 CURVE SMOOTH",
"394 50 OFFCURVE",
"432 82 OFFCURVE",
"432 126 CURVE SMOOTH",
"432 223 OFFCURVE",
"281 244 OFFCURVE",
"281 352 CURVE SMOOTH",
"281 437 OFFCURVE",
"368 457 OFFCURVE",
"368 541 CURVE SMOOTH",
"368 596 OFFCURVE",
"323 631 OFFCURVE",
"260 631 CURVE SMOOTH",
"185 631 OFFCURVE",
"142 592 OFFCURVE",
"142 505 CURVE SMOOTH",
"142 0 LINE",
"80 0 LINE",
"80 505 LINE SMOOTH",
"80 635 OFFCURVE",
"160 690 OFFCURVE",
"265 690 CURVE SMOOTH",
"367 690 OFFCURVE",
"430 622 OFFCURVE",
"430 541 CURVE SMOOTH",
"430 435 OFFCURVE",
"347 410 OFFCURVE",
"347 356 CURVE SMOOTH",
"347 281 OFFCURVE",
"494 258 OFFCURVE",
"494 131 CURVE SMOOTH",
"494 54 OFFCURVE",
"438 -7 OFFCURVE",
"330 -7 CURVE SMOOTH",
"300 -7 OFFCURVE",
"278 -5 OFFCURVE",
"252 3 CURVE",
"252 67 LINE"
);
}
);
width = 526;
}
);
unicode = 00DF;
}
{
glyphname = logicalnot;
layers = (
{
layerId = "7B4D842D-CA8D-4153-9CDE-FADFBE419175";
paths = (
{
closed = 1;
nodes = (
"558 417 LINE",
"45 417 LINE",
"45 301 LINE",
"438 301 LINE",
"438 136 LINE",
"558 136 LINE"
);
}
);
width = 603;
},
{
layerId = "25BA55F5-DD3E-4682-A696-ADF7D9496427";
paths = (
{
closed = 1;
nodes = (
"500 412 LINE",
"20 412 LINE",
"20 353 LINE",
"439 353 LINE",
"439 166 LINE",
"500 166 LINE"
);
}
);
width = 535;
}
);
unicode = 00AC;
}
{
glyphname = multiply;
layers = (
{
layerId = "7B4D842D-CA8D-4153-9CDE-FADFBE419175";
paths = (
{
closed = 1;
nodes = (
"487 209 LINE",
"134 561 LINE",
"42 469 LINE",
"395 117 LINE"
);
},
{
closed = 1;
nodes = (
"485 466 LINE",
"390 560 LINE",
"43 213 LINE",
"138 119 LINE"
);
}
);
width = 530;
},
{
layerId = "25BA55F5-DD3E-4682-A696-ADF7D9496427";
paths = (
{
closed = 1;
nodes = (
"412 210 LINE",
"103 516 LINE",
"63 476 LINE",
"372 170 LINE"
);
},
{
closed = 1;
nodes = (
"417 477 LINE",
"377 517 LINE",
"68 210 LINE",
"108 170 LINE"
);
}
);
width = 481;
}
);
unicode = 00D7;
}
{
glyphname = onehalf;
layers = (
{
layerId = "7B4D842D-CA8D-4153-9CDE-FADFBE419175";
paths = (
{
closed = 1;
nodes = (
"817 0 LINE",
"817 90 LINE",
"655 90 LINE",
"739 144 OFFCURVE",
"803 213 OFFCURVE",
"803 300 CURVE SMOOTH",
"803 387 OFFCURVE",
"739 437 OFFCURVE",
"649 437 CURVE SMOOTH",
"605 437 OFFCURVE",
"562 423 OFFCURVE",
"532 404 CURVE",
"532 299 LINE",
"563 321 OFFCURVE",
"602 336 OFFCURVE",
"631 336 CURVE SMOOTH",
"672 336 OFFCURVE",
"692 316 OFFCURVE",
"692 285 CURVE SMOOTH",
"692 221 OFFCURVE",
"606 138 OFFCURVE",
"522 77 CURVE",
"522 0 LINE"
);
},
{
closed = 1;
nodes = (
"126 599 LINE",
"126 278 LINE",
"229 278 LINE",
"229 711 LINE",
"144 711 LINE",
"10 635 LINE",
"10 537 LINE"
);
},
{
closed = 1;
nodes = (
"232 0 LINE",
"660 711 LINE",
"552 711 LINE",
"123 0 LINE"
);
}
);
width = 833;
},
{
layerId = "25BA55F5-DD3E-4682-A696-ADF7D9496427";
paths = (
{
closed = 1;
nodes = (
"787 0 LINE",
"787 46 LINE",
"590 46 LINE",
"692 125 OFFCURVE",
"772 223 OFFCURVE",
"772 304 CURVE SMOOTH",
"772 391 OFFCURVE",
"703 433 OFFCURVE",
"634 433 CURVE SMOOTH",
"592 433 OFFCURVE",
"555 417 OFFCURVE",
"527 400 CURVE",
"527 341 LINE",
"558 366 OFFCURVE",
"597 385 OFFCURVE",
"636 385 CURVE SMOOTH",
"680 385 OFFCURVE",
"717 361 OFFCURVE",
"717 302 CURVE SMOOTH",
"717 218 OFFCURVE",
"613 118 OFFCURVE",
"512 41 CURVE",
"512 0 LINE"
);
},
{
closed = 1;
nodes = (
"184 648 LINE",
"184 282 LINE",
"236 282 LINE",
"236 711 LINE",
"193 711 LINE",
"80 647 LINE",
"80 590 LINE"
);
},
{
closed = 1;
nodes = (
"211 0 LINE",
"668 712 LINE",
"606 712 LINE",
"150 0 LINE"
);
}
);
width = 833;
}
);
unicode = 00BD;
}
{
glyphname = oslash;
layers = (
{
layerId = "7B4D842D-CA8D-4153-9CDE-FADFBE419175";
paths = (
{
closed = 1;
nodes = (
"445 -8 OFFCURVE",
"532 108 OFFCURVE",
"532 256 CURVE SMOOTH",
"532 400 OFFCURVE",
"448 515 OFFCURVE",
"284 515 CURVE SMOOTH",
"130 515 OFFCURVE",
"35 400 OFFCURVE",
"35 247 CURVE SMOOTH",
"35 105 OFFCURVE",
"119 -8 OFFCURVE",
"284 -8 CURVE SMOOTH"
);
},
{
closed = 1;
nodes = (
"370 416 OFFCURVE",
"398 340 OFFCURVE",
"398 251 CURVE SMOOTH",
"398 161 OFFCURVE",
"365 89 OFFCURVE",
"285 89 CURVE SMOOTH",
"205 89 OFFCURVE",
"169 164 OFFCURVE",
"169 253 CURVE SMOOTH",
"169 343 OFFCURVE",
"204 416 OFFCURVE",
"283 416 CURVE SMOOTH"
);
},
{
closed = 1;
nodes = (
"156 -8 LINE",
"532 515 LINE",
"410 515 LINE",
"35 -8 LINE"
);
}
);
width = 562;
},
{
layerId = "25BA55F5-DD3E-4682-A696-ADF7D9496427";
paths = (
{
closed = 1;
nodes = (
"447 -9 OFFCURVE",
"533 106 OFFCURVE",
"533 251 CURVE SMOOTH",
"533 396 OFFCURVE",
"452 514 OFFCURVE",
"295 514 CURVE SMOOTH",
"155 514 OFFCURVE",
"62 396 OFFCURVE",
"62 251 CURVE SMOOTH",
"62 106 OFFCURVE",
"149 -9 OFFCURVE",
"295 -9 CURVE SMOOTH"
);
},
{
closed = 1;
nodes = (
"422 459 OFFCURVE",
"472 360 OFFCURVE",
"472 251 CURVE SMOOTH",
"472 142 OFFCURVE",
"413 46 OFFCURVE",
"295 46 CURVE SMOOTH",
"189 46 OFFCURVE",
"123 142 OFFCURVE",
"123 251 CURVE SMOOTH",
"123 360 OFFCURVE",
"183 459 OFFCURVE",
"295 459 CURVE SMOOTH"
);
},
{
closed = 1;
nodes = (
"133 -9 LINE",
"533 514 LINE",
"461 514 LINE",
"62 -9 LINE"
);
}
);
width = 563;
}
);
unicode = 00F8;
}
{
glyphname = paragraph;
layers = (
{
layerId = "7B4D842D-CA8D-4153-9CDE-FADFBE419175";
paths = (
{
closed = 1;
nodes = (
"232 674 LINE SMOOTH",
"69 674 OFFCURVE",
"10 584 OFFCURVE",
"10 497 CURVE SMOOTH",
"10 405 OFFCURVE",
"76 317 OFFCURVE",
"213 317 CURVE",
"213 -148 LINE",
"324 -148 LINE",
"324 674 LINE"
);
},
{
closed = 1;
nodes = (
"527 -148 LINE",
"527 674 LINE",
"417 674 LINE",
"416 -148 LINE"
);
}
);
width = 592;
},
{
layerId = "25BA55F5-DD3E-4682-A696-ADF7D9496427";
paths = (
{
closed = 1;
nodes = (
"215 674 LINE",
"94 674 OFFCURVE",
"30 589 OFFCURVE",
"30 507 CURVE SMOOTH",
"30 420 OFFCURVE",
"93 347 OFFCURVE",
"216 347 CURVE",
"216 -148 LINE",
"276 -148 LINE",
"276 674 LINE"
);
},
{
closed = 1;
nodes = (
"457 -148 LINE",
"457 674 LINE",
"397 674 LINE",
"397 -148 LINE"
);
}
);
width = 533;
}
);
unicode = 00B6;
}
{
glyphname = plusminus;
layers = (
{
layerId = "7B4D842D-CA8D-4153-9CDE-FADFBE419175";
paths = (
{
closed = 1;
nodes = (
"361 186 LINE",
"361 585 LINE",
"227 585 LINE",
"227 186 LINE"
);
},
{
closed = 1;
nodes = (
"544 326 LINE",
"544 446 LINE",
"45 446 LINE",
"45 326 LINE"
);
},
{
closed = 1;
nodes = (
"544 28 LINE",
"544 148 LINE",
"45 148 LINE",
"45 28 LINE"
);
}
);
width = 589;
},
{
layerId = "25BA55F5-DD3E-4682-A696-ADF7D9496427";
paths = (
{
closed = 1;
nodes = (
"296 155 LINE",
"296 565 LINE",
"239 565 LINE",
"239 155 LINE"
);
},
{
closed = 1;
nodes = (
"484 332 LINE",
"484 388 LINE",
"60 388 LINE",
"60 332 LINE"
);
},
{
closed = 1;
nodes = (
"484 31 LINE",
"484 87 LINE",
"60 87 LINE",
"60 31 LINE"
);
}
);
width = 544;
}
);
unicode = 00B1;
}
{
glyphname = snA;
layers = (
{
layerId = "25BA55F5-DD3E-4682-A696-ADF7D9496427";
paths = (
{
closed = 1;
nodes = (
"514 494 OFFCURVE",
"455 456 OFFCURVE",
"455 378 CURVE SMOOTH",
"455 317 LINE",
"434 346 LINE",
"448 329 OFFCURVE",
"501 313 OFFCURVE",
"530 313 CURVE SMOOTH",
"569 313 OFFCURVE",
"587 328 OFFCURVE",
"587 363 CURVE SMOOTH",
"587 397 OFFCURVE",
"568 416 OFFCURVE",
"568 449 CURVE SMOOTH",
"568 471 OFFCURVE",
"579 485 OFFCURVE",
"592 494 CURVE"
);
},
{
closed = 1;
nodes = (
"118 411 LINE",
"118 486 OFFCURVE",
"174 553 OFFCURVE",
"274 553 CURVE SMOOTH",
"372 553 OFFCURVE",
"425 497 OFFCURVE",
"435 437 CURVE",
"422 438 LINE",
"433 506 OFFCURVE",
"492 551 OFFCURVE",
"600 551 CURVE SMOOTH",
"670 551 LINE",
"670 496 LINE",
"640 496 OFFCURVE",
"626 480 OFFCURVE",
"626 457 CURVE SMOOTH",
"626 426 OFFCURVE",
"645 398 OFFCURVE",
"645 362 CURVE SMOOTH",
"645 292 OFFCURVE",
"605 259 OFFCURVE",
"537 259 CURVE SMOOTH",
"501 259 OFFCURVE",
"466 268 OFFCURVE",
"437 287 CURVE",
"455 309 LINE",
"455 -156 LINE",
"397 -156 LINE",
"396 317 LINE",
"408 303 LINE",
"374 318 OFFCURVE",
"326 329 OFFCURVE",
"273 329 CURVE SMOOTH",
"170 329 OFFCURVE",
"105 281 OFFCURVE",
"105 187 CURVE SMOOTH",
"105 77 OFFCURVE",
"205 43 OFFCURVE",
"314 43 CURVE SMOOTH",
"400 43 OFFCURVE",
"522 63 OFFCURVE",
"595 91 CURVE",
"595 34 LINE",
"527 7 OFFCURVE",
"409 -12 OFFCURVE",
"313 -12 CURVE SMOOTH",
"179 -12 OFFCURVE",
"45 39 OFFCURVE",
"45 190 CURVE SMOOTH",
"45 322 OFFCURVE",
"148 384 OFFCURVE",
"268 384 CURVE SMOOTH",
"321 384 OFFCURVE",
"380 372 OFFCURVE",
"410 355 CURVE",
"396 335 LINE",
"396 373 LINE SMOOTH",
"396 452 OFFCURVE",
"359 498 OFFCURVE",
"277 498 CURVE SMOOTH",
"206 498 OFFCURVE",
"181 458 OFFCURVE",
"178 411 CURVE"
);
}
);
width = 700;
},
{
layerId = "7B4D842D-CA8D-4153-9CDE-FADFBE419175";
paths = (
{
closed = 1;
nodes = (
"557 461 OFFCURVE",
"522 434 OFFCURVE",
"522 372 CURVE SMOOTH",
"522 294 LINE",
"511 347 LINE",
"522 331 OFFCURVE",
"553 320 OFFCURVE",
"575 320 CURVE SMOOTH",
"602 320 OFFCURVE",
"615 337 OFFCURVE",
"615 363 CURVE SMOOTH",
"615 392 OFFCURVE",
"602 409 OFFCURVE",
"602 437 CURVE SMOOTH",
"602 448 OFFCURVE",
"607 463 OFFCURVE",
"620 471 CURVE"
);
},
{
closed = 1;
nodes = (
"84 418 LINE",
"86 525 OFFCURVE",
"156 585 OFFCURVE",
"273 586 CURVE SMOOTH",
"384 587 OFFCURVE",
"447 527 OFFCURVE",
"467 458 CURVE",
"447 471 LINE",
"481 556 OFFCURVE",
"573 584 OFFCURVE",
"687 584 CURVE SMOOTH",
"750 584 LINE",
"751 480 LINE",
"721 480 OFFCURVE",
"705 471 OFFCURVE",
"705 447 CURVE SMOOTH",
"705 417 OFFCURVE",
"724 387 OFFCURVE",
"724 341 CURVE SMOOTH",
"724 262 OFFCURVE",
"670 214 OFFCURVE",
"595 214 CURVE SMOOTH",
"562 214 OFFCURVE",
"529 222 OFFCURVE",
"493 241 CURVE",
"522 268 LINE",
"522 -156 LINE",
"384 -156 LINE",
"384 295 LINE",
"397 275 LINE",
"362 286 OFFCURVE",
"325 290 OFFCURVE",
"290 290 CURVE SMOOTH",
"222 290 OFFCURVE",
"165 262 OFFCURVE",
"165 195 CURVE SMOOTH",
"165 126 OFFCURVE",
"238 97 OFFCURVE",
"321 97 CURVE SMOOTH",
"433 97 OFFCURVE",
"548 115 OFFCURVE",
"645 149 CURVE",
"645 37 LINE",
"557 10 OFFCURVE",
"440 -12 OFFCURVE",
"316 -12 CURVE SMOOTH",
"150 -12 OFFCURVE",
"30 60 OFFCURVE",
"30 198 CURVE SMOOTH",
"30 323 OFFCURVE",
"137 402 OFFCURVE",
"279 402 CURVE SMOOTH",
"334 402 OFFCURVE",
"376 394 OFFCURVE",
"413 376 CURVE",
"382 324 LINE",
"382 350 LINE SMOOTH",
"382 424 OFFCURVE",
"353 473 OFFCURVE",
"283 473 CURVE SMOOTH",
"241 473 OFFCURVE",
"218 455 OFFCURVE",
"214 418 CURVE"
);
}
);
width = 779;
}
);
unicode = 0D85;
}
{
glyphname = snBA;
layers = (
{
layerId = "25BA55F5-DD3E-4682-A696-ADF7D9496427";
paths = (
{
closed = 1;
nodes = (
"178 44 OFFCURVE",
"149 74 OFFCURVE",
"149 120 CURVE SMOOTH",
"149 167 OFFCURVE",
"177 199 OFFCURVE",
"223 199 CURVE SMOOTH",
"268 199 OFFCURVE",
"295 169 OFFCURVE",
"295 122 CURVE SMOOTH",
"295 76 OFFCURVE",
"269 44 OFFCURVE",
"224 44 CURVE SMOOTH"
);
},
{
closed = 1;
nodes = (
"481 157 OFFCURVE",
"521 191 OFFCURVE",
"521 268 CURVE SMOOTH",
"521 392 OFFCURVE",
"439 482 OFFCURVE",
"292 482 CURVE",
"143 482 OFFCURVE",
"50 374 OFFCURVE",
"50 223 CURVE SMOOTH",
"50 102 OFFCURVE",
"110 -10 OFFCURVE",
"225 -10 CURVE SMOOTH",
"296 -10 OFFCURVE",
"349 42 OFFCURVE",
"349 123 CURVE SMOOTH",
"349 202 OFFCURVE",
"303 253 OFFCURVE",
"229 253 CURVE SMOOTH",
"167 253 OFFCURVE",
"114 213 OFFCURVE",
"114 134 CURVE",
"130 129 LINE",
"126 144 OFFCURVE",
"108 167 OFFCURVE",
"108 224 CURVE SMOOTH",
"108 320 OFFCURVE",
"159 427 OFFCURVE",
"291 427 CURVE",
"392 427 OFFCURVE",
"461 376 OFFCURVE",
"461 268 CURVE",
"461 192 OFFCURVE",
"421 160 OFFCURVE",
"421 97 CURVE SMOOTH",
"421 34 OFFCURVE",
"478 -10 OFFCURVE",
"547 -10 CURVE SMOOTH",
"684 -10 OFFCURVE",
"743 152 OFFCURVE",
"743 319 CURVE",
"743 546 OFFCURVE",
"648 773 OFFCURVE",
"337 773 CURVE",
"248 773 OFFCURVE",
"139 747 OFFCURVE",
"78 710 CURVE",
"78 655 LINE",
"138 691 OFFCURVE",
"248 718 OFFCURVE",
"337 718 CURVE",
"591 718 OFFCURVE",
"683 544 OFFCURVE",
"683 320 CURVE",
"683 178 OFFCURVE",
"636 45 OFFCURVE",
"547 45 CURVE SMOOTH",
"514 45 OFFCURVE",
"481 62 OFFCURVE",
"481 101 CURVE SMOOTH"
);
}
);
width = 818;
},
{
layerId = "7B4D842D-CA8D-4153-9CDE-FADFBE419175";
paths = (
{
closed = 1;
nodes = (
"199 78 OFFCURVE",
"175 95 OFFCURVE",
"175 131 CURVE SMOOTH",
"175 167 OFFCURVE",
"199 184 OFFCURVE",
"226 184 CURVE SMOOTH",
"254 184 OFFCURVE",
"277 167 OFFCURVE",
"277 131 CURVE SMOOTH",
"277 95 OFFCURVE",
"254 78 OFFCURVE",
"226 78 CURVE SMOOTH"
);
},
{
closed = 1;
nodes = (
"542 192 OFFCURVE",
"581 215 OFFCURVE",
"581 298 CURVE",
"581 430 OFFCURVE",
"487 519 OFFCURVE",
"319 519 CURVE",
"132 519 OFFCURVE",
"35 392 OFFCURVE",
"35 217 CURVE",
"36 88 OFFCURVE",
"108 -10 OFFCURVE",
"236 -10 CURVE SMOOTH",
"328 -10 OFFCURVE",
"383 51 OFFCURVE",
"383 141 CURVE SMOOTH",
"383 231 OFFCURVE",
"328 280 OFFCURVE",
"249 280 CURVE SMOOTH",
"179 280 OFFCURVE",
"133 240 OFFCURVE",
"125 194 CURVE",
"164 168 LINE",
"160 182 OFFCURVE",
"157 193 OFFCURVE",
"157 215 CURVE",
"147 333 OFFCURVE",
"210 407 OFFCURVE",
"319 407 CURVE",
"402 407 OFFCURVE",
"461 371 OFFCURVE",
"461 301 CURVE SMOOTH",
"461 221 OFFCURVE",
"424 199 OFFCURVE",
"424 141 CURVE SMOOTH",
"424 59 OFFCURVE",
"486 -10 OFFCURVE",
"605 -10 CURVE SMOOTH",
"760 -10 OFFCURVE",
"841 139 OFFCURVE",
"841 308 CURVE",
"841 615 OFFCURVE",
"668 787 OFFCURVE",
"357 787 CURVE",
"235 787 OFFCURVE",
"131 753 OFFCURVE",
"48 705 CURVE",
"48 583 LINE",
"125 634 OFFCURVE",
"233 675 OFFCURVE",
"357 675 CURVE",
"581 675 OFFCURVE",
"714 546 OFFCURVE",
"714 311 CURVE",
"714 207 OFFCURVE",
"690 95 OFFCURVE",
"602 95 CURVE SMOOTH",
"573 95 OFFCURVE",
"542 107 OFFCURVE",
"542 144 CURVE"
);
}
);
width = 896;
}
);
unicode = 0DB6;
}
{
glyphname = snDDHA;
layers = (
{
layerId = "25BA55F5-DD3E-4682-A696-ADF7D9496427";
paths = (
{
closed = 1;
nodes = (
"383 340 OFFCURVE",
"384 353 OFFCURVE",
"384 367 CURVE",
"384 462 OFFCURVE",
"342 553 OFFCURVE",
"226 553 CURVE SMOOTH",
"140 553 OFFCURVE",
"90 499 OFFCURVE",
"90 424 CURVE",
"150 424 LINE",
"153 471 OFFCURVE",
"180 498 OFFCURVE",
"227 498 CURVE",
"301 498 OFFCURVE",
"321 439 OFFCURVE",
"321 380 CURVE",
"35 380 LINE",
"35 325 LINE",
"382 326 LINE"
);
},
{
closed = 1;
nodes = (
"689 545 OFFCURVE",
"556 737 OFFCURVE",
"341 794 CURVE",
"341 736 LINE",
"525 676 OFFCURVE",
"629 515 OFFCURVE",
"629 308 CURVE",
"629 175 OFFCURVE",
"603 45 OFFCURVE",
"496 45 CURVE",
"427 45 OFFCURVE",
"403 94 OFFCURVE",
"403 142 CURVE",
"403 156 LINE",
"344 156 LINE",
"344 142 LINE",
"344 94 OFFCURVE",
"317 45 OFFCURVE",
"243 45 CURVE SMOOTH",
"178 45 OFFCURVE",
"130 96 OFFCURVE",
"130 182 CURVE",
"130 268 OFFCURVE",
"186 326 OFFCURVE",
"253 326 CURVE",
"144 326 LINE",
"107 309 OFFCURVE",
"70 253 OFFCURVE",
"70 181 CURVE",
"70 64 OFFCURVE",
"143 -10 OFFCURVE",
"242 -10 CURVE SMOOTH",
"306 -10 OFFCURVE",
"352 21 OFFCURVE",
"372 60 CURVE",
"388 31 OFFCURVE",
"430 -10 OFFCURVE",
"492 -10 CURVE",
"655 -10 OFFCURVE",
"689 149 OFFCURVE",
"689 307 CURVE"
);
},
{
closed = 1;
nodes = (
"422 735 LINE",
"385 700 OFFCURVE",
"359 644 OFFCURVE",
"359 586 CURVE SMOOTH",
"359 503 OFFCURVE",
"421 451 OFFCURVE",
"495 451 CURVE SMOOTH",
"551 451 OFFCURVE",
"591 470 OFFCURVE",
"613 502 CURVE",
"581 541 LINE",
"566 523 OFFCURVE",
"541 506 OFFCURVE",
"500 506 CURVE",
"454 506 OFFCURVE",
"417 533 OFFCURVE",
"417 584 CURVE SMOOTH",
"417 631 OFFCURVE",
"441 673 OFFCURVE",
"471 699 CURVE"
);
}
);
width = 769;
},
{
layerId = "7B4D842D-CA8D-4153-9CDE-FADFBE419175";
paths = (
{
closed = 1;
nodes = (
"414 347 OFFCURVE",
"415 370 OFFCURVE",
"415 387 CURVE SMOOTH",
"415 499 OFFCURVE",
"355 586 OFFCURVE",
"235 586 CURVE SMOOTH",
"128 586 OFFCURVE",
"83 525 OFFCURVE",
"79 453 CURVE",
"190 453 LINE",
"192 477 OFFCURVE",
"210 492 OFFCURVE",
"239 492 CURVE SMOOTH",
"282 492 OFFCURVE",
"301 463 OFFCURVE",
"301 422 CURVE",
"30 424 LINE",
"30 329 LINE",
"411 329 LINE"
);
},
{
closed = 1;
nodes = (
"831 563 OFFCURVE",
"673 805 OFFCURVE",
"377 861 CURVE",
"377 746 LINE",
"581 706 OFFCURVE",
"701 519 OFFCURVE",
"701 305 CURVE",
"701 209 OFFCURVE",
"685 102 OFFCURVE",
"603 102 CURVE",
"551 102 OFFCURVE",
"521 131 OFFCURVE",
"521 184 CURVE",
"521 230 LINE",
"380 230 LINE",
"380 184 LINE",
"380 135 OFFCURVE",
"349 102 OFFCURVE",
"298 102 CURVE",
"234 102 OFFCURVE",
"195 142 OFFCURVE",
"195 210 CURVE",
"195 275 OFFCURVE",
"237 329 OFFCURVE",
"310 329 CURVE",
"118 329 LINE",
"78 299 OFFCURVE",
"57 247 OFFCURVE",
"57 190 CURVE",
"57 70 OFFCURVE",
"145 -10 OFFCURVE",
"292 -10 CURVE",
"357 -10 OFFCURVE",
"421 14 OFFCURVE",
"450 78 CURVE",
"484 24 OFFCURVE",
"530 -10 OFFCURVE",
"621 -10 CURVE",
"787 -10 OFFCURVE",
"831 154 OFFCURVE",
"831 305 CURVE"
);
},
{
closed = 1;
nodes = (
"454 752 LINE",
"414 728 OFFCURVE",
"389 667 OFFCURVE",
"389 613 CURVE SMOOTH",
"389 527 OFFCURVE",
"451 464 OFFCURVE",
"547 464 CURVE SMOOTH",
"628 464 OFFCURVE",
"669 506 OFFCURVE",
"694 561 CURVE",
"638 643 LINE",
"627 602 OFFCURVE",
"599 567 OFFCURVE",
"555 567 CURVE",
"523 567 OFFCURVE",
"504 587 OFFCURVE",
"504 616 CURVE SMOOTH",
"504 651 OFFCURVE",
"522 676 OFFCURVE",
"546 698 CURVE"
);
}
);
width = 885;
}
);
unicode = 0DAA;
}
{
glyphname = snGHA;
layers = (
{
layerId = "25BA55F5-DD3E-4682-A696-ADF7D9496427";
paths = (
{
closed = 1;
nodes = (
"125 434 LINE",
"128 478 OFFCURVE",
"164 498 OFFCURVE",
"205 498 CURVE",
"279 498 OFFCURVE",
"306 449 OFFCURVE",
"306 390 CURVE",
"40 390 LINE",
"40 335 LINE",
"368 336 LINE",
"370 350 OFFCURVE",
"370 372 OFFCURVE",
"370 386 CURVE",
"370 481 OFFCURVE",
"310 553 OFFCURVE",
"204 553 CURVE SMOOTH",
"124 553 OFFCURVE",
"65 506 OFFCURVE",
"65 434 CURVE"
);
},
{
closed = 1;
nodes = (
"106 258 OFFCURVE",
"157 336 OFFCURVE",
"224 336 CURVE",
"119 336 LINE",
"83 311 OFFCURVE",
"46 248 OFFCURVE",
"46 173 CURVE",
"46 56 OFFCURVE",
"119 -10 OFFCURVE",
"235 -10 CURVE SMOOTH",
"289 -10 OFFCURVE",
"336 4 OFFCURVE",
"371 22 CURVE",
"371 79 LINE",
"332 77 OFFCURVE",
"292 104 OFFCURVE",
"292 166 CURVE SMOOTH",
"292 219 OFFCURVE",
"329 258 OFFCURVE",
"400 258 CURVE",
"470 258 OFFCURVE",
"506 219 OFFCURVE",
"506 166 CURVE SMOOTH",
"506 104 OFFCURVE",
"466 77 OFFCURVE",
"427 79 CURVE",
"427 22 LINE",
"462 4 OFFCURVE",
"509 -10 OFFCURVE",
"563 -10 CURVE SMOOTH",
"689 -10 OFFCURVE",
"752 75 OFFCURVE",
"752 182 CURVE SMOOTH",
"752 305 OFFCURVE",
"682 391 OFFCURVE",
"555 391 CURVE",
"494 390 LINE",
"494 449 OFFCURVE",
"521 498 OFFCURVE",
"585 498 CURVE",
"628 498 OFFCURVE",
"662 481 OFFCURVE",
"665 434 CURVE",
"725 434 LINE",
"725 499 OFFCURVE",
"678 553 OFFCURVE",
"586 553 CURVE SMOOTH",
"480 553 OFFCURVE",
"430 481 OFFCURVE",
"430 386 CURVE",
"430 362 OFFCURVE",
"431 349 OFFCURVE",
"433 336 CURVE",
"536 336 LINE",
"644 336 OFFCURVE",
"692 275 OFFCURVE",
"692 183 CURVE SMOOTH",
"692 107 OFFCURVE",
"655 45 OFFCURVE",
"563 45 CURVE SMOOTH",
"508 45 OFFCURVE",
"486 57 OFFCURVE",
"462 68 CURVE",
"464 47 LINE",
"525 47 OFFCURVE",
"565 105 OFFCURVE",
"565 169 CURVE SMOOTH",
"565 251 OFFCURVE",
"502 311 OFFCURVE",
"399 311 CURVE",
"296 311 OFFCURVE",
"233 251 OFFCURVE",
"233 169 CURVE SMOOTH",
"233 98 OFFCURVE",
"277 49 OFFCURVE",
"337 47 CURVE",
"336 68 LINE",
"312 57 OFFCURVE",
"290 45 OFFCURVE",
"235 45 CURVE SMOOTH",
"153 45 OFFCURVE",
"106 88 OFFCURVE",
"106 174 CURVE"
);
}
);
width = 797;
},
{
layerId = "7B4D842D-CA8D-4153-9CDE-FADFBE419175";
paths = (
{
closed = 1;
nodes = (
"179 453 LINE",
"179 477 OFFCURVE",
"204 492 OFFCURVE",
"233 492 CURVE SMOOTH",
"284 492 OFFCURVE",
"301 463 OFFCURVE",
"301 422 CURVE",
"30 424 LINE",
"30 338 LINE",
"411 338 LINE",
"414 356 OFFCURVE",
"415 370 OFFCURVE",
"415 387 CURVE SMOOTH",
"415 499 OFFCURVE",
"369 586 OFFCURVE",
"232 586 CURVE SMOOTH",
"125 586 OFFCURVE",
"73 517 OFFCURVE",
"69 453 CURVE"
);
},
{
closed = 1;
nodes = (
"168 273 OFFCURVE",
"212 338 OFFCURVE",
"299 338 CURVE",
"118 338 LINE",
"71 316 OFFCURVE",
"39 252 OFFCURVE",
"39 188 CURVE",
"39 73 OFFCURVE",
"117 -10 OFFCURVE",
"257 -10 CURVE",
"320 -10 OFFCURVE",
"375 8 OFFCURVE",
"423 38 CURVE",
"423 129 LINE",
"389 129 OFFCURVE",
"369 155 OFFCURVE",
"369 183 CURVE",
"369 209 OFFCURVE",
"392 233 OFFCURVE",
"440 233 CURVE",
"488 233 OFFCURVE",
"511 209 OFFCURVE",
"511 183 CURVE SMOOTH",
"511 155 OFFCURVE",
"491 129 OFFCURVE",
"457 129 CURVE",
"457 38 LINE",
"505 8 OFFCURVE",
"560 -10 OFFCURVE",
"623 -10 CURVE",
"763 -10 OFFCURVE",
"841 78 OFFCURVE",
"841 196 CURVE SMOOTH",
"841 331 OFFCURVE",
"751 422 OFFCURVE",
"616 422 CURVE",
"576 422 LINE",
"576 463 OFFCURVE",
"595 492 OFFCURVE",
"643 492 CURVE SMOOTH",
"679 492 OFFCURVE",
"700 475 OFFCURVE",
"700 443 CURVE",
"810 443 LINE",
"810 522 OFFCURVE",
"755 586 OFFCURVE",
"645 586 CURVE SMOOTH",
"508 586 OFFCURVE",
"462 499 OFFCURVE",
"462 387 CURVE SMOOTH",
"462 370 OFFCURVE",
"463 356 OFFCURVE",
"466 338 CURVE",
"541 338 LINE",
"658 338 OFFCURVE",
"712 285 OFFCURVE",
"712 196 CURVE SMOOTH",
"712 123 OFFCURVE",
"677 90 OFFCURVE",
"617 90 CURVE",
"586 90 OFFCURVE",
"542 100 OFFCURVE",
"530 110 CURVE",
"515 94 LINE",
"578 90 OFFCURVE",
"622 125 OFFCURVE",
"622 190 CURVE SMOOTH",
"622 270 OFFCURVE",
"544 316 OFFCURVE",
"440 316 CURVE",
"336 316 OFFCURVE",
"258 271 OFFCURVE",
"258 191 CURVE",
"258 126 OFFCURVE",
"302 90 OFFCURVE",
"365 94 CURVE",
"350 110 LINE",
"338 100 OFFCURVE",
"294 90 OFFCURVE",
"263 90 CURVE",
"203 90 OFFCURVE",
"168 123 OFFCURVE",
"168 196 CURVE"
);
}
);
width = 876;
}
);
unicode = 0D9D;
}
{
glyphname = snHA;
layers = (
{
layerId = "25BA55F5-DD3E-4682-A696-ADF7D9496427";
paths = (
{
closed = 1;
nodes = (
"468 553 OFFCURVE",
"395 414 OFFCURVE",
"395 236 CURVE",
"449 236 LINE",
"446 328 OFFCURVE",
"476 498 OFFCURVE",
"632 498 CURVE",
"760 498 OFFCURVE",
"801 405 OFFCURVE",
"801 277 CURVE SMOOTH",
"801 175 OFFCURVE",
"766 71 OFFCURVE",
"718 0 CURVE",
"784 0 LINE",
"824 52 OFFCURVE",
"863 163 OFFCURVE",
"863 277 CURVE SMOOTH",
"863 421 OFFCURVE",
"807 553 OFFCURVE",
"633 553 CURVE"
);
},
{
closed = 1;
nodes = (
"115 294 OFFCURVE",
"173 336 OFFCURVE",
"271 336 CURVE",
"350 336 LINE",
"352 349 OFFCURVE",
"353 362 OFFCURVE",
"353 386 CURVE",
"353 481 OFFCURVE",
"313 553 OFFCURVE",
"207 553 CURVE SMOOTH",
"123 553 OFFCURVE",
"75 497 OFFCURVE",
"75 432 CURVE",
"135 432 LINE",
"138 474 OFFCURVE",
"165 498 OFFCURVE",
"208 498 CURVE",
"272 498 OFFCURVE",
"289 449 OFFCURVE",
"289 390 CURVE",
"252 391 LINE",
"135 391 OFFCURVE",
"55 324 OFFCURVE",
"55 209 CURVE",
"55 59 OFFCURVE",
"198 -10 OFFCURVE",
"354 -10 CURVE",
"542 -10 OFFCURVE",
"648 77 OFFCURVE",
"648 212 CURVE SMOOTH",
"648 290 OFFCURVE",
"604 352 OFFCURVE",
"532 352 CURVE SMOOTH",
"480 352 OFFCURVE",
"429 322 OFFCURVE",
"429 236 CURVE",
"458 236 LINE",
"458 270 OFFCURVE",
"484 297 OFFCURVE",
"520 297 CURVE SMOOTH",
"568 297 OFFCURVE",
"588 258 OFFCURVE",
"588 211 CURVE SMOOTH",
"588 111 OFFCURVE",
"518 45 OFFCURVE",
"355 45 CURVE",
"232 45 OFFCURVE",
"115 91 OFFCURVE",
"115 210 CURVE"
);
}
);
width = 917;
},
{
layerId = "7B4D842D-CA8D-4153-9CDE-FADFBE419175";
paths = (
{
closed = 1;
nodes = (
"468 576 OFFCURVE",
"409 379 OFFCURVE",
"398 251 CURVE",
"521 248 LINE",
"530 341 OFFCURVE",
"567 464 OFFCURVE",
"686 464 CURVE",
"785 464 OFFCURVE",
"829 390 OFFCURVE",
"829 271 CURVE SMOOTH",
"829 185 OFFCURVE",
"796 77 OFFCURVE",
"740 1 CURVE",
"891 1 LINE",
"941 79 OFFCURVE",
"964 192 OFFCURVE",
"964 271 CURVE SMOOTH",
"964 435 OFFCURVE",
"879 576 OFFCURVE",
"687 576 CURVE"
);
},
{
closed = 1;
nodes = (
"186 299 OFFCURVE",
"239 338 OFFCURVE",
"326 338 CURVE",
"392 338 LINE",
"395 356 OFFCURVE",
"396 370 OFFCURVE",
"396 387 CURVE SMOOTH",
"396 489 OFFCURVE",
"351 586 OFFCURVE",
"224 586 CURVE SMOOTH",
"114 586 OFFCURVE",
"77 512 OFFCURVE",
"73 448 CURVE",
"183 448 LINE",
"183 472 OFFCURVE",
"199 492 OFFCURVE",
"225 492 CURVE SMOOTH",
"261 492 OFFCURVE",
"282 463 OFFCURVE",
"282 422 CURVE",
"263 422 LINE",
"138 422 OFFCURVE",
"57 338 OFFCURVE",
"57 230 CURVE",
"57 60 OFFCURVE",
"221 -10 OFFCURVE",
"398 -10 CURVE",
"580 -10 OFFCURVE",
"725 72 OFFCURVE",
"725 227 CURVE SMOOTH",
"725 309 OFFCURVE",
"678 370 OFFCURVE",
"597 370 CURVE SMOOTH",
"509 370 OFFCURVE",
"490 303 OFFCURVE",
"490 249 CURVE",
"521 248 LINE",
"523 261 OFFCURVE",
"533 276 OFFCURVE",
"554 276 CURVE SMOOTH",
"584 276 OFFCURVE",
"598 258 OFFCURVE",
"598 224 CURVE",
"598 145 OFFCURVE",
"526 102 OFFCURVE",
"401 102 CURVE",
"294 102 OFFCURVE",
"186 133 OFFCURVE",
"186 231 CURVE"
);
}
);
width = 1019;
}
);
unicode = 0DC4;
}
{
glyphname = snJNYA;
layers = (
{
layerId = "25BA55F5-DD3E-4682-A696-ADF7D9496427";
paths = (
{
closed = 1;
nodes = (
"202 0 LINE",
"158 81 OFFCURVE",
"125 182 OFFCURVE",
"125 281 CURVE",
"125 420 OFFCURVE",
"175 493 OFFCURVE",
"271 493 CURVE",
"369 493 LINE",
"387 543 LINE",
"270 543 LINE",
"134 543 OFFCURVE",
"65 443 OFFCURVE",
"65 284 CURVE",
"65 171 OFFCURVE",
"97 66 OFFCURVE",
"135 0 CURVE"
);
},
{
closed = 1;
nodes = (
"408 543 LINE",
"369 543 LINE",
"321 488 OFFCURVE",
"275 384 OFFCURVE",
"275 276 CURVE SMOOTH",
"275 122 OFFCURVE",
"360 -10 OFFCURVE",
"533 -10 CURVE",
"661 -10 OFFCURVE",
"741 72 OFFCURVE",
"741 197 CURVE SMOOTH",
"741 262 OFFCURVE",
"701 332 OFFCURVE",
"629 332 CURVE SMOOTH",
"577 332 OFFCURVE",
"526 303 OFFCURVE",
"526 217 CURVE",
"562 216 LINE",
"562 250 OFFCURVE",
"581 277 OFFCURVE",
"617 277 CURVE SMOOTH",
"660 277 OFFCURVE",
"681 243 OFFCURVE",
"681 196 CURVE SMOOTH",
"681 116 OFFCURVE",
"637 45 OFFCURVE",
"534 45 CURVE",
"407 45 OFFCURVE",
"337 138 OFFCURVE",
"337 276 CURVE SMOOTH",
"337 353 OFFCURVE",
"359 433 OFFCURVE",
"408 506 CURVE"
);
},
{
closed = 1;
nodes = (
"873 475 LINE",
"845 521 OFFCURVE",
"788 553 OFFCURVE",
"711 553 CURVE",
"558 553 OFFCURVE",
"488 447 OFFCURVE",
"488 276 CURVE SMOOTH",
"488 253 OFFCURVE",
"492 226 OFFCURVE",
"494 216 CURVE",
"546 216 LINE",
"543 231 OFFCURVE",
"541 250 OFFCURVE",
"541 277 CURVE SMOOTH",
"541 383 OFFCURVE",
"574 498 OFFCURVE",
"710 498 CURVE",
"782 498 OFFCURVE",
"823 462 OFFCURVE",
"842 424 CURVE"
);
},
{
closed = 1;
nodes = (
"1109 54 OFFCURVE",
"1047 45 OFFCURVE",
"993 45 CURVE SMOOTH",
"899 45 OFFCURVE",
"795 78 OFFCURVE",
"795 198 CURVE",
"795 282 OFFCURVE",
"852 336 OFFCURVE",
"960 336 CURVE SMOOTH",
"1134 336 LINE",
"1136 349 OFFCURVE",
"1137 362 OFFCURVE",
"1137 386 CURVE",
"1137 481 OFFCURVE",
"1087 553 OFFCURVE",
"981 553 CURVE SMOOTH",
"889 553 OFFCURVE",
"842 490 OFFCURVE",
"842 424 CURVE",
"902 424 LINE",
"902 471 OFFCURVE",
"939 498 OFFCURVE",
"982 498 CURVE",
"1046 498 OFFCURVE",
"1073 449 OFFCURVE",
"1073 390 CURVE",
"958 391 LINE",
"821 391 OFFCURVE",
"735 312 OFFCURVE",
"735 197 CURVE",
"735 39 OFFCURVE",
"865 -10 OFFCURVE",
"999 -10 CURVE SMOOTH",
"1049 -10 OFFCURVE",
"1106 0 OFFCURVE",
"1146 13 CURVE",
"1146 68 LINE"
);
},
{
closed = 1;
nodes = (
"1103 37 LINE",
"1043 13 OFFCURVE",
"999 -39 OFFCURVE",
"999 -93 CURVE SMOOTH",
"999 -159 OFFCURVE",
"1060 -186 OFFCURVE",
"1113 -186 CURVE SMOOTH",
"1122 -186 OFFCURVE",
"1133 -185 OFFCURVE",
"1139 -184 CURVE",
"1140 -137 LINE",
"1098 -137 OFFCURVE",
"1062 -126 OFFCURVE",
"1062 -87 CURVE SMOOTH",
"1062 -40 OFFCURVE",
"1102 -6 OFFCURVE",
"1146 13 CURVE"
);
}
);
width = 1206;
},
{
layerId = "7B4D842D-CA8D-4153-9CDE-FADFBE419175";
paths = (
{
closed = 1;
nodes = (
"272 0 LINE",
"218 91 OFFCURVE",
"182 192 OFFCURVE",
"182 291 CURVE",
"182 395 OFFCURVE",
"215 471 OFFCURVE",
"301 471 CURVE",
"368 471 LINE",
"438 576 LINE",
"300 576 LINE",
"127 576 OFFCURVE",
"55 453 OFFCURVE",
"55 294 CURVE",
"55 181 OFFCURVE",
"90 76 OFFCURVE",
"133 0 CURVE"
);
},
{
closed = 1;
nodes = (
"465 576 LINE",
"377 576 LINE",
"310 493 OFFCURVE",
"280 394 OFFCURVE",
"280 303 CURVE SMOOTH",
"280 120 OFFCURVE",
"402 -10 OFFCURVE",
"596 -10 CURVE",
"764 -10 OFFCURVE",
"859 90 OFFCURVE",
"859 213 CURVE",
"859 295 OFFCURVE",
"814 370 OFFCURVE",
"732 370 CURVE SMOOTH",
"644 370 OFFCURVE",
"618 303 OFFCURVE",
"618 219 CURVE",
"649 218 LINE",
"649 246 OFFCURVE",
"663 264 OFFCURVE",
"688 264 CURVE SMOOTH",
"714 264 OFFCURVE",
"727 244 OFFCURVE",
"727 210 CURVE",
"727 149 OFFCURVE",
"683 102 OFFCURVE",
"596 102 CURVE",
"487 102 OFFCURVE",
"419 175 OFFCURVE",
"419 303 CURVE SMOOTH",
"419 362 OFFCURVE",
"435 426 OFFCURVE",
"465 486 CURVE"
);
},
{
closed = 1;
nodes = (
"1009 484 LINE",
"971 545 OFFCURVE",
"907 586 OFFCURVE",
"798 586 CURVE",
"612 586 OFFCURVE",
"514 446 OFFCURVE",
"514 282 CURVE SMOOTH",
"514 263 OFFCURVE",
"515 242 OFFCURVE",
"518 221 CURVE",
"649 218 LINE",
"646 243 OFFCURVE",
"644 269 OFFCURVE",
"644 291 CURVE SMOOTH",
"644 395 OFFCURVE",
"691 475 OFFCURVE",
"803 475 CURVE",
"856 475 OFFCURVE",
"902 454 OFFCURVE",
"925 416 CURVE"
);
},
{
closed = 1;
nodes = (
"1280 117 OFFCURVE",
"1191 102 OFFCURVE",
"1119 102 CURVE",
"1022 102 OFFCURVE",
"980 131 OFFCURVE",
"980 194 CURVE SMOOTH",
"980 262 OFFCURVE",
"1026 291 OFFCURVE",
"1111 291 CURVE",
"1322 291 LINE",
"1325 313 OFFCURVE",
"1327 345 OFFCURVE",
"1327 367 CURVE SMOOTH",
"1327 497 OFFCURVE",
"1249 587 OFFCURVE",
"1116 587 CURVE SMOOTH",
"1002 587 OFFCURVE",
"933 516 OFFCURVE",
"925 416 CURVE",
"1063 416 LINE",
"1064 452 OFFCURVE",
"1091 475 OFFCURVE",
"1124 475 CURVE SMOOTH",
"1170 475 OFFCURVE",
"1200 441 OFFCURVE",
"1200 396 CURVE",
"1107 396 LINE",
"982 396 OFFCURVE",
"849 343 OFFCURVE",
"848 191 CURVE",
"848 60 OFFCURVE",
"953 -10 OFFCURVE",
"1117 -10 CURVE",
"1169 -10 OFFCURVE",
"1284 4 OFFCURVE",
"1329 21 CURVE",
"1329 128 LINE"
);
},
{
closed = 1;
nodes = (
"1230 48 LINE",
"1181 16 OFFCURVE",
"1140 -31 OFFCURVE",
"1143 -99 CURVE",
"1143 -160 OFFCURVE",
"1192 -200 OFFCURVE",
"1268 -200 CURVE SMOOTH",
"1283 -200 OFFCURVE",
"1299 -198 OFFCURVE",
"1316 -195 CURVE",
"1318 -103 LINE",
"1288 -102 OFFCURVE",
"1269 -92 OFFCURVE",
"1269 -64 CURVE SMOOTH",
"1269 -34 OFFCURVE",
"1295 3 OFFCURVE",
"1329 21 CURVE"
);
}
);
width = 1384;
}
);
unicode = 0DA5;
}
{
color = 1;
glyphname = snKA;
layers = (
{
layerId = "25BA55F5-DD3E-4682-A696-ADF7D9496427";
paths = (
{
closed = 1;
nodes = (
"89 0 LINE",
"234 247 OFFCURVE",
"300 321 OFFCURVE",
"452 321 CURVE",
"554 321 OFFCURVE",
"622 267 OFFCURVE",
"622 168 CURVE SMOOTH",
"622 102 OFFCURVE",
"606 45 OFFCURVE",
"548 45 CURVE SMOOTH",
"499 45 OFFCURVE",
"474 99 OFFCURVE",
"474 163 CURVE SMOOTH",
"474 181 LINE",
"414 181 LINE",
"414 164 LINE SMOOTH",
"414 108 OFFCURVE",
"403 45 OFFCURVE",
"347 45 CURVE SMOOTH",
"287 45 OFFCURVE",
"261 139 OFFCURVE",
"207 139 CURVE SMOOTH",
"163 139 OFFCURVE",
"153 111 OFFCURVE",
"118 69 CURVE",
"89 0 LINE",
"109 43 OFFCURVE",
"143 86 OFFCURVE",
"183 86 CURVE SMOOTH",
"239 86 OFFCURVE",
"255 -10 OFFCURVE",
"346 -10 CURVE SMOOTH",
"400 -10 OFFCURVE",
"428 25 OFFCURVE",
"444 83 CURVE",
"455 28 OFFCURVE",
"494 -10 OFFCURVE",
"551 -10 CURVE SMOOTH",
"644 -10 OFFCURVE",
"681 79 OFFCURVE",
"681 167 CURVE SMOOTH",
"681 291 OFFCURVE",
"585 375 OFFCURVE",
"457 375 CURVE",
"332 375 OFFCURVE",
"285 333 OFFCURVE",
"213 249 CURVE",
"234 261 LINE",
"337 415 OFFCURVE",
"430 498 OFFCURVE",
"568 498 CURVE",
"729 498 OFFCURVE",
"806 393 OFFCURVE",
"806 242 CURVE SMOOTH",
"806 163 OFFCURVE",
"790 86 OFFCURVE",
"751 0 CURVE",
"814 0 LINE",
"853 89 OFFCURVE",
"866 172 OFFCURVE",
"866 242 CURVE SMOOTH",
"866 427 OFFCURVE",
"753 553 OFFCURVE",
"572 553 CURVE",
"440 553 OFFCURVE",
"333 491 OFFCURVE",
"268 373 CURVE",
"197 275 LINE SMOOTH",
"27 0 LINE"
);
},
{
closed = 1;
nodes = (
"295 493 OFFCURVE",
"250 553 OFFCURVE",
"164 553 CURVE SMOOTH",
"76 553 OFFCURVE",
"34 494 OFFCURVE",
"34 429 CURVE",
"94 429 LINE",
"95 466 OFFCURVE",
"113 498 OFFCURVE",
"169 498 CURVE",
"218 498 OFFCURVE",
"244 466 OFFCURVE",
"244 422 CURVE SMOOTH",
"244 377 OFFCURVE",
"226 331 OFFCURVE",
"189 261 CURVE",
"274 348 LINE",
"284 374 OFFCURVE",
"295 404 OFFCURVE",
"295 425 CURVE"
);
}
);
width = 946;
},
{
layerId = "7B4D842D-CA8D-4153-9CDE-FADFBE419175";
paths = (
{
closed = 1;
nodes = (
"138 0 LINE",
"238 229 OFFCURVE",
"370 308 OFFCURVE",
"495 308 CURVE",
"597 308 OFFCURVE",
"652 264 OFFCURVE",
"652 182 CURVE SMOOTH",
"652 142 OFFCURVE",
"643 96 OFFCURVE",
"600 96 CURVE SMOOTH",
"556 96 OFFCURVE",
"547 139 OFFCURVE",
"547 183 CURVE SMOOTH",
"547 201 LINE",
"417 201 LINE",
"417 184 LINE SMOOTH",
"417 167 OFFCURVE",
"419 96 OFFCURVE",
"370 96 CURVE SMOOTH",
"327 96 OFFCURVE",
"305 170 OFFCURVE",
"258 170 CURVE SMOOTH",
"216 170 OFFCURVE",
"187 135 OFFCURVE",
"152 93 CURVE",
"138 0 LINE",
"158 43 OFFCURVE",
"183 69 OFFCURVE",
"213 69 CURVE SMOOTH",
"261 69 OFFCURVE",
"276 -10 OFFCURVE",
"367 -10 CURVE SMOOTH",
"433 -10 OFFCURVE",
"465 29 OFFCURVE",
"481 87 CURVE",
"492 32 OFFCURVE",
"528 -10 OFFCURVE",
"605 -10 CURVE SMOOTH",
"703 -10 OFFCURVE",
"772 68 OFFCURVE",
"772 180 CURVE SMOOTH",
"772 327 OFFCURVE",
"681 411 OFFCURVE",
"513 411 CURVE",
"396 411 OFFCURVE",
"311 354 OFFCURVE",
"239 270 CURVE",
"274 275 LINE",
"331 409 OFFCURVE",
"463 473 OFFCURVE",
"610 473 CURVE",
"787 473 OFFCURVE",
"870 364 OFFCURVE",
"870 227 CURVE SMOOTH",
"870 147 OFFCURVE",
"845 68 OFFCURVE",
"806 0 CURVE",
"950 0 LINE",
"985 63 OFFCURVE",
"1004 156 OFFCURVE",
"1004 225 CURVE SMOOTH",
"1004 420 OFFCURVE",
"876 585 OFFCURVE",
"622 585 CURVE",
"444 585 OFFCURVE",
"336 513 OFFCURVE",
"267 405 CURVE",
"193 342 LINE SMOOTH",
"10 0 LINE"
);
},
{
closed = 1;
nodes = (
"320 538 OFFCURVE",
"255 584 OFFCURVE",
"174 584 CURVE SMOOTH",
"69 584 OFFCURVE",
"17 520 OFFCURVE",
"10 435 CURVE",
"135 435 LINE",
"137 466 OFFCURVE",
"158 483 OFFCURVE",
"182 483 CURVE SMOOTH",
"208 483 OFFCURVE",
"223 467 OFFCURVE",
"223 439 CURVE SMOOTH",
"223 418 OFFCURVE",
"218 393 OFFCURVE",
"183 323 CURVE",
"305 375 LINE",
"316 401 OFFCURVE",
"320 425 OFFCURVE",
"320 446 CURVE SMOOTH"
);
}
);
width = 1036;
}
);
unicode = 0D9A;
}
{
glyphname = snKHA;
layers = (
{
layerId = "25BA55F5-DD3E-4682-A696-ADF7D9496427";
paths = (
{
closed = 1;
nodes = (
"178 44 OFFCURVE",
"149 74 OFFCURVE",
"149 120 CURVE SMOOTH",
"149 167 OFFCURVE",
"177 199 OFFCURVE",
"223 199 CURVE SMOOTH",
"268 199 OFFCURVE",
"295 169 OFFCURVE",
"295 122 CURVE SMOOTH",
"295 76 OFFCURVE",
"269 44 OFFCURVE",
"224 44 CURVE SMOOTH"
);
},
{
closed = 1;
nodes = (
"763 546 OFFCURVE",
"658 773 OFFCURVE",
"347 773 CURVE",
"258 773 OFFCURVE",
"149 747 OFFCURVE",
"88 710 CURVE",
"88 655 LINE",
"148 691 OFFCURVE",
"258 718 OFFCURVE",
"347 718 CURVE",
"601 718 OFFCURVE",
"703 544 OFFCURVE",
"703 320 CURVE",
"703 178 OFFCURVE",
"685 45 OFFCURVE",
"586 45 CURVE SMOOTH",
"539 45 OFFCURVE",
"507 76 OFFCURVE",
"493 106 CURVE",
"465 63 LINE",
"484 30 OFFCURVE",
"523 -10 OFFCURVE",
"586 -10 CURVE SMOOTH",
"731 -10 OFFCURVE",
"763 152 OFFCURVE",
"763 319 CURVE"
);
},
{
closed = 1;
nodes = (
"50 102 OFFCURVE",
"110 -10 OFFCURVE",
"225 -10 CURVE SMOOTH",
"296 -10 OFFCURVE",
"349 42 OFFCURVE",
"349 123 CURVE SMOOTH",
"349 202 OFFCURVE",
"303 253 OFFCURVE",
"229 253 CURVE SMOOTH",
"167 253 OFFCURVE",
"114 213 OFFCURVE",
"114 134 CURVE",
"130 129 LINE",
"126 144 OFFCURVE",
"108 167 OFFCURVE",
"108 224 CURVE SMOOTH",
"108 320 OFFCURVE",
"156 427 OFFCURVE",
"288 427 CURVE",
"409 427 OFFCURVE",
"461 340 OFFCURVE",
"461 222 CURVE SMOOTH",
"461 132 OFFCURVE",
"425 50 OFFCURVE",
"398 0 CURVE",
"462 0 LINE",
"497 60 OFFCURVE",
"521 147 OFFCURVE",
"521 222 CURVE SMOOTH",
"521 356 OFFCURVE",
"456 482 OFFCURVE",
"289 482 CURVE",
"140 482 OFFCURVE",
"50 374 OFFCURVE",
"50 223 CURVE SMOOTH"
);
}
);
width = 843;
},
{
layerId = "7B4D842D-CA8D-4153-9CDE-FADFBE419175";
paths = (
{
closed = 1;
nodes = (
"199 78 OFFCURVE",
"175 95 OFFCURVE",
"175 131 CURVE SMOOTH",
"175 167 OFFCURVE",
"199 184 OFFCURVE",
"226 184 CURVE SMOOTH",
"254 184 OFFCURVE",
"277 167 OFFCURVE",
"277 131 CURVE SMOOTH",
"277 95 OFFCURVE",
"254 78 OFFCURVE",
"226 78 CURVE SMOOTH"
);
},
{
closed = 1;
nodes = (
"861 615 OFFCURVE",
"688 787 OFFCURVE",
"377 787 CURVE",
"255 787 OFFCURVE",
"151 753 OFFCURVE",
"68 705 CURVE",
"68 583 LINE",
"145 634 OFFCURVE",
"253 675 OFFCURVE",
"377 675 CURVE",
"601 675 OFFCURVE",
"734 546 OFFCURVE",
"734 311 CURVE",
"734 187 OFFCURVE",
"703 99 OFFCURVE",
"632 101 CURVE SMOOTH",
"601 102 OFFCURVE",
"572 115 OFFCURVE",
"546 142 CURVE",
"505 60 LINE",
"532 35 OFFCURVE",
"578 -9 OFFCURVE",
"650 -9 CURVE SMOOTH",
"805 -9 OFFCURVE",
"861 149 OFFCURVE",
"861 308 CURVE"
);
},
{
closed = 1;
nodes = (
"36 88 OFFCURVE",
"108 -10 OFFCURVE",
"236 -10 CURVE SMOOTH",
"328 -10 OFFCURVE",
"383 51 OFFCURVE",
"383 141 CURVE SMOOTH",
"383 231 OFFCURVE",
"328 280 OFFCURVE",
"249 280 CURVE SMOOTH",
"179 280 OFFCURVE",
"133 240 OFFCURVE",
"125 194 CURVE",
"155 175 LINE",
"153 185 OFFCURVE",
"152 206 OFFCURVE",
"152 216 CURVE SMOOTH",
"152 324 OFFCURVE",
"213 407 OFFCURVE",
"315 407 CURVE",
"418 407 OFFCURVE",
"468 334 OFFCURVE",
"468 234 CURVE SMOOTH",
"468 157 OFFCURVE",
"447 67 OFFCURVE",
"404 0 CURVE",
"517 0 LINE",
"552 52 OFFCURVE",
"589 121 OFFCURVE",
"589 234 CURVE",
"591 399 OFFCURVE",
"485 519 OFFCURVE",
"317 519 CURVE",
"127 519 OFFCURVE",
"35 372 OFFCURVE",
"35 217 CURVE"
);
}
);
width = 911;
}
);
unicode = 0D9B;
}
{
glyphname = snLA;
layers = (
{
layerId = "25BA55F5-DD3E-4682-A696-ADF7D9496427";
paths = (
{
closed = 1;
nodes = (
"559 378 LINE",
"328 378 LINE",
"328 323 LINE",
"559 324 LINE"
);
},
{
closed = 1;
nodes = (
"671 -134 LINE",
"612 -159 OFFCURVE",
"535 -175 OFFCURVE",
"463 -175 CURVE",
"254 -175 OFFCURVE",
"135 -31 OFFCURVE",
"135 173 CURVE",
"135 365 OFFCURVE",
"240 498 OFFCURVE",
"417 498 CURVE SMOOTH",
"562 498 OFFCURVE",
"636 433 OFFCURVE",
"636 320 CURVE SMOOTH",
"636 231 OFFCURVE",
"593 179 OFFCURVE",
"523 179 CURVE",
"470 179 OFFCURVE",
"433 204 OFFCURVE",
"433 249 CURVE",
"433 306 OFFCURVE",
"477 324 OFFCURVE",
"529 324 CURVE",
"529 353 LINE",
"422 353 OFFCURVE",
"373 321 OFFCURVE",
"373 242 CURVE",
"373 167 OFFCURVE",
"438 124 OFFCURVE",
"521 124 CURVE",
"640 124 OFFCURVE",
"700 215 OFFCURVE",
"700 321 CURVE SMOOTH",
"700 465 OFFCURVE",
"586 553 OFFCURVE",
"418 553 CURVE SMOOTH",
"174 553 OFFCURVE",
"75 365 OFFCURVE",
"75 172 CURVE",
"75 -35 OFFCURVE",
"197 -230 OFFCURVE",
"463 -230 CURVE",
"535 -230 OFFCURVE",
"612 -215 OFFCURVE",
"671 -189 CURVE"
);
}
);
width = 765;
},
{
layerId = "7B4D842D-CA8D-4153-9CDE-FADFBE419175";
paths = (
{
closed = 1;
nodes = (
"569 383 LINE",
"298 383 LINE",
"298 281 LINE",
"569 281 LINE"
);
},
{
closed = 1;
nodes = (
"743 -80 LINE",
"676 -109 OFFCURVE",
"589 -137 OFFCURVE",
"475 -137 CURVE",
"274 -137 OFFCURVE",
"153 -6 OFFCURVE",
"153 178 CURVE",
"153 366 OFFCURVE",
"268 475 OFFCURVE",
"433 475 CURVE",
"565 475 OFFCURVE",
"644 410 OFFCURVE",
"644 304 CURVE",
"644 234 OFFCURVE",
"604 189 OFFCURVE",
"539 189 CURVE",
"505 189 OFFCURVE",
"479 202 OFFCURVE",
"479 235 CURVE",
"479 275 OFFCURVE",
"513 281 OFFCURVE",
"541 281 CURVE",
"541 326 LINE",
"421 326 OFFCURVE",
"351 285 OFFCURVE",
"351 208 CURVE SMOOTH",
"351 121 OFFCURVE",
"436 75 OFFCURVE",
"534 75 CURVE",
"683 75 OFFCURVE",
"774 166 OFFCURVE",
"774 304 CURVE",
"774 472 OFFCURVE",
"637 587 OFFCURVE",
"434 587 CURVE",
"144 587 OFFCURVE",
"15 378 OFFCURVE",
"15 181 CURVE",
"15 -66 OFFCURVE",
"187 -249 OFFCURVE",
"475 -249 CURVE",
"587 -249 OFFCURVE",
"670 -228 OFFCURVE",
"743 -199 CURVE"
);
}
);
width = 822;
}
);
unicode = 0DBD;
}
{
color = 1;
glyphname = snLLA;
layers = (
{
layerId = "25BA55F5-DD3E-4682-A696-ADF7D9496427";
paths = (
{
closed = 1;
nodes = (
"707 -110 LINE",
"636 -131 OFFCURVE",
"538 -149 OFFCURVE",
"439 -149 CURVE",
"245 -149 OFFCURVE",
"115 -85 OFFCURVE",
"115 69 CURVE",
"115 256 OFFCURVE",
"270 298 OFFCURVE",
"467 298 CURVE SMOOTH",
"548 298 OFFCURVE",
"619 294 OFFCURVE",
"698 290 CURVE",
"698 348 LINE",
"698 468 OFFCURVE",
"644 553 OFFCURVE",
"547 553 CURVE",
"489 553 OFFCURVE",
"446 531 OFFCURVE",
"425 473 CURVE",
"411 525 OFFCURVE",
"372 553 OFFCURVE",
"313 553 CURVE SMOOTH",
"187 553 OFFCURVE",
"145 454 OFFCURVE",
"145 335 CURVE",
"145 128 OFFCURVE",
"291 47 OFFCURVE",
"442 47 CURVE",
"529 47 OFFCURVE",
"602 62 OFFCURVE",
"661 79 CURVE",
"661 133 LINE",
"603 117 OFFCURVE",
"531 102 OFFCURVE",
"444 102 CURVE",
"300 102 OFFCURVE",
"205 171 OFFCURVE",
"205 335 CURVE",
"205 429 OFFCURVE",
"234 498 OFFCURVE",
"311 498 CURVE SMOOTH",
"372 498 OFFCURVE",
"396 451 OFFCURVE",
"396 392 CURVE",
"456 392 LINE",
"456 447 OFFCURVE",
"476 498 OFFCURVE",
"544 498 CURVE",
"619 498 OFFCURVE",
"638 422 OFFCURVE",
"638 347 CURVE",
"586 351 OFFCURVE",
"516 353 OFFCURVE",
"468 353 CURVE SMOOTH",
"233 353 OFFCURVE",
"55 287 OFFCURVE",
"55 68 CURVE",
"55 -129 OFFCURVE",
"228 -209 OFFCURVE",
"439 -209 CURVE",
"545 -209 OFFCURVE",
"638 -191 OFFCURVE",
"707 -172 CURVE"
);
}
);
width = 767;
},
{
layerId = "7B4D842D-CA8D-4153-9CDE-FADFBE419175";
paths = (
{
closed = 1;
nodes = (
"802 -72 LINE",
"732 -100 OFFCURVE",
"611 -127 OFFCURVE",
"488 -127 CURVE",
"334 -127 OFFCURVE",
"175 -85 OFFCURVE",
"175 69 CURVE",
"175 216 OFFCURVE",
"328 255 OFFCURVE",
"525 255 CURVE SMOOTH",
"606 255 OFFCURVE",
"712 251 OFFCURVE",
"791 247 CURVE",
"791 341 LINE",
"791 461 OFFCURVE",
"735 576 OFFCURVE",
"608 576 CURVE",
"550 576 OFFCURVE",
"498 546 OFFCURVE",
"477 488 CURVE",
"456 539 OFFCURVE",
"418 576 OFFCURVE",
"345 576 CURVE SMOOTH",
"201 576 OFFCURVE",
"149 417 OFFCURVE",
"149 328 CURVE",
"149 111 OFFCURVE",
"314 20 OFFCURVE",
"505 20 CURVE",
"607 20 OFFCURVE",
"689 37 OFFCURVE",
"761 64 CURVE",
"761 174 LINE",
"691 149 OFFCURVE",
"610 132 OFFCURVE",
"507 132 CURVE",
"363 132 OFFCURVE",
"274 181 OFFCURVE",
"274 325 CURVE",
"274 389 OFFCURVE",
"284 464 OFFCURVE",
"351 464 CURVE SMOOTH",
"393 464 OFFCURVE",
"405 431 OFFCURVE",
"405 392 CURVE",
"546 392 LINE",
"546 427 OFFCURVE",
"565 464 OFFCURVE",
"603 464 CURVE",
"653 464 OFFCURVE",
"667 402 OFFCURVE",
"667 357 CURVE",
"615 361 OFFCURVE",
"565 363 OFFCURVE",
"517 363 CURVE SMOOTH",
"252 363 OFFCURVE",
"40 287 OFFCURVE",
"40 68 CURVE",
"40 -149 OFFCURVE",
"247 -239 OFFCURVE",
"488 -239 CURVE",
"620 -239 OFFCURVE",
"730 -216 OFFCURVE",
"802 -191 CURVE"
);
}
);
width = 847;
}
);
unicode = 0DC5;
}
{
color = 1;
glyphname = snNA;
layers = (
{
layerId = "25BA55F5-DD3E-4682-A696-ADF7D9496427";
paths = (
{
closed = 1;
nodes = (
"89 553 OFFCURVE",
"47 494 OFFCURVE",
"47 429 CURVE",
"107 429 LINE",
"108 466 OFFCURVE",
"126 498 OFFCURVE",
"182 498 CURVE",
"231 498 OFFCURVE",
"257 466 OFFCURVE",
"257 422 CURVE SMOOTH",
"257 361 OFFCURVE",
"232 310 OFFCURVE",
"186 240 CURVE",
"287 348 LINE",
"297 374 OFFCURVE",
"307 404 OFFCURVE",
"307 425 CURVE",
"307 493 OFFCURVE",
"263 553 OFFCURVE",
"177 553 CURVE SMOOTH"
);
},
{
closed = 1;
nodes = (
"133 67 LINE",
"207 176 LINE SMOOTH",
"254 246 OFFCURVE",
"301 319 OFFCURVE",
"417 319 CURVE",
"500 319 OFFCURVE",
"551 267 OFFCURVE",
"551 194 CURVE SMOOTH",
"551 104 OFFCURVE",
"494 45 OFFCURVE",
"377 45 CURVE SMOOTH",
"237 45 OFFCURVE",
"139 99 OFFCURVE",
"40 143 CURVE",
"40 83 LINE",
"119 37 OFFCURVE",
"246 -10 OFFCURVE",
"378 -10 CURVE SMOOTH",
"532 -10 OFFCURVE",
"610 71 OFFCURVE",
"610 193 CURVE SMOOTH",
"610 292 OFFCURVE",
"539 373 OFFCURVE",
"430 373 CURVE",
"332 373 OFFCURVE",
"291 343 OFFCURVE",
"223 261 CURVE",
"253 269 LINE",
"338 418 OFFCURVE",
"425 498 OFFCURVE",
"548 498 CURVE",
"709 498 OFFCURVE",
"753 393 OFFCURVE",
"753 250 CURVE SMOOTH",
"753 171 OFFCURVE",
"735 86 OFFCURVE",
"696 0 CURVE",
"759 0 LINE",
"798 89 OFFCURVE",
"813 180 OFFCURVE",
"813 250 CURVE SMOOTH",
"813 431 OFFCURVE",
"732 553 OFFCURVE",
"549 553 CURVE",
"427 553 OFFCURVE",
"329 489 OFFCURVE",
"278 383 CURVE",
"92 96 LINE"
);
}
);
width = 906;
},
{
layerId = "7B4D842D-CA8D-4153-9CDE-FADFBE419175";
paths = (
{
closed = 1;
nodes = (
"104 584 OFFCURVE",
"52 520 OFFCURVE",
"45 435 CURVE",
"170 435 LINE",
"172 466 OFFCURVE",
"192 483 OFFCURVE",
"216 483 CURVE SMOOTH",
"243 483 OFFCURVE",
"258 462 OFFCURVE",
"258 431 CURVE SMOOTH",
"258 381 OFFCURVE",
"238 348 OFFCURVE",
"200 299 CURVE",
"341 375 LINE",
"351 401 OFFCURVE",
"356 425 OFFCURVE",
"356 446 CURVE SMOOTH",
"356 542 OFFCURVE",
"290 584 OFFCURVE",
"209 584 CURVE SMOOTH"
);
},
{
closed = 1;
nodes = (
"199 106 LINE",
"254 172 LINE SMOOTH",
"304 232 OFFCURVE",
"353 300 OFFCURVE",
"439 300 CURVE",
"506 300 OFFCURVE",
"545 266 OFFCURVE",
"545 208 CURVE",
"545 136 OFFCURVE",
"501 102 OFFCURVE",
"411 102 CURVE",
"290 102 OFFCURVE",
"158 159 OFFCURVE",
"57 211 CURVE",
"57 97 LINE",
"162 31 OFFCURVE",
"288 -10 OFFCURVE",
"412 -10 CURVE",
"597 -10 OFFCURVE",
"688 79 OFFCURVE",
"688 205 CURVE SMOOTH",
"688 321 OFFCURVE",
"615 411 OFFCURVE",
"497 411 CURVE",
"397 411 OFFCURVE",
"346 363 OFFCURVE",
"274 279 CURVE",
"325 321 LINE",
"378 403 OFFCURVE",
"476 473 OFFCURVE",
"582 473 CURVE",
"732 473 OFFCURVE",
"794 373 OFFCURVE",
"794 236 CURVE SMOOTH",
"794 164 OFFCURVE",
"769 68 OFFCURVE",
"730 0 CURVE",
"874 0 LINE",
"909 63 OFFCURVE",
"928 165 OFFCURVE",
"928 234 CURVE SMOOTH",
"928 429 OFFCURVE",
"819 585 OFFCURVE",
"592 585 CURVE",
"460 585 OFFCURVE",
"359 517 OFFCURVE",
"304 431 CURVE",
"95 167 LINE"
);
}
);
width = 983;
}
);
unicode = 0DB1;
}
{
glyphname = snO;
layers = (
{
layerId = "25BA55F5-DD3E-4682-A696-ADF7D9496427";
paths = (
{
closed = 1;
nodes = (
"80 281 LINE",
"80 141 OFFCURVE",
"147 -10 OFFCURVE",
"294 -10 CURVE",
"375 -10 OFFCURVE",
"412 37 OFFCURVE",
"433 88 CURVE",
"451 33 OFFCURVE",
"497 -10 OFFCURVE",
"578 -10 CURVE SMOOTH",
"746 -10 OFFCURVE",
"790 183 OFFCURVE",
"790 352 CURVE",
"790 579 OFFCURVE",
"675 773 OFFCURVE",
"394 773 CURVE",
"305 773 OFFCURVE",
"205 750 OFFCURVE",
"135 720 CURVE",
"135 665 LINE",
"204 694 OFFCURVE",
"305 718 OFFCURVE",
"394 718 CURVE",
"618 718 OFFCURVE",
"730 577 OFFCURVE",
"730 353 CURVE",
"730 209 OFFCURVE",
"696 45 OFFCURVE",
"574 45 CURVE SMOOTH",
"510 45 OFFCURVE",
"469 95 OFFCURVE",
"461 147 CURVE",
"401 147 LINE",
"393 97 OFFCURVE",
"364 45 OFFCURVE",
"296 45 CURVE",
"192 45 OFFCURVE",
"140 152 OFFCURVE",
"140 279 CURVE",
"140 400 OFFCURVE",
"179 498 OFFCURVE",
"247 498 CURVE",
"267 498 OFFCURVE",
"276 487 OFFCURVE",
"276 470 CURVE SMOOTH",
"276 434 OFFCURVE",
"262 399 OFFCURVE",
"262 356 CURVE SMOOTH",
"262 246 OFFCURVE",
"342 180 OFFCURVE",
"451 180 CURVE SMOOTH",
"566 180 OFFCURVE",
"636 251 OFFCURVE",
"636 382 CURVE",
"636 480 OFFCURVE",
"585 554 OFFCURVE",
"500 554 CURVE SMOOTH",
"431 554 OFFCURVE",
"379 505 OFFCURVE",
"379 434 CURVE SMOOTH",
"379 357 OFFCURVE",
"429 314 OFFCURVE",
"495 314 CURVE SMOOTH",
"542 314 OFFCURVE",
"592 347 OFFCURVE",
"592 395 CURVE",
"580 425 LINE",
"583 405 OFFCURVE",
"585 394 OFFCURVE",
"585 385 CURVE SMOOTH",
"585 288 OFFCURVE",
"544 235 OFFCURVE",
"452 235 CURVE SMOOTH",
"372 235 OFFCURVE",
"322 278 OFFCURVE",
"322 357 CURVE SMOOTH",
"322 399 OFFCURVE",
"336 435 OFFCURVE",
"336 477 CURVE SMOOTH",
"336 520 OFFCURVE",
"310 553 OFFCURVE",
"253 553 CURVE",
"132 553 OFFCURVE",
"80 419 OFFCURVE",
"80 281 CURVE"
);
},
{
closed = 1;
nodes = (
"544 499 OFFCURVE",
"567 472 OFFCURVE",
"567 434 CURVE SMOOTH",
"567 396 OFFCURVE",
"544 369 OFFCURVE",
"501 369 CURVE SMOOTH",
"461 369 OFFCURVE",
"437 396 OFFCURVE",
"437 434 CURVE SMOOTH",
"437 472 OFFCURVE",
"461 499 OFFCURVE",
"501 499 CURVE SMOOTH"
);
}
);
width = 870;
},
{
layerId = "7B4D842D-CA8D-4153-9CDE-FADFBE419175";
paths = (
{
closed = 1;
nodes = (
"50 293 LINE",
"50 133 OFFCURVE",
"146 -10 OFFCURVE",
"321 -10 CURVE",
"386 -10 OFFCURVE",
"441 15 OFFCURVE",
"474 78 CURVE",
"508 24 OFFCURVE",
"558 -10 OFFCURVE",
"649 -10 CURVE SMOOTH",
"834 -10 OFFCURVE",
"909 189 OFFCURVE",
"909 358 CURVE",
"909 615 OFFCURVE",
"739 806 OFFCURVE",
"428 806 CURVE",
"306 806 OFFCURVE",
"182 773 OFFCURVE",
"109 744 CURVE",
"109 622 LINE",
"176 654 OFFCURVE",
"304 694 OFFCURVE",
"428 694 CURVE",
"652 694 OFFCURVE",
"774 555 OFFCURVE",
"774 361 CURVE",
"774 217 OFFCURVE",
"728 96 OFFCURVE",
"630 96 CURVE SMOOTH",
"579 96 OFFCURVE",
"550 131 OFFCURVE",
"544 174 CURVE",
"405 174 LINE",
"399 138 OFFCURVE",
"380 96 OFFCURVE",
"329 96 CURVE",
"235 96 OFFCURVE",
"180 177 OFFCURVE",
"180 291 CURVE",
"180 376 OFFCURVE",
"208 477 OFFCURVE",
"255 477 CURVE",
"269 477 OFFCURVE",
"276 471 OFFCURVE",
"276 456 CURVE SMOOTH",
"276 436 OFFCURVE",
"268 413 OFFCURVE",
"268 381 CURVE SMOOTH",
"268 272 OFFCURVE",
"352 199 OFFCURVE",
"491 199 CURVE SMOOTH",
"629 199 OFFCURVE",
"701 293 OFFCURVE",
"701 415 CURVE SMOOTH",
"701 502 OFFCURVE",
"647 585 OFFCURVE",
"538 585 CURVE SMOOTH",
"457 585 OFFCURVE",
"407 534 OFFCURVE",
"407 464 CURVE SMOOTH",
"407 388 OFFCURVE",
"457 352 OFFCURVE",
"515 352 CURVE",
"575 352 OFFCURVE",
"604 390 OFFCURVE",
"609 440 CURVE",
"598 454 LINE",
"607 439 OFFCURVE",
"608 428 OFFCURVE",
"608 408 CURVE SMOOTH",
"608 338 OFFCURVE",
"577 291 OFFCURVE",
"494 291 CURVE SMOOTH",
"416 291 OFFCURVE",
"370 328 OFFCURVE",
"370 391 CURVE SMOOTH",
"370 413 OFFCURVE",
"379 450 OFFCURVE",
"379 478 CURVE SMOOTH",
"379 542 OFFCURVE",
"334 584 OFFCURVE",
"268 584 CURVE",
"108 584 OFFCURVE",
"50 420 OFFCURVE",
"50 293 CURVE"
);
},
{
closed = 1;
nodes = (
"550 498 OFFCURVE",
"562 481 OFFCURVE",
"562 464 CURVE SMOOTH",
"562 444 OFFCURVE",
"550 429 OFFCURVE",
"530 429 CURVE SMOOTH",
"509 429 OFFCURVE",
"496 444 OFFCURVE",
"496 464 CURVE SMOOTH",
"496 481 OFFCURVE",
"509 498 OFFCURVE",
"530 498 CURVE"
);
}
);
width = 959;
}
);
unicode = 0D94;
}
{
glyphname = snRA;
layers = (
{
layerId = "25BA55F5-DD3E-4682-A696-ADF7D9496427";
paths = (
{
closed = 1;
nodes = (
"507 -10 OFFCURVE",
"623 95 OFFCURVE",
"623 271 CURVE SMOOTH",
"623 446 OFFCURVE",
"507 553 OFFCURVE",
"354 553 CURVE SMOOTH",
"200 553 OFFCURVE",
"80 446 OFFCURVE",
"80 271 CURVE SMOOTH",
"80 95 OFFCURVE",
"200 -10 OFFCURVE",
"354 -10 CURVE SMOOTH"
);
},
{
closed = 1;
nodes = (
"228 42 OFFCURVE",
"138 129 OFFCURVE",
"138 271 CURVE SMOOTH",
"138 412 OFFCURVE",
"228 501 OFFCURVE",
"354 501 CURVE SMOOTH",
"479 501 OFFCURVE",
"565 412 OFFCURVE",
"565 271 CURVE SMOOTH",
"565 129 OFFCURVE",
"479 42 OFFCURVE",
"354 42 CURVE SMOOTH"
);
},
{
closed = 1;
nodes = (
"399 558 OFFCURVE",
"519 660 OFFCURVE",
"566 755 CURVE",
"507 755 LINE",
"457 678 OFFCURVE",
"341 575 OFFCURVE",
"250 535 CURVE",
"307 520 LINE"
);
}
);
width = 688;
},
{
layerId = "7B4D842D-CA8D-4153-9CDE-FADFBE419175";
paths = (
{
closed = 1;
nodes = (
"559 -10 OFFCURVE",
"706 97 OFFCURVE",
"706 287 CURVE SMOOTH",
"706 477 OFFCURVE",
"559 585 OFFCURVE",
"378 585 CURVE SMOOTH",
"198 585 OFFCURVE",
"50 477 OFFCURVE",
"50 287 CURVE SMOOTH",
"50 97 OFFCURVE",
"198 -10 OFFCURVE",
"378 -10 CURVE SMOOTH"
);
},
{
closed = 1;
nodes = (
"273 102 OFFCURVE",
"190 167 OFFCURVE",
"190 287 CURVE SMOOTH",
"190 407 OFFCURVE",
"273 473 OFFCURVE",
"378 473 CURVE SMOOTH",
"485 473 OFFCURVE",
"566 407 OFFCURVE",
"566 287 CURVE SMOOTH",
"566 167 OFFCURVE",
"485 102 OFFCURVE",
"378 102 CURVE SMOOTH"
);
},
{
closed = 1;
nodes = (
"484 591 OFFCURVE",
"581 694 OFFCURVE",
"618 785 CURVE",
"464 785 LINE",
"414 702 OFFCURVE",
"341 604 OFFCURVE",
"222 554 CURVE",
"398 555 LINE"
);
}
);
width = 756;
}
);
unicode = 0DBB;
}
{
glyphname = snSSA;
layers = (
{
layerId = "25BA55F5-DD3E-4682-A696-ADF7D9496427";
paths = (
{
closed = 1;
nodes = (
"564 -10 OFFCURVE",
"701 59 OFFCURVE",
"701 209 CURVE",
"701 324 OFFCURVE",
"621 391 OFFCURVE",
"504 391 CURVE",
"473 390 LINE",
"473 449 OFFCURVE",
"495 498 OFFCURVE",
"559 498 CURVE",
"608 498 OFFCURVE",
"634 471 OFFCURVE",
"634 426 CURVE SMOOTH",
"634 389 OFFCURVE",
"624 362 OFFCURVE",
"602 329 CURVE",
"649 308 LINE",
"677 329 OFFCURVE",
"694 379 OFFCURVE",
"694 425 CURVE",
"694 499 OFFCURVE",
"647 553 OFFCURVE",
"555 553 CURVE SMOOTH",
"449 553 OFFCURVE",
"409 481 OFFCURVE",
"409 386 CURVE",
"409 362 OFFCURVE",
"410 349 OFFCURVE",
"412 336 CURVE",
"485 336 LINE",
"592 336 OFFCURVE",
"641 294 OFFCURVE",
"641 210 CURVE",
"641 91 OFFCURVE",
"531 45 OFFCURVE",
"386 45 CURVE",
"251 45 OFFCURVE",
"108 85 OFFCURVE",
"108 210 CURVE",
"108 294 OFFCURVE",
"166 336 OFFCURVE",
"264 336 CURVE",
"344 336 LINE",
"346 349 OFFCURVE",
"347 362 OFFCURVE",
"347 386 CURVE",
"347 481 OFFCURVE",
"307 553 OFFCURVE",
"201 553 CURVE SMOOTH",
"116 553 OFFCURVE",
"68 499 OFFCURVE",
"68 434 CURVE",
"128 434 LINE",
"131 475 OFFCURVE",
"159 498 OFFCURVE",
"202 498 CURVE",
"266 498 OFFCURVE",
"283 449 OFFCURVE",
"283 390 CURVE",
"245 391 LINE",
"128 391 OFFCURVE",
"48 324 OFFCURVE",
"48 209 CURVE",
"48 53 OFFCURVE",
"218 -10 OFFCURVE",
"386 -10 CURVE"
);
},
{
closed = 1;
nodes = (
"462 95 OFFCURVE",
"519 138 OFFCURVE",
"519 202 CURVE SMOOTH",
"519 244 OFFCURVE",
"491 290 OFFCURVE",
"432 290 CURVE",
"328 290 LINE",
"267 290 OFFCURVE",
"239 259 OFFCURVE",
"239 203 CURVE SMOOTH",
"239 141 OFFCURVE",
"288 95 OFFCURVE",
"379 95 CURVE SMOOTH"
);
},
{
closed = 1;
nodes = (
"335 150 OFFCURVE",
"299 169 OFFCURVE",
"299 200 CURVE SMOOTH",
"299 227 OFFCURVE",
"313 237 OFFCURVE",
"344 237 CURVE",
"417 237 LINE",
"446 237 OFFCURVE",
"459 224 OFFCURVE",
"459 200 CURVE SMOOTH",
"459 167 OFFCURVE",
"423 150 OFFCURVE",
"379 150 CURVE SMOOTH"
);
},
{
closed = 1;
nodes = (
"545 290 OFFCURVE",
"517 290 OFFCURVE",
"424 290 CURVE",
"499 242 LINE",
"558 242 OFFCURVE",
"624 264 OFFCURVE",
"641 294 CURVE",
"597 322 LINE"
);
}
);
width = 756;
},
{
layerId = "7B4D842D-CA8D-4153-9CDE-FADFBE419175";
paths = (
{
closed = 1;
nodes = (
"639 -10 OFFCURVE",
"790 76 OFFCURVE",
"790 236 CURVE",
"790 351 OFFCURVE",
"711 439 OFFCURVE",
"586 439 CURVE",
"559 439 LINE",
"559 468 OFFCURVE",
"578 492 OFFCURVE",
"619 492 CURVE SMOOTH",
"652 492 OFFCURVE",
"677 476 OFFCURVE",
"677 438 CURVE SMOOTH",
"677 416 OFFCURVE",
"671 399 OFFCURVE",
"665 385 CURVE",
"722 321 LINE",
"757 348 OFFCURVE",
"786 384 OFFCURVE",
"786 448 CURVE SMOOTH",
"786 526 OFFCURVE",
"733 586 OFFCURVE",
"620 586 CURVE SMOOTH",
"493 586 OFFCURVE",
"432 509 OFFCURVE",
"432 397 CURVE SMOOTH",
"432 380 OFFCURVE",
"433 373 OFFCURVE",
"435 363 CURVE",
"532 363 LINE",
"643 363 OFFCURVE",
"671 309 OFFCURVE",
"671 234 CURVE",
"671 134 OFFCURVE",
"570 85 OFFCURVE",
"423 85 CURVE",
"276 85 OFFCURVE",
"167 132 OFFCURVE",
"167 240 CURVE",
"167 330 OFFCURVE",
"239 363 OFFCURVE",
"326 363 CURVE",
"393 363 LINE",
"395 381 OFFCURVE",
"395 391 OFFCURVE",
"395 399 CURVE SMOOTH",
"395 501 OFFCURVE",
"350 586 OFFCURVE",
"223 586 CURVE SMOOTH",
"120 586 OFFCURVE",
"71 519 OFFCURVE",
"67 448 CURVE",
"177 448 LINE",
"177 472 OFFCURVE",
"194 492 OFFCURVE",
"225 492 CURVE SMOOTH",
"264 492 OFFCURVE",
"282 472 OFFCURVE",
"282 439 CURVE",
"263 439 LINE",
"138 439 OFFCURVE",
"48 359 OFFCURVE",
"48 239 CURVE",
"48 73 OFFCURVE",
"219 -10 OFFCURVE",
"424 -10 CURVE"
);
},
{
closed = 1;
nodes = (
"511 119 OFFCURVE",
"578 165 OFFCURVE",
"578 233 CURVE SMOOTH",
"578 295 OFFCURVE",
"542 326 OFFCURVE",
"479 326 CURVE",
"369 326 LINE",
"304 326 OFFCURVE",
"268 293 OFFCURVE",
"268 234 CURVE SMOOTH",
"268 168 OFFCURVE",
"326 119 OFFCURVE",
"423 119 CURVE SMOOTH"
);
},
{
closed = 1;
nodes = (
"390 192 OFFCURVE",
"364 205 OFFCURVE",
"364 228 CURVE SMOOTH",
"364 248 OFFCURVE",
"374 254 OFFCURVE",
"397 254 CURVE",
"451 254 LINE",
"473 254 OFFCURVE",
"482 246 OFFCURVE",
"482 228 CURVE SMOOTH",
"482 204 OFFCURVE",
"456 192 OFFCURVE",
"423 192 CURVE SMOOTH"
);
},
{
closed = 1;
nodes = (
"595 326 OFFCURVE",
"567 326 OFFCURVE",
"474 326 CURVE",
"565 256 LINE",
"621 256 OFFCURVE",
"678 272 OFFCURVE",
"693 299 CURVE",
"647 358 LINE"
);
}
);
width = 850;
}
);
unicode = 0DC2;
}
{
glyphname = snU;
layers = (
{
layerId = "25BA55F5-DD3E-4682-A696-ADF7D9496427";
paths = (
{
closed = 1;
nodes = (
"174 419 LINE",
"174 487 OFFCURVE",
"227 554 OFFCURVE",
"346 554 CURVE SMOOTH",
"484 554 OFFCURVE",
"549 467 OFFCURVE",
"549 372 CURVE",
"549 323 LINE",
"359 323 LINE SMOOTH",
"214 323 OFFCURVE",
"118 234 OFFCURVE",
"118 88 CURVE SMOOTH",
"118 -79 OFFCURVE",
"225 -158 OFFCURVE",
"356 -158 CURVE SMOOTH",
"489 -158 OFFCURVE",
"575 -80 OFFCURVE",
"575 62 CURVE",
"633 62 LINE",
"633 -126 OFFCURVE",
"517 -210 OFFCURVE",
"356 -210 CURVE SMOOTH",
"197 -210 OFFCURVE",
"60 -113 OFFCURVE",
"60 88 CURVE SMOOTH",
"60 268 OFFCURVE",
"186 375 OFFCURVE",
"359 375 CURVE SMOOTH",
"486 375 LINE",
"486 434 OFFCURVE",
"457 499 OFFCURVE",
"347 499 CURVE",
"267 499 OFFCURVE",
"237 459 OFFCURVE",
"234 419 CURVE"
);
}
);
width = 673;
},
{
layerId = "7B4D842D-CA8D-4153-9CDE-FADFBE419175";
paths = (
{
closed = 1;
nodes = (
"158 408 LINE",
"158 517 OFFCURVE",
"230 587 OFFCURVE",
"390 587 CURVE SMOOTH",
"571 587 OFFCURVE",
"642 483 OFFCURVE",
"642 328 CURVE",
"642 256 LINE",
"392 256 LINE",
"255 256 OFFCURVE",
"173 187 OFFCURVE",
"173 61 CURVE SMOOTH",
"173 -57 OFFCURVE",
"263 -138 OFFCURVE",
"387 -138 CURVE",
"501 -138 OFFCURVE",
"574 -78 OFFCURVE",
"574 12 CURVE",
"709 12 LINE",
"709 -138 OFFCURVE",
"574 -250 OFFCURVE",
"389 -250 CURVE",
"175 -250 OFFCURVE",
"40 -102 OFFCURVE",
"40 59 CURVE",
"41 233 OFFCURVE",
"170 367 OFFCURVE",
"378 367 CURVE",
"497 367 LINE",
"497 442 OFFCURVE",
"469 475 OFFCURVE",
"389 475 CURVE SMOOTH",
"317 475 OFFCURVE",
"301 443 OFFCURVE",
"301 408 CURVE"
);
}
);
width = 719;
}
);
unicode = 0D8B;
}
{
color = 1;
glyphname = snmAAE;
layers = (
{
layerId = "25BA55F5-DD3E-4682-A696-ADF7D9496427";
paths = (
{
closed = 1;
nodes = (
"232 -85 OFFCURVE",
"243 -83 OFFCURVE",
"260 -79 CURVE",
"260 -24 LINE",
"248 -26 OFFCURVE",
"233 -28 OFFCURVE",
"213 -28 CURVE SMOOTH",
"156 -28 OFFCURVE",
"115 -7 OFFCURVE",
"115 50 CURVE SMOOTH",
"115 131 OFFCURVE",
"184 197 OFFCURVE",
"253 254 CURVE",
"253 306 LINE",
"158 306 LINE",
"257 389 LINE",
"257 437 LINE",
"30 437 LINE",
"30 382 LINE",
"164 382 LINE",
"76 308 LINE",
"76 254 LINE",
"169 254 LINE",
"123 213 OFFCURVE",
"55 145 OFFCURVE",
"55 50 CURVE SMOOTH",
"55 -43 OFFCURVE",
"118 -85 OFFCURVE",
"203 -85 CURVE SMOOTH"
);
}
);
width = 305;
},
{
layerId = "7B4D842D-CA8D-4153-9CDE-FADFBE419175";
paths = (
{
closed = 1;
nodes = (
"262 -91 OFFCURVE",
"281 -88 OFFCURVE",
"300 -84 CURVE",
"300 26 LINE",
"288 24 OFFCURVE",
"273 22 OFFCURVE",
"253 22 CURVE SMOOTH",
"206 22 OFFCURVE",
"178 40 OFFCURVE",
"178 83 CURVE SMOOTH",
"178 134 OFFCURVE",
"218 173 OFFCURVE",
"293 206 CURVE",
"293 282 LINE",
"206 282 LINE",
"294 357 LINE",
"294 437 LINE",
"33 437 LINE",
"33 335 LINE",
"136 335 LINE",
"64 276 LINE",
"64 204 LINE",
"158 204 LINE",
"99 178 OFFCURVE",
"55 125 OFFCURVE",
"55 61 CURVE SMOOTH",
"55 -45 OFFCURVE",
"136 -91 OFFCURVE",
"233 -91 CURVE SMOOTH"
);
}
);
width = 340;
}
);
unicode = 0DD1;
subCategory = Spacing;
}
{
glyphname = snmU;
layers = (
{
layerId = "25BA55F5-DD3E-4682-A696-ADF7D9496427";
paths = (
{
closed = 1;
nodes = (
"-44 -270 LINE",
"-523 -270 LINE",
"-606 -270 OFFCURVE",
"-660 -223 OFFCURVE",
"-660 -147 CURVE SMOOTH",
"-660 -123 OFFCURVE",
"-658 -110 OFFCURVE",
"-654 -90 CURVE",
"-595 -90 LINE",
"-598 -104 OFFCURVE",
"-600 -124 OFFCURVE",
"-600 -138 CURVE SMOOTH",
"-600 -187 OFFCURVE",
"-571 -215 OFFCURVE",
"-520 -215 CURVE",
"-103 -215 LINE",
"-103 200 LINE",
"-44 200 LINE"
);
}
);
width = 0;
},
{
layerId = "7B4D842D-CA8D-4153-9CDE-FADFBE419175";
paths = (
{
closed = 1;
nodes = (
"-28 -320 LINE",
"-628 -320 LINE",
"-732 -320 OFFCURVE",
"-772 -256 OFFCURVE",
"-772 -175 CURVE SMOOTH",
"-772 -151 OFFCURVE",
"-768 -126 OFFCURVE",
"-762 -100 CURVE",
"-640 -100 LINE",
"-643 -114 OFFCURVE",
"-645 -139 OFFCURVE",
"-645 -153 CURVE SMOOTH",
"-645 -188 OFFCURVE",
"-636 -209 OFFCURVE",
"-595 -209 CURVE",
"-155 -208 LINE",
"-155 220 LINE",
"-28 220 LINE"
);
}
);
width = 0;
}
);
unicode = 0DD4;
subCategory = Spacing;
}
{
glyphname = snvL;
layers = (
{
layerId = "25BA55F5-DD3E-4682-A696-ADF7D9496427";
paths = (
{
closed = 1;
nodes = (
"916 324 OFFCURVE",
"836 391 OFFCURVE",
"719 391 CURVE",
"688 390 LINE",
"688 449 OFFCURVE",
"710 498 OFFCURVE",
"774 498 CURVE",
"823 498 OFFCURVE",
"849 470 OFFCURVE",
"849 425 CURVE",
"909 425 LINE",
"909 499 OFFCURVE",
"862 553 OFFCURVE",
"770 553 CURVE SMOOTH",
"664 553 OFFCURVE",
"624 481 OFFCURVE",
"624 386 CURVE",
"624 362 OFFCURVE",
"625 349 OFFCURVE",
"627 336 CURVE",
"700 336 LINE",
"798 336 OFFCURVE",
"856 294 OFFCURVE",
"856 210 CURVE",
"856 91 OFFCURVE",
"746 45 OFFCURVE",
"601 45 CURVE",
"466 45 OFFCURVE",
"330 91 OFFCURVE",
"330 210 CURVE",
"330 294 OFFCURVE",
"388 336 OFFCURVE",
"486 336 CURVE",
"559 336 LINE",
"561 349 OFFCURVE",
"562 362 OFFCURVE",
"562 386 CURVE",
"562 481 OFFCURVE",
"518 553 OFFCURVE",
"412 553 CURVE SMOOTH",
"320 553 OFFCURVE",
"277 499 OFFCURVE",
"277 434 CURVE",
"337 434 LINE",
"340 481 OFFCURVE",
"370 498 OFFCURVE",
"413 498 CURVE",
"477 498 OFFCURVE",
"498 449 OFFCURVE",
"498 390 CURVE",
"467 391 LINE",
"350 391 OFFCURVE",
"270 324 OFFCURVE",
"270 209 CURVE",
"270 59 OFFCURVE",
"433 -10 OFFCURVE",
"601 -10 CURVE",
"779 -10 OFFCURVE",
"916 59 OFFCURVE",
"916 209 CURVE"
);
},
{
closed = 1;
nodes = (
"207 0 LINE",
"163 81 OFFCURVE",
"130 182 OFFCURVE",
"130 281 CURVE SMOOTH",
"130 420 OFFCURVE",
"171 503 OFFCURVE",
"246 503 CURVE SMOOTH",
"274 503 OFFCURVE",
"301 488 OFFCURVE",
"316 470 CURVE",
"361 493 LINE",
"341 525 OFFCURVE",
"297 553 OFFCURVE",
"245 553 CURVE SMOOTH",
"130 553 OFFCURVE",
"70 443 OFFCURVE",
"70 284 CURVE",
"70 171 OFFCURVE",
"102 66 OFFCURVE",
"140 0 CURVE"
);
},
{
closed = 1;
nodes = (
"1089 66 OFFCURVE",
"1121 171 OFFCURVE",
"1121 284 CURVE",
"1121 443 OFFCURVE",
"1061 553 OFFCURVE",
"946 553 CURVE SMOOTH",
"894 553 OFFCURVE",
"850 525 OFFCURVE",
"830 493 CURVE",
"875 470 LINE",
"890 488 OFFCURVE",
"917 503 OFFCURVE",
"945 503 CURVE SMOOTH",
"1020 503 OFFCURVE",
"1061 420 OFFCURVE",
"1061 281 CURVE",
"1061 183 OFFCURVE",
"1028 85 OFFCURVE",
"984 0 CURVE",
"1051 0 LINE"
);
}
);
width = 1191;
},
{
layerId = "7B4D842D-CA8D-4153-9CDE-FADFBE419175";
paths = (
{
closed = 1;
nodes = (
"1020 346 OFFCURVE",
"936 422 OFFCURVE",
"817 422 CURVE",
"788 422 LINE",
"788 463 OFFCURVE",
"810 492 OFFCURVE",
"851 492 CURVE SMOOTH",
"882 492 OFFCURVE",
"903 473 OFFCURVE",
"903 437 CURVE",
"1013 437 LINE",
"1013 512 OFFCURVE",
"961 586 OFFCURVE",
"852 586 CURVE SMOOTH",
"725 586 OFFCURVE",
"674 499 OFFCURVE",
"674 387 CURVE SMOOTH",
"674 370 OFFCURVE",
"675 356 OFFCURVE",
"678 338 CURVE",
"754 338 LINE",
"835 338 OFFCURVE",
"891 307 OFFCURVE",
"891 232 CURVE",
"891 131 OFFCURVE",
"782 102 OFFCURVE",
"655 102 CURVE",
"528 102 OFFCURVE",
"413 140 OFFCURVE",
"413 232 CURVE",
"413 307 OFFCURVE",
"469 338 OFFCURVE",
"550 338 CURVE",
"636 338 LINE",
"639 356 OFFCURVE",
"640 370 OFFCURVE",
"640 387 CURVE SMOOTH",
"640 499 OFFCURVE",
"581 586 OFFCURVE",
"454 586 CURVE SMOOTH",
"351 586 OFFCURVE",
"291 519 OFFCURVE",
"291 438 CURVE",
"401 438 LINE",
"401 466 OFFCURVE",
"419 492 OFFCURVE",
"459 492 CURVE SMOOTH",
"503 492 OFFCURVE",
"526 463 OFFCURVE",
"526 422 CURVE",
"487 422 LINE",
"368 422 OFFCURVE",
"284 346 OFFCURVE",
"284 231 CURVE",
"284 71 OFFCURVE",
"444 -10 OFFCURVE",
"656 -10 CURVE",
"861 -10 OFFCURVE",
"1020 67 OFFCURVE",
"1020 231 CURVE"
);
},
{
closed = 1;
nodes = (
"263 0 LINE",
"219 89 OFFCURVE",
"187 192 OFFCURVE",
"187 311 CURVE",
"187 405 OFFCURVE",
"206 481 OFFCURVE",
"267 481 CURVE SMOOTH",
"293 481 OFFCURVE",
"313 470 OFFCURVE",
"328 452 CURVE",
"383 531 LINE",
"357 563 OFFCURVE",
"323 586 OFFCURVE",
"265 586 CURVE SMOOTH",
"115 586 OFFCURVE",
"60 473 OFFCURVE",
"60 314 CURVE",
"60 200 OFFCURVE",
"95 76 OFFCURVE",
"130 0 CURVE"
);
},
{
closed = 1;
nodes = (
"1202 76 OFFCURVE",
"1234 209 OFFCURVE",
"1234 314 CURVE",
"1234 473 OFFCURVE",
"1179 586 OFFCURVE",
"1039 586 CURVE SMOOTH",
"981 586 OFFCURVE",
"939 553 OFFCURVE",
"921 531 CURVE",
"956 452 LINE",
"971 470 OFFCURVE",
"1001 481 OFFCURVE",
"1027 481 CURVE SMOOTH",
"1088 481 OFFCURVE",
"1107 405 OFFCURVE",
"1107 311 CURVE",
"1107 208 OFFCURVE",
"1071 91 OFFCURVE",
"1027 0 CURVE",
"1164 0 LINE"
);
}
);
width = 1294;
}
);
unicode = 0D8F;
}
{
glyphname = sterling;
layers = (
{
layerId = "7B4D842D-CA8D-4153-9CDE-FADFBE419175";
paths = (
{
closed = 1;
nodes = (
"103 151 OFFCURVE",
"118 199 OFFCURVE",
"118 251 CURVE SMOOTH",
"118 307 OFFCURVE",
"101 368 OFFCURVE",
"101 420 CURVE SMOOTH",
"101 567 OFFCURVE",
"176 660 OFFCURVE",
"335 660 CURVE SMOOTH",
"394 660 OFFCURVE",
"441 647 OFFCURVE",
"472 628 CURVE",
"472 490 LINE",
"444 510 OFFCURVE",
"405 523 OFFCURVE",
"368 523 CURVE SMOOTH",
"298 523 OFFCURVE",
"263 490 OFFCURVE",
"263 414 CURVE SMOOTH",
"263 361 OFFCURVE",
"276 301 OFFCURVE",
"276 250 CURVE SMOOTH",
"276 200 OFFCURVE",
"264 154 OFFCURVE",
"215 123 CURVE",
"507 123 LINE",
"507 0 LINE",
"45 0 LINE",
"45 121 LINE"
);
},
{
closed = 1;
nodes = (
"431 373 LINE",
"431 267 LINE",
"44 267 LINE",
"44 373 LINE"
);
}
);
width = 540;
},
{
layerId = "25BA55F5-DD3E-4682-A696-ADF7D9496427";
paths = (
{
closed = 1;
nodes = (
"148 90 OFFCURVE",
"171 136 OFFCURVE",
"171 249 CURVE",
"171 312 OFFCURVE",
"154 398 OFFCURVE",
"154 457 CURVE",
"154 589 OFFCURVE",
"229 659 OFFCURVE",
"350 659 CURVE SMOOTH",
"384 659 OFFCURVE",
"421 650 OFFCURVE",
"451 635 CURVE",
"451 573 LINE",
"415 593 OFFCURVE",
"389 600 OFFCURVE",
"351 600 CURVE SMOOTH",
"264 600 OFFCURVE",
"214 558 OFFCURVE",
"214 463 CURVE",
"214 396 OFFCURVE",
"231 315 OFFCURVE",
"231 250 CURVE",
"231 121 OFFCURVE",
"188 80 OFFCURVE",
"147 55 CURVE",
"477 55 LINE",
"477 0 LINE",
"65 0 LINE",
"65 52 LINE"
);
},
{
closed = 1;
nodes = (
"407 350 LINE",
"407 299 LINE",
"72 299 LINE",
"72 350 LINE"
);
}
);
width = 517;
}
);
unicode = 00A3;
}
{
glyphname = threequarters;
layers = (
{
layerId = "7B4D842D-CA8D-4153-9CDE-FADFBE419175";
paths = (
{
closed = 1;
nodes = (
"874 171 LINE",
"874 86 LINE",
"526 86 LINE",
"526 171 LINE"
);
},
{
closed = 1;
nodes = (
"758 430 LINE",
"631 171 LINE",
"526 171 LINE",
"659 430 LINE"
);
},
{
closed = 1;
nodes = (
"822 430 LINE",
"822 0 LINE",
"720 0 LINE",
"720 430 LINE"
);
},
{
closed = 1;
nodes = (
"285 0 LINE",
"713 711 LINE",
"605 711 LINE",
"176 0 LINE"
);
},
{
closed = 1;
nodes = (
"156 539 OFFCURVE",
"188 551 OFFCURVE",
"188 580 CURVE SMOOTH",
"188 608 OFFCURVE",
"167 621 OFFCURVE",
"136 621 CURVE SMOOTH",
"106 621 OFFCURVE",
"68 608 OFFCURVE",
"39 586 CURVE",
"39 687 LINE",
"70 705 OFFCURVE",
"108 714 OFFCURVE",
"146 714 CURVE SMOOTH",
"242 714 OFFCURVE",
"299 663 OFFCURVE",
"299 593 CURVE SMOOTH",
"299 540 OFFCURVE",
"268 505 OFFCURVE",
"218 495 CURVE",
"265 490 OFFCURVE",
"306 457 OFFCURVE",
"306 395 CURVE SMOOTH",
"306 323 OFFCURVE",
"248 273 OFFCURVE",
"153 273 CURVE SMOOTH",
"113 273 OFFCURVE",
"56 282 OFFCURVE",
"23 300 CURVE",
"23 394 LINE",
"57 376 OFFCURVE",
"94 364 OFFCURVE",
"136 364 CURVE SMOOTH",
"175 364 OFFCURVE",
"197 384 OFFCURVE",
"197 409 CURVE SMOOTH",
"197 431 OFFCURVE",
"181 450 OFFCURVE",
"112 450 CURVE SMOOTH",
"97 450 LINE",
"97 539 LINE",
"111 539 LINE SMOOTH"
);
}
);
width = 898;
},
{
layerId = "25BA55F5-DD3E-4682-A696-ADF7D9496427";
paths = (
{
closed = 1;
nodes = (
"835 144 LINE",
"835 102 LINE",
"522 102 LINE",
"522 144 LINE"
);
},
{
closed = 1;
nodes = (
"746 429 LINE",
"575 144 LINE",
"522 144 LINE",
"695 429 LINE"
);
},
{
closed = 1;
nodes = (
"770 429 LINE",
"770 0 LINE",
"720 0 LINE",
"720 429 LINE"
);
},
{
closed = 1;
nodes = (
"268 0 LINE",
"725 712 LINE",
"663 712 LINE",
"207 0 LINE"
);
},
{
closed = 1;
nodes = (
"224 522 OFFCURVE",
"265 549 OFFCURVE",
"265 598 CURVE SMOOTH",
"265 646 OFFCURVE",
"234 667 OFFCURVE",
"187 667 CURVE SMOOTH",
"159 667 OFFCURVE",
"124 654 OFFCURVE",
"96 636 CURVE",
"96 689 LINE",
"115 701 OFFCURVE",
"152 715 OFFCURVE",
"186 715 CURVE SMOOTH",
"278 715 OFFCURVE",
"319 661 OFFCURVE",
"319 601 CURVE SMOOTH",
"319 547 OFFCURVE",
"288 513 OFFCURVE",
"241 501 CURVE",
"289 497 OFFCURVE",
"333 454 OFFCURVE",
"333 397 CURVE SMOOTH",
"333 329 OFFCURVE",
"286 278 OFFCURVE",
"195 278 CURVE SMOOTH",
"161 278 OFFCURVE",
"116 287 OFFCURVE",
"85 302 CURVE",
"85 353 LINE",
"122 333 OFFCURVE",
"159 326 OFFCURVE",
"195 326 CURVE SMOOTH",
"247 326 OFFCURVE",
"279 353 OFFCURVE",
"279 398 CURVE SMOOTH",
"279 447 OFFCURVE",
"240 476 OFFCURVE",
"178 476 CURVE SMOOTH",
"151 476 LINE",
"151 522 LINE",
"178 522 LINE SMOOTH"
);
}
);
width = 858;
}
);
unicode = 00BE;
}
{
glyphname = tmCredit;
layers = (
{
background = {
paths = (
{
closed = 1;
nodes = (
"1561 0 LINE",
"1561 55 LINE",
"1256 55 LINE",
"1205 49 LINE",
"1205 0 LINE"
);
},
{
closed = 1;
nodes = (
"592 24 LINE",
"592 185 OFFCURVE",
"734 268 OFFCURVE",
"878 268 CURVE SMOOTH",
"995 268 OFFCURVE",
"1047 228 OFFCURVE",
"1047 156 CURVE SMOOTH",
"1047 96 OFFCURVE",
"1009 44 OFFCURVE",
"942 44 CURVE SMOOTH",
"862 44 OFFCURVE",
"826 106 OFFCURVE",
"826 201 CURVE SMOOTH",
"826 344 OFFCURVE",
"909 428 OFFCURVE",
"1041 428 CURVE",
"1168 428 OFFCURVE",
"1266 362 OFFCURVE",
"1266 234 CURVE SMOOTH",
"1266 159 OFFCURVE",
"1238 96 OFFCURVE",
"1205 49 CURVE",
"1258 35 LINE",
"1294 72 OFFCURVE",
"1328 145 OFFCURVE",
"1328 234 CURVE SMOOTH",
"1328 378 OFFCURVE",
"1215 483 OFFCURVE",
"1042 483 CURVE",
"885 483 OFFCURVE",
"764 378 OFFCURVE",
"764 201 CURVE SMOOTH",
"764 68 OFFCURVE",
"832 -10 OFFCURVE",
"943 -10 CURVE SMOOTH",
"1045 -10 OFFCURVE",
"1107 70 OFFCURVE",
"1107 156 CURVE SMOOTH",
"1107 263 OFFCURVE",
"1016 322 OFFCURVE",
"878 322 CURVE SMOOTH",
"726 322 OFFCURVE",
"570 251 OFFCURVE",
"570 81 CURVE"
);
}
);
};
components = (
{
name = tmE;
}
);
layerId = "25BA55F5-DD3E-4682-A696-ADF7D9496427";
name = Light;
paths = (
{
closed = 1;
nodes = (
"1531 0 LINE",
"1531 55 LINE",
"1256 55 LINE",
"1205 49 LINE",
"1205 0 LINE"
);
},
{
closed = 1;
nodes = (
"1266 159 OFFCURVE",
"1238 96 OFFCURVE",
"1205 49 CURVE",
"1258 35 LINE",
"1294 72 OFFCURVE",
"1328 145 OFFCURVE",
"1328 234 CURVE SMOOTH",
"1328 368 OFFCURVE",
"1220 483 OFFCURVE",
"1046 483 CURVE",
"889 483 OFFCURVE",
"764 368 OFFCURVE",
"764 201 CURVE SMOOTH",
"764 68 OFFCURVE",
"830 -10 OFFCURVE",
"941 -10 CURVE SMOOTH",
"1043 -10 OFFCURVE",
"1107 70 OFFCURVE",
"1107 156 CURVE SMOOTH",
"1107 263 OFFCURVE",
"1012 322 OFFCURVE",
"892 322 CURVE SMOOTH",
"750 322 OFFCURVE",
"602 212 OFFCURVE",
"569 97 CURVE",
"592 0 LINE",
"604 130 OFFCURVE",
"748 268 OFFCURVE",
"892 268 CURVE SMOOTH",
"991 268 OFFCURVE",
"1047 228 OFFCURVE",
"1047 156 CURVE SMOOTH",
"1047 96 OFFCURVE",
"1008 44 OFFCURVE",
"941 44 CURVE SMOOTH",
"861 44 OFFCURVE",
"826 106 OFFCURVE",
"826 201 CURVE SMOOTH",
"826 334 OFFCURVE",
"913 428 OFFCURVE",
"1045 428 CURVE",
"1173 428 OFFCURVE",
"1266 352 OFFCURVE",
"1266 234 CURVE SMOOTH"
);
}
);
width = 1561;
},
{
background = {
paths = (
{
closed = 1;
nodes = (
"1645 0 LINE",
"1645 112 LINE",
"1323 112 LINE",
"1249 92 LINE",
"1249 0 LINE"
);
},
{
closed = 1;
nodes = (
"1299 176 OFFCURVE",
"1277 129 OFFCURVE",
"1248 92 CURVE",
"1351 49 LINE",
"1398 92 OFFCURVE",
"1431 161 OFFCURVE",
"1431 236 CURVE",
"1433 398 OFFCURVE",
"1310 516 OFFCURVE",
"1106 516 CURVE",
"902 516 OFFCURVE",
"781 396 OFFCURVE",
"781 231 CURVE",
"782 88 OFFCURVE",
"866 -10 OFFCURVE",
"1004 -10 CURVE",
"1124 -10 OFFCURVE",
"1194 66 OFFCURVE",
"1194 172 CURVE SMOOTH",
"1194 287 OFFCURVE",
"1098 350 OFFCURVE",
"984 350 CURVE",
"772 350 OFFCURVE",
"650 259 OFFCURVE",
"634 130 CURVE",
"678 18 LINE",
"678 154 OFFCURVE",
"803 238 OFFCURVE",
"969 238 CURVE",
"1032 237 OFFCURVE",
"1065 214 OFFCURVE",
"1065 171 CURVE SMOOTH",
"1065 131 OFFCURVE",
"1044 104 OFFCURVE",
"1004 104 CURVE SMOOTH",
"942 104 OFFCURVE",
"914 157 OFFCURVE",
"914 229 CURVE SMOOTH",
"914 351 OFFCURVE",
"990 404 OFFCURVE",
"1104 404 CURVE",
"1211 404 OFFCURVE",
"1299 348 OFFCURVE",
"1299 236 CURVE"
);
}
);
};
components = (
{
alignment = -1;
name = tmE;
}
);
layerId = "7B4D842D-CA8D-4153-9CDE-FADFBE419175";
name = Bold;
paths = (
{
closed = 1;
nodes = (
"1615 0 LINE",
"1615 112 LINE",
"1323 112 LINE",
"1249 92 LINE",
"1249 0 LINE"
);
},
{
closed = 1;
nodes = (
"1295 176 OFFCURVE",
"1277 129 OFFCURVE",
"1248 92 CURVE",
"1351 49 LINE",
"1398 92 OFFCURVE",
"1427 161 OFFCURVE",
"1427 236 CURVE",
"1429 387 OFFCURVE",
"1313 518 OFFCURVE",
"1109 518 CURVE",
"905 518 OFFCURVE",
"786 367 OFFCURVE",
"786 215 CURVE",
"787 89 OFFCURVE",
"871 -11 OFFCURVE",
"999 -11 CURVE",
"1119 -11 OFFCURVE",
"1194 66 OFFCURVE",
"1194 172 CURVE SMOOTH",
"1194 287 OFFCURVE",
"1105 350 OFFCURVE",
"991 350 CURVE",
"792 350 OFFCURVE",
"639 198 OFFCURVE",
"623 93 CURVE",
"678 0 LINE",
"721 118 OFFCURVE",
"837 238 OFFCURVE",
"976 238 CURVE",
"1029 237 OFFCURVE",
"1065 214 OFFCURVE",
"1065 171 CURVE SMOOTH",
"1065 131 OFFCURVE",
"1039 103 OFFCURVE",
"999 103 CURVE SMOOTH",
"946 103 OFFCURVE",
"919 154 OFFCURVE",
"919 219 CURVE SMOOTH",
"919 328 OFFCURVE",
"993 406 OFFCURVE",
"1107 406 CURVE",
"1214 406 OFFCURVE",
"1295 337 OFFCURVE",
"1295 236 CURVE"
);
}
);
width = 1625;
}
);
unicode = 0BF7;
}
{
glyphname = tmEight;
layers = (
{
layerId = "25BA55F5-DD3E-4682-A696-ADF7D9496427";
name = Light;
paths = (
{
closed = 1;
nodes = (
"30 217 LINE",
"83 111 OFFCURVE",
"206 19 OFFCURVE",
"373 19 CURVE",
"592 19 OFFCURVE",
"676 150 OFFCURVE",
"676 315 CURVE SMOOTH",
"676 432 OFFCURVE",
"611 553 OFFCURVE",
"465 553 CURVE SMOOTH",
"354 553 OFFCURVE",
"289 469 OFFCURVE",
"289 381 CURVE SMOOTH",
"289 319 OFFCURVE",
"315 261 OFFCURVE",
"391 251 CURVE",
"391 278 LINE",
"369 298 OFFCURVE",
"351 330 OFFCURVE",
"351 380 CURVE SMOOTH",
"351 447 OFFCURVE",
"392 498 OFFCURVE",
"465 498 CURVE SMOOTH",
"568 498 OFFCURVE",
"614 415 OFFCURVE",
"614 315 CURVE",
"614 175 OFFCURVE",
"550 74 OFFCURVE",
"373 74 CURVE SMOOTH",
"246 74 OFFCURVE",
"143 147 OFFCURVE",
"92 233 CURVE",
"843 234 LINE",
"843 287 LINE",
"30 287 LINE"
);
},
{
closed = 1;
nodes = (
"891 0 LINE",
"891 543 LINE",
"829 543 LINE",
"829 0 LINE"
);
}
);
width = 986;
},
{
layerId = "7B4D842D-CA8D-4153-9CDE-FADFBE419175";
name = Bold;
paths = (
{
closed = 1;
nodes = (
"21 185 LINE",
"89 102 OFFCURVE",
"207 19 OFFCURVE",
"373 19 CURVE SMOOTH",
"576 19 OFFCURVE",
"725 117 OFFCURVE",
"725 326 CURVE SMOOTH",
"725 450 OFFCURVE",
"652 586 OFFCURVE",
"478 586 CURVE SMOOTH",
"354 586 OFFCURVE",
"281 508 OFFCURVE",
"281 396 CURVE SMOOTH",
"281 307 OFFCURVE",
"350 256 OFFCURVE",
"455 256 CURVE",
"456 296 LINE",
"429 322 OFFCURVE",
"417 356 OFFCURVE",
"417 392 CURVE SMOOTH",
"417 437 OFFCURVE",
"443 472 OFFCURVE",
"492 472 CURVE",
"562 472 OFFCURVE",
"592 402 OFFCURVE",
"592 326 CURVE SMOOTH",
"592 200 OFFCURVE",
"534 126 OFFCURVE",
"376 126 CURVE SMOOTH",
"273 126 OFFCURVE",
"195 175 OFFCURVE",
"148 226 CURVE",
"849 227 LINE",
"849 318 LINE",
"20 318 LINE"
);
},
{
closed = 1;
nodes = (
"945 0 LINE",
"945 576 LINE",
"805 576 LINE",
"805 0 LINE"
);
}
);
width = 1020;
}
);
leftMetricsKey = tmA;
rightMetricsKey = tmA;
unicode = 0BEE;
}
{
glyphname = tmMA;
layers = (
{
anchors = (
{
name = abvm;
position = "{456, 543}";
}
);
background = {
paths = (
{
closed = 1;
nodes = (
"485 33 LINE",
"484 365 LINE",
"484 444 OFFCURVE",
"515 498 OFFCURVE",
"596 498 CURVE",
"712 498 OFFCURVE",
"754 396 OFFCURVE",
"754 294 CURVE",
"754 142 OFFCURVE",
"676 54 OFFCURVE",
"532 54 CURVE",
"157 54 LINE",
"157 543 LINE",
"95 543 LINE",
"95 0 LINE",
"532 0 LINE",
"715 0 OFFCURVE",
"816 123 OFFCURVE",
"816 294 CURVE",
"816 433 OFFCURVE",
"738 553 OFFCURVE",
"595 553 CURVE",
"463 553 OFFCURVE",
"423 450 OFFCURVE",
"423 365 CURVE",
"423 33 LINE"
);
}
);
};
layerId = "25BA55F5-DD3E-4682-A696-ADF7D9496427";
name = Light;
paths = (
{
closed = 1;
nodes = (
"485 33 LINE",
"484 383 LINE",
"484 454 OFFCURVE",
"515 498 OFFCURVE",
"585 498 CURVE",
"705 498 OFFCURVE",
"754 376 OFFCURVE",
"754 264 CURVE",
"754 122 OFFCURVE",
"686 54 OFFCURVE",
"542 54 CURVE",
"157 54 LINE",
"157 543 LINE",
"95 543 LINE",
"95 0 LINE",
"552 0 LINE",
"732 0 OFFCURVE",
"816 105 OFFCURVE",
"816 264 CURVE",
"816 413 OFFCURVE",
"731 553 OFFCURVE",
"584 553 CURVE",
"463 553 OFFCURVE",
"423 460 OFFCURVE",
"423 383 CURVE",
"423 33 LINE"
);
}
);
width = 886;
},
{
anchors = (
{
name = abvm;
position = "{476, 576}";
}
);
background = {
paths = (
{
closed = 1;
nodes = (
"537 85 LINE",
"537 388 LINE",
"537 442 OFFCURVE",
"563 473 OFFCURVE",
"610 473 CURVE SMOOTH",
"699 473 OFFCURVE",
"735 385 OFFCURVE",
"735 295 CURVE SMOOTH",
"735 175 OFFCURVE",
"677 111 OFFCURVE",
"560 111 CURVE SMOOTH",
"217 111 LINE",
"217 575 LINE",
"75 575 LINE",
"75 0 LINE",
"572 -1 LINE",
"759 -1 OFFCURVE",
"877 109 OFFCURVE",
"877 295 CURVE SMOOTH",
"877 446 OFFCURVE",
"781 585 OFFCURVE",
"608 585 CURVE SMOOTH",
"473 585 OFFCURVE",
"395 509 OFFCURVE",
"395 391 CURVE",
"395 85 LINE"
);
}
);
};
layerId = "7B4D842D-CA8D-4153-9CDE-FADFBE419175";
name = Bold;
paths = (
{
closed = 1;
nodes = (
"537 85 LINE",
"537 388 LINE",
"537 442 OFFCURVE",
"559 473 OFFCURVE",
"606 473 CURVE SMOOTH",
"699 473 OFFCURVE",
"735 375 OFFCURVE",
"735 285 CURVE SMOOTH",
"735 165 OFFCURVE",
"685 111 OFFCURVE",
"568 111 CURVE SMOOTH",
"217 111 LINE",
"217 575 LINE",
"75 575 LINE",
"75 0 LINE",
"580 -1 LINE",
"767 -1 OFFCURVE",
"877 99 OFFCURVE",
"877 285 CURVE SMOOTH",
"877 436 OFFCURVE",
"781 585 OFFCURVE",
"604 585 CURVE SMOOTH",
"469 585 OFFCURVE",
"395 509 OFFCURVE",
"395 391 CURVE",
"395 85 LINE"
);
}
);
width = 927;
},
{
associatedMasterId = "7B4D842D-CA8D-4153-9CDE-FADFBE419175";
background = {
paths = (
{
closed = 1;
nodes = (
"542 85 LINE",
"542 381 LINE",
"542 444 OFFCURVE",
"569 473 OFFCURVE",
"614 473 CURVE SMOOTH",
"694 473 OFFCURVE",
"733 394 OFFCURVE",
"733 309 CURVE",
"733 179 OFFCURVE",
"682 111 OFFCURVE",
"565 111 CURVE SMOOTH",
"222 111 LINE",
"222 575 LINE",
"80 575 LINE",
"80 0 LINE",
"568 -1 LINE",
"755 -1 OFFCURVE",
"875 113 OFFCURVE",
"875 309 CURVE",
"875 462 OFFCURVE",
"773 585 OFFCURVE",
"608 585 CURVE SMOOTH",
"473 585 OFFCURVE",
"400 503 OFFCURVE",
"400 384 CURVE",
"400 85 LINE"
);
}
);
};
layerId = "81ED86CB-DB95-4FDA-AF46-636B63A77242";
name = "Bold Apr 13 15, 13:05";
paths = (
{
closed = 1;
nodes = (
"542 85 LINE",
"542 381 LINE",
"542 444 OFFCURVE",
"569 473 OFFCURVE",
"614 473 CURVE SMOOTH",
"694 473 OFFCURVE",
"733 394 OFFCURVE",
"733 309 CURVE",
"733 179 OFFCURVE",
"682 111 OFFCURVE",
"565 111 CURVE SMOOTH",
"222 111 LINE",
"222 575 LINE",
"80 575 LINE",
"80 0 LINE",
"568 -1 LINE",
"755 -1 OFFCURVE",
"875 113 OFFCURVE",
"875 309 CURVE",
"875 462 OFFCURVE",
"773 585 OFFCURVE",
"608 585 CURVE SMOOTH",
"473 585 OFFCURVE",
"400 503 OFFCURVE",
"400 384 CURVE",
"400 85 LINE"
);
}
);
width = 910;
},
{
associatedMasterId = "25BA55F5-DD3E-4682-A696-ADF7D9496427";
background = {
paths = (
{
closed = 1;
nodes = (
"481 33 LINE",
"480 365 LINE",
"480 444 OFFCURVE",
"511 498 OFFCURVE",
"592 498 CURVE",
"708 498 OFFCURVE",
"750 396 OFFCURVE",
"750 294 CURVE",
"750 142 OFFCURVE",
"672 54 OFFCURVE",
"528 54 CURVE",
"153 54 LINE",
"153 543 LINE",
"91 543 LINE",
"91 0 LINE",
"528 0 LINE",
"711 0 OFFCURVE",
"812 123 OFFCURVE",
"812 294 CURVE",
"812 433 OFFCURVE",
"734 553 OFFCURVE",
"591 553 CURVE",
"459 553 OFFCURVE",
"419 450 OFFCURVE",
"419 365 CURVE",
"419 33 LINE"
);
}
);
};
layerId = "286449C7-0CD9-4C0B-A880-E6899F87CC5F";
name = "Light Apr 13 15, 13:31";
paths = (
{
closed = 1;
nodes = (
"481 33 LINE",
"480 365 LINE",
"480 444 OFFCURVE",
"511 498 OFFCURVE",
"592 498 CURVE",
"708 498 OFFCURVE",
"750 396 OFFCURVE",
"750 294 CURVE",
"750 142 OFFCURVE",
"672 54 OFFCURVE",
"528 54 CURVE",
"153 54 LINE",
"153 543 LINE",
"91 543 LINE",
"91 0 LINE",
"528 0 LINE",
"711 0 OFFCURVE",
"812 123 OFFCURVE",
"812 294 CURVE",
"812 433 OFFCURVE",
"734 553 OFFCURVE",
"591 553 CURVE",
"459 553 OFFCURVE",
"419 450 OFFCURVE",
"419 365 CURVE",
"419 33 LINE"
);
}
);
width = 912;
},
{
associatedMasterId = "7B4D842D-CA8D-4153-9CDE-FADFBE419175";
background = {
paths = (
{
closed = 1;
nodes = (
"542 85 LINE",
"542 371 LINE",
"542 434 OFFCURVE",
"572 473 OFFCURVE",
"622 473 CURVE SMOOTH",
"704 473 OFFCURVE",
"740 402 OFFCURVE",
"740 319 CURVE",
"740 189 OFFCURVE",
"682 111 OFFCURVE",
"565 111 CURVE SMOOTH",
"222 111 LINE",
"222 575 LINE",
"80 575 LINE",
"80 0 LINE",
"568 -1 LINE",
"755 -1 OFFCURVE",
"882 123 OFFCURVE",
"882 319 CURVE",
"882 470 OFFCURVE",
"786 585 OFFCURVE",
"613 585 CURVE SMOOTH",
"478 585 OFFCURVE",
"400 499 OFFCURVE",
"400 374 CURVE",
"400 85 LINE"
);
}
);
};
layerId = "4F806111-F79E-4ACB-B206-346A31E174CA";
name = "Bold Apr 13 15, 13:45";
paths = (
{
closed = 1;
nodes = (
"542 85 LINE",
"542 381 LINE",
"542 444 OFFCURVE",
"569 473 OFFCURVE",
"614 473 CURVE SMOOTH",
"694 473 OFFCURVE",
"733 394 OFFCURVE",
"733 309 CURVE",
"733 179 OFFCURVE",
"682 111 OFFCURVE",
"565 111 CURVE SMOOTH",
"222 111 LINE",
"222 575 LINE",
"80 575 LINE",
"80 0 LINE",
"568 -1 LINE",
"755 -1 OFFCURVE",
"875 113 OFFCURVE",
"875 309 CURVE",
"875 462 OFFCURVE",
"773 585 OFFCURVE",
"608 585 CURVE SMOOTH",
"473 585 OFFCURVE",
"400 503 OFFCURVE",
"400 384 CURVE",
"400 85 LINE"
);
}
);
width = 922;
},
{
associatedMasterId = "7B4D842D-CA8D-4153-9CDE-FADFBE419175";
background = {
paths = (
{
closed = 1;
nodes = (
"537 85 LINE",
"537 388 LINE",
"537 442 OFFCURVE",
"563 473 OFFCURVE",
"610 473 CURVE SMOOTH",
"699 473 OFFCURVE",
"735 385 OFFCURVE",
"735 295 CURVE SMOOTH",
"735 175 OFFCURVE",
"677 111 OFFCURVE",
"560 111 CURVE SMOOTH",
"217 111 LINE",
"217 575 LINE",
"75 575 LINE",
"75 0 LINE",
"572 -1 LINE",
"759 -1 OFFCURVE",
"877 109 OFFCURVE",
"877 295 CURVE SMOOTH",
"877 446 OFFCURVE",
"781 585 OFFCURVE",
"608 585 CURVE SMOOTH",
"473 585 OFFCURVE",
"395 509 OFFCURVE",
"395 391 CURVE",
"395 85 LINE"
);
}
);
};
layerId = "6FE02C44-044E-46E2-862E-1B5BD4F8FF8C";
name = "Bold Apr 24 15, 02:36";
paths = (
{
closed = 1;
nodes = (
"537 85 LINE",
"537 371 LINE",
"537 434 OFFCURVE",
"567 473 OFFCURVE",
"617 473 CURVE SMOOTH",
"699 473 OFFCURVE",
"735 402 OFFCURVE",
"735 319 CURVE",
"735 189 OFFCURVE",
"677 111 OFFCURVE",
"560 111 CURVE SMOOTH",
"217 111 LINE",
"217 575 LINE",
"75 575 LINE",
"75 0 LINE",
"563 -1 LINE",
"750 -1 OFFCURVE",
"877 123 OFFCURVE",
"877 319 CURVE",
"877 470 OFFCURVE",
"781 585 OFFCURVE",
"608 585 CURVE SMOOTH",
"473 585 OFFCURVE",
"395 499 OFFCURVE",
"395 374 CURVE",
"395 85 LINE"
);
}
);
width = 927;
}
);
unicode = 0BAE;
}
{
glyphname = tmNGA;
layers = (
{
anchors = (
{
name = abvm;
position = "{510, 543}";
}
);
background = {
paths = (
{
closed = 1;
nodes = (
"872 543 LINE",
"872 0 LINE",
"934 0 LINE",
"934 543 LINE"
);
},
{
closed = 1;
nodes = (
"427 489 LINE",
"527 489 LINE",
"527 543 LINE",
"85 543 LINE",
"85 0 LINE",
"143 0 LINE",
"143 489 LINE",
"369 489 LINE",
"369 211 LINE",
"427 211 LINE"
);
},
{
closed = 1;
nodes = (
"436 26 LINE",
"624 26 OFFCURVE",
"706 99 OFFCURVE",
"706 227 CURVE SMOOTH",
"706 321 OFFCURVE",
"640 391 OFFCURVE",
"543 391 CURVE SMOOTH",
"493 391 OFFCURVE",
"446 363 OFFCURVE",
"427 324 CURVE",
"427 221 LINE",
"427 289 OFFCURVE",
"466 336 OFFCURVE",
"535 336 CURVE SMOOTH",
"602 336 OFFCURVE",
"644 290 OFFCURVE",
"644 227 CURVE SMOOTH",
"644 112 OFFCURVE",
"570 55 OFFCURVE",
"436 55 CURVE"
);
},
{
closed = 1;
nodes = (
"897 0 LINE",
"897 55 LINE",
"369 55 LINE",
"369 0 LINE"
);
}
);
};
layerId = "25BA55F5-DD3E-4682-A696-ADF7D9496427";
name = Light;
paths = (
{
closed = 1;
nodes = (
"862 543 LINE",
"862 0 LINE",
"924 0 LINE",
"924 543 LINE"
);
},
{
closed = 1;
nodes = (
"427 489 LINE",
"527 489 LINE",
"527 543 LINE",
"95 543 LINE",
"95 0 LINE",
"153 0 LINE",
"153 489 LINE",
"369 489 LINE",
"369 211 LINE",
"427 211 LINE"
);
},
{
closed = 1;
nodes = (
"436 26 LINE",
"624 26 OFFCURVE",
"706 99 OFFCURVE",
"706 227 CURVE SMOOTH",
"706 321 OFFCURVE",
"640 391 OFFCURVE",
"543 391 CURVE SMOOTH",
"493 391 OFFCURVE",
"446 363 OFFCURVE",
"427 324 CURVE",
"427 221 LINE",
"427 289 OFFCURVE",
"466 336 OFFCURVE",
"535 336 CURVE SMOOTH",
"602 336 OFFCURVE",
"644 290 OFFCURVE",
"644 227 CURVE SMOOTH",
"644 112 OFFCURVE",
"570 55 OFFCURVE",
"436 55 CURVE"
);
},
{
closed = 1;
nodes = (
"887 0 LINE",
"887 55 LINE",
"369 55 LINE",
"369 0 LINE"
);
}
);
width = 1019;
},
{
anchors = (
{
name = abvm;
position = "{546, 576}";
}
);
background = {
paths = (
{
closed = 1;
nodes = (
"875 576 LINE",
"875 1 LINE",
"1017 1 LINE",
"1017 576 LINE"
);
},
{
closed = 1;
nodes = (
"499 464 LINE",
"609 464 LINE",
"609 576 LINE",
"75 576 LINE",
"75 0 LINE",
"217 0 LINE",
"217 464 LINE",
"357 464 LINE",
"357 192 LINE",
"499 192 LINE"
);
},
{
closed = 1;
nodes = (
"536 82 LINE",
"695 82 OFFCURVE",
"793 127 OFFCURVE",
"793 244 CURVE",
"792 329 OFFCURVE",
"731 403 OFFCURVE",
"633 403 CURVE SMOOTH",
"570 403 OFFCURVE",
"519 367 OFFCURVE",
"499 312 CURVE",
"499 207 LINE",
"499 245 OFFCURVE",
"519 291 OFFCURVE",
"580 291 CURVE SMOOTH",
"627 291 OFFCURVE",
"660 262 OFFCURVE",
"660 214 CURVE",
"660 154 OFFCURVE",
"620 112 OFFCURVE",
"536 112 CURVE"
);
},
{
closed = 1;
nodes = (
"918 1 LINE",
"918 112 LINE",
"357 112 LINE",
"357 0 LINE"
);
}
);
};
layerId = "7B4D842D-CA8D-4153-9CDE-FADFBE419175";
name = Bold;
paths = (
{
closed = 1;
nodes = (
"875 576 LINE",
"875 1 LINE",
"1017 1 LINE",
"1017 576 LINE"
);
},
{
closed = 1;
nodes = (
"499 464 LINE",
"609 464 LINE",
"609 576 LINE",
"75 576 LINE",
"75 0 LINE",
"217 0 LINE",
"217 464 LINE",
"357 464 LINE",
"357 192 LINE",
"499 192 LINE"
);
},
{
closed = 1;
nodes = (
"545 75 LINE",
"715 75 OFFCURVE",
"792 150 OFFCURVE",
"792 254 CURVE SMOOTH",
"792 339 OFFCURVE",
"730 403 OFFCURVE",
"634 403 CURVE SMOOTH",
"571 403 OFFCURVE",
"519 367 OFFCURVE",
"499 312 CURVE",
"499 207 LINE",
"499 245 OFFCURVE",
"519 291 OFFCURVE",
"580 291 CURVE SMOOTH",
"627 291 OFFCURVE",
"660 262 OFFCURVE",
"660 214 CURVE",
"660 154 OFFCURVE",
"620 112 OFFCURVE",
"545 112 CURVE"
);
},
{
closed = 1;
nodes = (
"918 1 LINE",
"918 112 LINE",
"357 112 LINE",
"357 0 LINE"
);
}
);
width = 1092;
},
{
associatedMasterId = "7B4D842D-CA8D-4153-9CDE-FADFBE419175";
background = {
paths = (
{
closed = 1;
nodes = (
"875 576 LINE",
"875 1 LINE",
"1017 1 LINE",
"1017 576 LINE"
);
},
{
closed = 1;
nodes = (
"499 464 LINE",
"609 464 LINE",
"609 576 LINE",
"75 576 LINE",
"75 0 LINE",
"217 0 LINE",
"217 464 LINE",
"357 464 LINE",
"357 192 LINE",
"499 192 LINE"
);
},
{
closed = 1;
nodes = (
"536 86 LINE",
"695 86 OFFCURVE",
"789 143 OFFCURVE",
"789 260 CURVE",
"788 339 OFFCURVE",
"727 403 OFFCURVE",
"635 403 CURVE SMOOTH",
"572 403 OFFCURVE",
"519 368 OFFCURVE",
"499 312 CURVE",
"499 207 LINE",
"499 245 OFFCURVE",
"519 291 OFFCURVE",
"580 291 CURVE SMOOTH",
"627 291 OFFCURVE",
"660 262 OFFCURVE",
"660 214 CURVE",
"660 154 OFFCURVE",
"620 112 OFFCURVE",
"536 112 CURVE"
);
},
{
closed = 1;
nodes = (
"918 1 LINE",
"918 112 LINE",
"357 112 LINE",
"357 0 LINE"
);
}
);
};
layerId = "C8ADEBF2-42AC-4A95-BE55-F39A5E18D68B";
name = "Bold Mar 9 15, 14:54";
paths = (
{
closed = 1;
nodes = (
"885 576 LINE",
"885 1 LINE",
"1027 1 LINE",
"1027 576 LINE"
);
},
{
closed = 1;
nodes = (
"499 464 LINE",
"609 464 LINE",
"609 576 LINE",
"75 576 LINE",
"75 0 LINE",
"217 0 LINE",
"217 464 LINE",
"357 464 LINE",
"357 195 LINE",
"499 195 LINE"
);
},
{
closed = 1;
nodes = (
"544 86 LINE",
"676 86 OFFCURVE",
"791 121 OFFCURVE",
"791 248 CURVE",
"790 336 OFFCURVE",
"728 397 OFFCURVE",
"634 397 CURVE SMOOTH",
"574 397 OFFCURVE",
"520 365 OFFCURVE",
"499 318 CURVE",
"499 202 LINE",
"499 252 OFFCURVE",
"529 285 OFFCURVE",
"581 285 CURVE SMOOTH",
"633 285 OFFCURVE",
"662 252 OFFCURVE",
"662 208 CURVE",
"662 145 OFFCURVE",
"627 112 OFFCURVE",
"544 112 CURVE"
);
},
{
closed = 1;
nodes = (
"928 1 LINE",
"928 112 LINE",
"357 112 LINE",
"357 0 LINE"
);
}
);
width = 1107;
}
);
unicode = 0B99;
}
{
glyphname = tmO;
layers = (
{
background = {
paths = (
{
closed = 1;
nodes = (
"201 -153 LINE",
"250 -176 OFFCURVE",
"308 -186 OFFCURVE",
"353 -186 CURVE SMOOTH",
"426 -186 OFFCURVE",
"496 -164 OFFCURVE",
"553 -139 CURVE SMOOTH",
"608 -115 OFFCURVE",
"664 -94 OFFCURVE",
"740 -94 CURVE SMOOTH",
"756 -94 LINE",
"756 -40 LINE",
"720 -40 LINE SMOOTH",
"584 -40 OFFCURVE",
"535 30 OFFCURVE",
"535 135 CURVE",
"535 163 OFFCURVE",
"543 210 OFFCURVE",
"552 228 CURVE",
"541 215 LINE",
"541 126 OFFCURVE",
"604 74 OFFCURVE",
"679 74 CURVE SMOOTH",
"776 74 OFFCURVE",
"832 151 OFFCURVE",
"832 236 CURVE SMOOTH",
"832 393 OFFCURVE",
"702 553 OFFCURVE",
"440 553 CURVE",
"240 553 OFFCURVE",
"55 456 OFFCURVE",
"55 247 CURVE SMOOTH",
"55 125 OFFCURVE",
"126 40 OFFCURVE",
"236 40 CURVE SMOOTH",
"338 40 OFFCURVE",
"402 109 OFFCURVE",
"402 200 CURVE SMOOTH",
"402 292 OFFCURVE",
"332 360 OFFCURVE",
"240 360 CURVE SMOOTH",
"172 360 OFFCURVE",
"109 314 OFFCURVE",
"102 248 CURVE",
"107 246 LINE",
"117 422 OFFCURVE",
"260 498 OFFCURVE",
"440 498 CURVE",
"625 498 OFFCURVE",
"774 399 OFFCURVE",
"774 238 CURVE SMOOTH",
"774 176 OFFCURVE",
"742 128 OFFCURVE",
"676 128 CURVE SMOOTH",
"615 128 OFFCURVE",
"577 173 OFFCURVE",
"577 232 CURVE SMOOTH",
"577 262 OFFCURVE",
"582 284 OFFCURVE",
"595 316 CURVE",
"535 316 LINE",
"510 281 OFFCURVE",
"479 208 OFFCURVE",
"479 137 CURVE SMOOTH",
"479 15 OFFCURVE",
"551 -66 OFFCURVE",
"671 -66 CURVE",
"663 -57 LINE",
"613 -57 OFFCURVE",
"565 -76 OFFCURVE",
"515 -96 CURVE SMOOTH",
"468 -115 OFFCURVE",
"408 -132 OFFCURVE",
"353 -132 CURVE SMOOTH",
"304 -132 OFFCURVE",
"252 -119 OFFCURVE",
"201 -97 CURVE"
);
},
{
closed = 1;
nodes = (
"164 94 OFFCURVE",
"126 139 OFFCURVE",
"126 200 CURVE SMOOTH",
"126 258 OFFCURVE",
"164 306 OFFCURVE",
"235 306 CURVE SMOOTH",
"305 306 OFFCURVE",
"344 261 OFFCURVE",
"344 200 CURVE SMOOTH",
"344 139 OFFCURVE",
"305 94 OFFCURVE",
"235 94 CURVE SMOOTH"
);
}
);
};
layerId = "25BA55F5-DD3E-4682-A696-ADF7D9496427";
name = Light;
paths = (
{
closed = 1;
nodes = (
"161 -127 LINE",
"211 -163 OFFCURVE",
"279 -186 OFFCURVE",
"353 -186 CURVE SMOOTH",
"426 -186 OFFCURVE",
"496 -163 OFFCURVE",
"553 -139 CURVE SMOOTH",
"608 -116 OFFCURVE",
"664 -94 OFFCURVE",
"740 -94 CURVE SMOOTH",
"756 -94 LINE",
"756 -40 LINE",
"720 -40 LINE SMOOTH",
"584 -40 OFFCURVE",
"535 30 OFFCURVE",
"535 135 CURVE",
"535 163 OFFCURVE",
"543 210 OFFCURVE",
"552 228 CURVE",
"541 215 LINE",
"541 126 OFFCURVE",
"604 74 OFFCURVE",
"679 74 CURVE SMOOTH",
"776 74 OFFCURVE",
"832 151 OFFCURVE",
"832 236 CURVE SMOOTH",
"832 393 OFFCURVE",
"702 553 OFFCURVE",
"440 553 CURVE",
"240 553 OFFCURVE",
"55 456 OFFCURVE",
"55 247 CURVE SMOOTH",
"55 125 OFFCURVE",
"126 40 OFFCURVE",
"236 40 CURVE SMOOTH",
"338 40 OFFCURVE",
"402 109 OFFCURVE",
"402 200 CURVE SMOOTH",
"402 292 OFFCURVE",
"332 360 OFFCURVE",
"240 360 CURVE SMOOTH",
"172 360 OFFCURVE",
"109 314 OFFCURVE",
"102 248 CURVE",
"107 246 LINE",
"117 422 OFFCURVE",
"260 498 OFFCURVE",
"440 498 CURVE",
"625 498 OFFCURVE",
"774 399 OFFCURVE",
"774 238 CURVE SMOOTH",
"774 176 OFFCURVE",
"742 128 OFFCURVE",
"676 128 CURVE SMOOTH",
"615 128 OFFCURVE",
"577 173 OFFCURVE",
"577 232 CURVE SMOOTH",
"577 262 OFFCURVE",
"582 284 OFFCURVE",
"595 316 CURVE",
"535 316 LINE",
"510 281 OFFCURVE",
"479 208 OFFCURVE",
"479 137 CURVE SMOOTH",
"479 15 OFFCURVE",
"551 -66 OFFCURVE",
"671 -66 CURVE",
"663 -57 LINE",
"613 -57 OFFCURVE",
"565 -76 OFFCURVE",
"515 -96 CURVE SMOOTH",
"468 -115 OFFCURVE",
"408 -132 OFFCURVE",
"353 -132 CURVE SMOOTH",
"279 -132 OFFCURVE",
"220 -102 OFFCURVE",
"161 -64 CURVE"
);
},
{
closed = 1;
nodes = (
"164 94 OFFCURVE",
"126 139 OFFCURVE",
"126 200 CURVE SMOOTH",
"126 258 OFFCURVE",
"164 306 OFFCURVE",
"235 306 CURVE SMOOTH",
"305 306 OFFCURVE",
"344 261 OFFCURVE",
"344 200 CURVE SMOOTH",
"344 139 OFFCURVE",
"305 94 OFFCURVE",
"235 94 CURVE SMOOTH"
);
}
);
width = 887;
},
{
background = {
paths = (
{
closed = 1;
nodes = (
"212 -178 LINE",
"273 -203 OFFCURVE",
"319 -217 OFFCURVE",
"390 -217 CURVE SMOOTH",
"508 -217 OFFCURVE",
"579 -186 OFFCURVE",
"652 -148 CURVE SMOOTH",
"733 -106 OFFCURVE",
"763 -94 OFFCURVE",
"839 -94 CURVE SMOOTH",
"859 -94 LINE",
"859 18 LINE",
"772 18 LINE SMOOTH",
"688 18 OFFCURVE",
"648 60 OFFCURVE",
"648 120 CURVE",
"648 140 OFFCURVE",
"654 170 OFFCURVE",
"665 193 CURVE",
"651 192 LINE",
"649 124 OFFCURVE",
"702 79 OFFCURVE",
"779 79 CURVE SMOOTH",
"882 79 OFFCURVE",
"940 150 OFFCURVE",
"940 253 CURVE",
"940 439 OFFCURVE",
"766 586 OFFCURVE",
"482 586 CURVE SMOOTH",
"239 586 OFFCURVE",
"40 467 OFFCURVE",
"40 258 CURVE SMOOTH",
"40 111 OFFCURVE",
"139 29 OFFCURVE",
"267 29 CURVE SMOOTH",
"389 29 OFFCURVE",
"463 102 OFFCURVE",
"463 204 CURVE SMOOTH",
"463 308 OFFCURVE",
"388 371 OFFCURVE",
"298 371 CURVE SMOOTH",
"221 371 OFFCURVE",
"175 317 OFFCURVE",
"167 273 CURVE",
"171 271 LINE",
"177 409 OFFCURVE",
"325 474 OFFCURVE",
"482 474 CURVE SMOOTH",
"660 474 OFFCURVE",
"802 386 OFFCURVE",
"802 259 CURVE",
"802 218 OFFCURVE",
"784 189 OFFCURVE",
"743 189 CURVE SMOOTH",
"708 189 OFFCURVE",
"685 213 OFFCURVE",
"685 252 CURVE SMOOTH",
"685 282 OFFCURVE",
"697 311 OFFCURVE",
"709 333 CURVE",
"571 333 LINE",
"544 289 OFFCURVE",
"520 231 OFFCURVE",
"520 155 CURVE",
"520 52 OFFCURVE",
"586 -26 OFFCURVE",
"707 -26 CURVE",
"707 -17 LINE",
"647 -17 OFFCURVE",
"619 -34 OFFCURVE",
"553 -63 CURVE SMOOTH",
"501 -86 OFFCURVE",
"453 -105 OFFCURVE",
"389 -105 CURVE SMOOTH",
"321 -105 OFFCURVE",
"264 -88 OFFCURVE",
"213 -65 CURVE"
);
},
{
closed = 1;
nodes = (
"227 138 OFFCURVE",
"198 162 OFFCURVE",
"198 203 CURVE SMOOTH",
"198 244 OFFCURVE",
"227 267 OFFCURVE",
"268 267 CURVE SMOOTH",
"310 267 OFFCURVE",
"339 244 OFFCURVE",
"339 203 CURVE SMOOTH",
"339 162 OFFCURVE",
"310 138 OFFCURVE",
"268 138 CURVE SMOOTH"
);
}
);
};
layerId = "7B4D842D-CA8D-4153-9CDE-FADFBE419175";
name = Bold;
paths = (
{
closed = 1;
nodes = (
"212 -159 LINE",
"261 -192 OFFCURVE",
"329 -217 OFFCURVE",
"406 -217 CURVE SMOOTH",
"512 -217 OFFCURVE",
"578 -188 OFFCURVE",
"652 -154 CURVE SMOOTH",
"735 -116 OFFCURVE",
"763 -100 OFFCURVE",
"839 -100 CURVE SMOOTH",
"859 -100 LINE",
"859 12 LINE",
"772 12 LINE SMOOTH",
"688 12 OFFCURVE",
"648 60 OFFCURVE",
"648 120 CURVE",
"648 140 OFFCURVE",
"654 170 OFFCURVE",
"665 193 CURVE",
"651 192 LINE",
"649 124 OFFCURVE",
"702 79 OFFCURVE",
"779 79 CURVE SMOOTH",
"882 79 OFFCURVE",
"940 150 OFFCURVE",
"940 253 CURVE",
"940 439 OFFCURVE",
"766 586 OFFCURVE",
"482 586 CURVE SMOOTH",
"239 586 OFFCURVE",
"40 467 OFFCURVE",
"40 258 CURVE SMOOTH",
"40 111 OFFCURVE",
"139 29 OFFCURVE",
"267 29 CURVE SMOOTH",
"389 29 OFFCURVE",
"463 102 OFFCURVE",
"463 204 CURVE SMOOTH",
"463 308 OFFCURVE",
"386 371 OFFCURVE",
"296 371 CURVE SMOOTH",
"213 371 OFFCURVE",
"165 317 OFFCURVE",
"157 273 CURVE",
"171 271 LINE",
"177 409 OFFCURVE",
"325 474 OFFCURVE",
"482 474 CURVE SMOOTH",
"660 474 OFFCURVE",
"802 386 OFFCURVE",
"802 259 CURVE",
"802 218 OFFCURVE",
"784 189 OFFCURVE",
"743 189 CURVE SMOOTH",
"708 189 OFFCURVE",
"685 213 OFFCURVE",
"685 252 CURVE SMOOTH",
"685 282 OFFCURVE",
"697 311 OFFCURVE",
"709 333 CURVE",
"571 333 LINE",
"544 289 OFFCURVE",
"520 231 OFFCURVE",
"520 155 CURVE",
"520 52 OFFCURVE",
"586 -32 OFFCURVE",
"707 -32 CURVE",
"707 -23 LINE",
"647 -23 OFFCURVE",
"621 -40 OFFCURVE",
"553 -69 CURVE SMOOTH",
"508 -88 OFFCURVE",
"466 -105 OFFCURVE",
"402 -105 CURVE SMOOTH",
"343 -105 OFFCURVE",
"277 -86 OFFCURVE",
"213 -46 CURVE"
);
},
{
closed = 1;
nodes = (
"227 138 OFFCURVE",
"198 162 OFFCURVE",
"198 203 CURVE SMOOTH",
"198 244 OFFCURVE",
"227 267 OFFCURVE",
"268 267 CURVE SMOOTH",
"310 267 OFFCURVE",
"339 244 OFFCURVE",
"339 203 CURVE SMOOTH",
"339 162 OFFCURVE",
"310 138 OFFCURVE",
"268 138 CURVE SMOOTH"
);
}
);
width = 980;
},
{
associatedMasterId = "7B4D842D-CA8D-4153-9CDE-FADFBE419175";
background = {
paths = (
{
closed = 1;
nodes = (
"215 117 OFFCURVE",
"186 140 OFFCURVE",
"186 181 CURVE SMOOTH",
"186 222 OFFCURVE",
"215 245 OFFCURVE",
"256 245 CURVE SMOOTH",
"298 245 OFFCURVE",
"327 222 OFFCURVE",
"327 181 CURVE SMOOTH",
"327 140 OFFCURVE",
"298 117 OFFCURVE",
"256 117 CURVE SMOOTH"
);
},
{
closed = 1;
nodes = (
"792 240 OFFCURVE",
"774 211 OFFCURVE",
"731 211 CURVE SMOOTH",
"701 211 OFFCURVE",
"675 227 OFFCURVE",
"675 260 CURVE SMOOTH",
"675 279 OFFCURVE",
"683 296 OFFCURVE",
"693 310 CURVE",
"580 368 LINE",
"531 302 OFFCURVE",
"510 241 OFFCURVE",
"510 160 CURVE",
"510 63 OFFCURVE",
"568 -20 OFFCURVE",
"676 -28 CURVE",
"695 -14 LINE",
"559 -14 OFFCURVE",
"538 -115 OFFCURVE",
"395 -115 CURVE SMOOTH",
"321 -115 OFFCURVE",
"255 -96 OFFCURVE",
"203 -72 CURVE",
"202 -188 LINE",
"265 -218 OFFCURVE",
"321 -227 OFFCURVE",
"396 -227 CURVE SMOOTH",
"636 -227 OFFCURVE",
"655 -72 OFFCURVE",
"829 -72 CURVE SMOOTH",
"859 -72 LINE",
"859 40 LINE",
"762 40 LINE SMOOTH",
"678 40 OFFCURVE",
"638 82 OFFCURVE",
"638 142 CURVE",
"638 154 OFFCURVE",
"640 169 OFFCURVE",
"644 184 CURVE",
"656 133 OFFCURVE",
"704 101 OFFCURVE",
"769 101 CURVE SMOOTH",
"872 101 OFFCURVE",
"932 172 OFFCURVE",
"932 275 CURVE",
"932 480 OFFCURVE",
"724 586 OFFCURVE",
"470 586 CURVE SMOOTH",
"214 586 OFFCURVE",
"30 472 OFFCURVE",
"30 252 CURVE",
"30 108 OFFCURVE",
"109 0 OFFCURVE",
"261 0 CURVE SMOOTH",
"390 0 OFFCURVE",
"455 76 OFFCURVE",
"455 182 CURVE SMOOTH",
"455 290 OFFCURVE",
"377 356 OFFCURVE",
"283 356 CURVE SMOOTH",
"203 356 OFFCURVE",
"157 300 OFFCURVE",
"149 254 CURVE",
"154 253 LINE",
"154 390 OFFCURVE",
"278 474 OFFCURVE",
"470 474 CURVE SMOOTH",
"637 474 OFFCURVE",
"792 409 OFFCURVE",
"792 281 CURVE"
);
}
);
};
layerId = "27206B3A-B083-4A7E-A66F-BBB125450C6A";
name = "Bold Feb 27 15, 13:21";
paths = (
{
closed = 1;
nodes = (
"215 117 OFFCURVE",
"186 140 OFFCURVE",
"186 181 CURVE SMOOTH",
"186 222 OFFCURVE",
"215 245 OFFCURVE",
"256 245 CURVE SMOOTH",
"298 245 OFFCURVE",
"327 222 OFFCURVE",
"327 181 CURVE SMOOTH",
"327 140 OFFCURVE",
"298 117 OFFCURVE",
"256 117 CURVE SMOOTH"
);
},
{
closed = 1;
nodes = (
"792 259 OFFCURVE",
"772 228 OFFCURVE",
"729 228 CURVE SMOOTH",
"683 228 OFFCURVE",
"653 252 OFFCURVE",
"653 321 CURVE",
"517 321 LINE",
"517 137 LINE",
"517 40 OFFCURVE",
"566 -23 OFFCURVE",
"674 -31 CURVE",
"695 -14 LINE",
"559 -14 OFFCURVE",
"538 -115 OFFCURVE",
"395 -115 CURVE SMOOTH",
"321 -115 OFFCURVE",
"255 -96 OFFCURVE",
"203 -72 CURVE",
"202 -188 LINE",
"265 -218 OFFCURVE",
"321 -227 OFFCURVE",
"396 -227 CURVE SMOOTH",
"636 -227 OFFCURVE",
"655 -72 OFFCURVE",
"829 -72 CURVE SMOOTH",
"859 -72 LINE",
"859 40 LINE",
"762 40 LINE SMOOTH",
"668 40 OFFCURVE",
"648 71 OFFCURVE",
"648 141 CURVE",
"648 202 LINE",
"660 151 OFFCURVE",
"704 118 OFFCURVE",
"769 118 CURVE SMOOTH",
"872 118 OFFCURVE",
"932 189 OFFCURVE",
"932 292 CURVE",
"932 497 OFFCURVE",
"724 586 OFFCURVE",
"470 586 CURVE SMOOTH",
"214 586 OFFCURVE",
"30 472 OFFCURVE",
"30 252 CURVE",
"30 108 OFFCURVE",
"109 0 OFFCURVE",
"261 0 CURVE SMOOTH",
"390 0 OFFCURVE",
"455 76 OFFCURVE",
"455 182 CURVE SMOOTH",
"455 290 OFFCURVE",
"377 356 OFFCURVE",
"283 356 CURVE SMOOTH",
"203 356 OFFCURVE",
"157 300 OFFCURVE",
"149 254 CURVE",
"154 253 LINE",
"154 390 OFFCURVE",
"278 474 OFFCURVE",
"470 474 CURVE SMOOTH",
"637 474 OFFCURVE",
"792 426 OFFCURVE",
"792 298 CURVE"
);
}
);
width = 963;
},
{
associatedMasterId = "7B4D842D-CA8D-4153-9CDE-FADFBE419175";
background = {
paths = (
{
closed = 1;
nodes = (
"251 247 LINE",
"258 249 OFFCURVE",
"272 250 OFFCURVE",
"281 250 CURVE SMOOTH",
"313 250 OFFCURVE",
"342 237 OFFCURVE",
"342 196 CURVE SMOOTH",
"342 163 OFFCURVE",
"318 142 OFFCURVE",
"275 142 CURVE SMOOTH",
"218 142 OFFCURVE",
"179 180 OFFCURVE",
"179 258 CURVE",
"179 403 OFFCURVE",
"297 474 OFFCURVE",
"489 474 CURVE SMOOTH",
"680 474 OFFCURVE",
"809 387 OFFCURVE",
"809 259 CURVE",
"809 218 OFFCURVE",
"792 189 OFFCURVE",
"751 189 CURVE SMOOTH",
"719 189 OFFCURVE",
"692 206 OFFCURVE",
"692 246 CURVE SMOOTH",
"692 268 OFFCURVE",
"700 284 OFFCURVE",
"710 298 CURVE",
"597 356 LINE",
"548 290 OFFCURVE",
"527 219 OFFCURVE",
"527 138 CURVE",
"527 35 OFFCURVE",
"597 -42 OFFCURVE",
"705 -50 CURVE",
"705 -29 LINE",
"580 -29 OFFCURVE",
"518 -115 OFFCURVE",
"396 -115 CURVE SMOOTH",
"328 -115 OFFCURVE",
"271 -98 OFFCURVE",
"220 -75 CURVE",
"219 -188 LINE",
"280 -213 OFFCURVE",
"326 -227 OFFCURVE",
"397 -227 CURVE SMOOTH",
"607 -227 OFFCURVE",
"672 -94 OFFCURVE",
"846 -94 CURVE SMOOTH",
"866 -94 LINE",
"866 18 LINE",
"779 18 LINE SMOOTH",
"695 18 OFFCURVE",
"655 60 OFFCURVE",
"655 120 CURVE",
"655 132 OFFCURVE",
"657 147 OFFCURVE",
"661 162 CURVE",
"673 111 OFFCURVE",
"721 79 OFFCURVE",
"786 79 CURVE SMOOTH",
"889 79 OFFCURVE",
"947 150 OFFCURVE",
"947 253 CURVE",
"947 458 OFFCURVE",
"767 586 OFFCURVE",
"489 586 CURVE SMOOTH",
"233 586 OFFCURVE",
"41 476 OFFCURVE",
"41 257 CURVE",
"41 105 OFFCURVE",
"140 30 OFFCURVE",
"279 30 CURVE SMOOTH",
"408 30 OFFCURVE",
"470 105 OFFCURVE",
"470 199 CURVE SMOOTH",
"470 297 OFFCURVE",
"402 361 OFFCURVE",
"308 361 CURVE SMOOTH",
"289 361 OFFCURVE",
"266 358 OFFCURVE",
"251 352 CURVE"
);
}
);
};
layerId = "1697F969-D701-4FCB-BCAB-9C07CF1F9BFF";
name = "Bold Mar 2 15, 19:28";
paths = (
{
closed = 1;
nodes = (
"241 247 LINE",
"248 249 OFFCURVE",
"262 250 OFFCURVE",
"271 250 CURVE SMOOTH",
"303 250 OFFCURVE",
"332 237 OFFCURVE",
"332 196 CURVE SMOOTH",
"332 163 OFFCURVE",
"308 142 OFFCURVE",
"265 142 CURVE SMOOTH",
"208 142 OFFCURVE",
"169 180 OFFCURVE",
"169 258 CURVE",
"169 403 OFFCURVE",
"287 474 OFFCURVE",
"484 474 CURVE SMOOTH",
"675 474 OFFCURVE",
"809 387 OFFCURVE",
"809 259 CURVE",
"809 218 OFFCURVE",
"792 189 OFFCURVE",
"751 189 CURVE SMOOTH",
"719 189 OFFCURVE",
"692 206 OFFCURVE",
"692 246 CURVE SMOOTH",
"692 268 OFFCURVE",
"700 284 OFFCURVE",
"710 298 CURVE",
"597 356 LINE",
"548 290 OFFCURVE",
"527 219 OFFCURVE",
"527 138 CURVE",
"527 35 OFFCURVE",
"597 -42 OFFCURVE",
"705 -50 CURVE",
"712 -42 LINE",
"566 -42 OFFCURVE",
"500 -115 OFFCURVE",
"396 -115 CURVE SMOOTH",
"322 -115 OFFCURVE",
"272 -96 OFFCURVE",
"220 -72 CURVE",
"219 -188 LINE",
"282 -218 OFFCURVE",
"322 -227 OFFCURVE",
"397 -227 CURVE SMOOTH",
"627 -227 OFFCURVE",
"672 -94 OFFCURVE",
"846 -94 CURVE SMOOTH",
"866 -94 LINE",
"866 18 LINE",
"779 18 LINE SMOOTH",
"695 18 OFFCURVE",
"655 60 OFFCURVE",
"655 120 CURVE",
"655 132 OFFCURVE",
"657 147 OFFCURVE",
"661 162 CURVE",
"673 111 OFFCURVE",
"721 79 OFFCURVE",
"786 79 CURVE SMOOTH",
"889 79 OFFCURVE",
"947 150 OFFCURVE",
"947 253 CURVE",
"947 458 OFFCURVE",
"762 586 OFFCURVE",
"484 586 CURVE SMOOTH",
"223 586 OFFCURVE",
"31 476 OFFCURVE",
"31 257 CURVE",
"31 105 OFFCURVE",
"130 30 OFFCURVE",
"269 30 CURVE SMOOTH",
"398 30 OFFCURVE",
"460 105 OFFCURVE",
"460 199 CURVE SMOOTH",
"460 297 OFFCURVE",
"392 361 OFFCURVE",
"298 361 CURVE SMOOTH",
"279 361 OFFCURVE",
"256 358 OFFCURVE",
"241 352 CURVE"
);
}
);
width = 979;
},
{
associatedMasterId = "7B4D842D-CA8D-4153-9CDE-FADFBE419175";
background = {
paths = (
{
closed = 1;
nodes = (
"47 111 OFFCURVE",
"146 29 OFFCURVE",
"274 29 CURVE SMOOTH",
"401 29 OFFCURVE",
"470 102 OFFCURVE",
"470 204 CURVE SMOOTH",
"470 308 OFFCURVE",
"395 371 OFFCURVE",
"305 371 CURVE SMOOTH",
"228 371 OFFCURVE",
"182 317 OFFCURVE",
"174 273 CURVE",
"178 271 LINE",
"184 409 OFFCURVE",
"332 474 OFFCURVE",
"489 474 CURVE SMOOTH",
"667 474 OFFCURVE",
"809 386 OFFCURVE",
"809 259 CURVE",
"809 218 OFFCURVE",
"792 189 OFFCURVE",
"751 189 CURVE SMOOTH",
"719 189 OFFCURVE",
"692 207 OFFCURVE",
"692 245 CURVE SMOOTH",
"692 267 OFFCURVE",
"700 284 OFFCURVE",
"710 298 CURVE",
"600 357 LINE",
"551 291 OFFCURVE",
"527 231 OFFCURVE",
"527 155 CURVE",
"527 52 OFFCURVE",
"593 -25 OFFCURVE",
"714 -25 CURVE",
"714 -17 LINE",
"654 -17 OFFCURVE",
"626 -34 OFFCURVE",
"560 -63 CURVE SMOOTH",
"508 -86 OFFCURVE",
"460 -105 OFFCURVE",
"396 -105 CURVE SMOOTH",
"328 -105 OFFCURVE",
"271 -88 OFFCURVE",
"220 -65 CURVE",
"219 -178 LINE",
"280 -203 OFFCURVE",
"326 -217 OFFCURVE",
"397 -217 CURVE SMOOTH",
"515 -217 OFFCURVE",
"586 -186 OFFCURVE",
"659 -148 CURVE SMOOTH",
"740 -106 OFFCURVE",
"770 -94 OFFCURVE",
"846 -94 CURVE SMOOTH",
"866 -94 LINE",
"866 18 LINE",
"779 18 LINE SMOOTH",
"695 18 OFFCURVE",
"655 60 OFFCURVE",
"655 120 CURVE",
"655 132 OFFCURVE",
"657 147 OFFCURVE",
"661 162 CURVE",
"673 111 OFFCURVE",
"721 79 OFFCURVE",
"786 79 CURVE SMOOTH",
"889 79 OFFCURVE",
"947 150 OFFCURVE",
"947 253 CURVE",
"947 439 OFFCURVE",
"773 586 OFFCURVE",
"489 586 CURVE SMOOTH",
"246 586 OFFCURVE",
"47 467 OFFCURVE",
"47 258 CURVE SMOOTH"
);
},
{
closed = 1;
nodes = (
"234 138 OFFCURVE",
"205 162 OFFCURVE",
"205 203 CURVE SMOOTH",
"205 244 OFFCURVE",
"234 267 OFFCURVE",
"275 267 CURVE SMOOTH",
"317 267 OFFCURVE",
"346 244 OFFCURVE",
"346 203 CURVE SMOOTH",
"346 162 OFFCURVE",
"317 138 OFFCURVE",
"275 138 CURVE SMOOTH"
);
}
);
};
layerId = "3C9774F8-0863-40F1-8C6E-DE531281AF5B";
name = "Bold Mar 4 15, 15:48";
paths = (
{
closed = 1;
nodes = (
"251 247 LINE",
"258 249 OFFCURVE",
"272 250 OFFCURVE",
"281 250 CURVE SMOOTH",
"313 250 OFFCURVE",
"342 237 OFFCURVE",
"342 196 CURVE SMOOTH",
"342 163 OFFCURVE",
"318 142 OFFCURVE",
"275 142 CURVE SMOOTH",
"218 142 OFFCURVE",
"179 180 OFFCURVE",
"179 258 CURVE",
"179 403 OFFCURVE",
"297 474 OFFCURVE",
"489 474 CURVE SMOOTH",
"680 474 OFFCURVE",
"809 387 OFFCURVE",
"809 259 CURVE",
"809 218 OFFCURVE",
"792 189 OFFCURVE",
"751 189 CURVE SMOOTH",
"719 189 OFFCURVE",
"692 206 OFFCURVE",
"692 246 CURVE SMOOTH",
"692 268 OFFCURVE",
"700 284 OFFCURVE",
"710 298 CURVE",
"597 356 LINE",
"548 290 OFFCURVE",
"527 219 OFFCURVE",
"527 138 CURVE",
"527 35 OFFCURVE",
"597 -42 OFFCURVE",
"705 -50 CURVE",
"705 -29 LINE",
"580 -29 OFFCURVE",
"518 -115 OFFCURVE",
"396 -115 CURVE SMOOTH",
"328 -115 OFFCURVE",
"271 -98 OFFCURVE",
"220 -75 CURVE",
"219 -188 LINE",
"280 -213 OFFCURVE",
"326 -227 OFFCURVE",
"397 -227 CURVE SMOOTH",
"607 -227 OFFCURVE",
"672 -94 OFFCURVE",
"846 -94 CURVE SMOOTH",
"866 -94 LINE",
"866 18 LINE",
"779 18 LINE SMOOTH",
"695 18 OFFCURVE",
"655 60 OFFCURVE",
"655 120 CURVE",
"655 132 OFFCURVE",
"657 147 OFFCURVE",
"661 162 CURVE",
"673 111 OFFCURVE",
"721 79 OFFCURVE",
"786 79 CURVE SMOOTH",
"889 79 OFFCURVE",
"947 150 OFFCURVE",
"947 253 CURVE",
"947 458 OFFCURVE",
"767 586 OFFCURVE",
"489 586 CURVE SMOOTH",
"233 586 OFFCURVE",
"41 476 OFFCURVE",
"41 257 CURVE",
"41 105 OFFCURVE",
"140 30 OFFCURVE",
"279 30 CURVE SMOOTH",
"408 30 OFFCURVE",
"470 105 OFFCURVE",
"470 199 CURVE SMOOTH",
"470 297 OFFCURVE",
"402 361 OFFCURVE",
"308 361 CURVE SMOOTH",
"289 361 OFFCURVE",
"266 358 OFFCURVE",
"251 352 CURVE"
);
}
);
width = 979;
},
{
associatedMasterId = "25BA55F5-DD3E-4682-A696-ADF7D9496427";
layerId = "44BB3A17-D7D7-4520-BC2A-4D7A1F5881AC";
name = "Light Apr 29 15, 21:21";
paths = (
{
closed = 1;
nodes = (
"201 -153 LINE",
"250 -176 OFFCURVE",
"308 -186 OFFCURVE",
"353 -186 CURVE SMOOTH",
"426 -186 OFFCURVE",
"496 -164 OFFCURVE",
"553 -139 CURVE SMOOTH",
"608 -115 OFFCURVE",
"664 -94 OFFCURVE",
"740 -94 CURVE SMOOTH",
"756 -94 LINE",
"756 -40 LINE",
"720 -40 LINE SMOOTH",
"584 -40 OFFCURVE",
"535 30 OFFCURVE",
"535 135 CURVE",
"535 163 OFFCURVE",
"543 210 OFFCURVE",
"552 228 CURVE",
"541 215 LINE",
"541 126 OFFCURVE",
"604 74 OFFCURVE",
"679 74 CURVE SMOOTH",
"776 74 OFFCURVE",
"832 151 OFFCURVE",
"832 236 CURVE SMOOTH",
"832 393 OFFCURVE",
"702 553 OFFCURVE",
"440 553 CURVE",
"240 553 OFFCURVE",
"55 456 OFFCURVE",
"55 247 CURVE SMOOTH",
"55 125 OFFCURVE",
"126 40 OFFCURVE",
"236 40 CURVE SMOOTH",
"338 40 OFFCURVE",
"402 109 OFFCURVE",
"402 200 CURVE SMOOTH",
"402 292 OFFCURVE",
"332 360 OFFCURVE",
"240 360 CURVE SMOOTH",
"172 360 OFFCURVE",
"109 314 OFFCURVE",
"102 248 CURVE",
"107 246 LINE",
"117 422 OFFCURVE",
"260 498 OFFCURVE",
"440 498 CURVE",
"625 498 OFFCURVE",
"774 399 OFFCURVE",
"774 238 CURVE SMOOTH",
"774 176 OFFCURVE",
"742 128 OFFCURVE",
"676 128 CURVE SMOOTH",
"615 128 OFFCURVE",
"577 173 OFFCURVE",
"577 232 CURVE SMOOTH",
"577 262 OFFCURVE",
"582 284 OFFCURVE",
"595 316 CURVE",
"535 316 LINE",
"510 281 OFFCURVE",
"479 208 OFFCURVE",
"479 137 CURVE SMOOTH",
"479 15 OFFCURVE",
"551 -66 OFFCURVE",
"671 -66 CURVE",
"663 -57 LINE",
"613 -57 OFFCURVE",
"565 -76 OFFCURVE",
"515 -96 CURVE SMOOTH",
"468 -115 OFFCURVE",
"408 -132 OFFCURVE",
"353 -132 CURVE SMOOTH",
"304 -132 OFFCURVE",
"252 -119 OFFCURVE",
"201 -97 CURVE"
);
},
{
closed = 1;
nodes = (
"164 94 OFFCURVE",
"126 139 OFFCURVE",
"126 200 CURVE SMOOTH",
"126 258 OFFCURVE",
"164 306 OFFCURVE",
"235 306 CURVE SMOOTH",
"305 306 OFFCURVE",
"344 261 OFFCURVE",
"344 200 CURVE SMOOTH",
"344 139 OFFCURVE",
"305 94 OFFCURVE",
"235 94 CURVE SMOOTH"
);
}
);
width = 887;
}
);
unicode = 0B92;
}
{
glyphname = tmOnehundred;
layers = (
{
background = {
paths = (
{
closed = 1;
nodes = (
"891 543 LINE",
"562 543 LINE",
"491 543 OFFCURVE",
"439 508 OFFCURVE",
"422 450 CURVE",
"407 505 OFFCURVE",
"353 553 OFFCURVE",
"266 553 CURVE SMOOTH",
"157 553 OFFCURVE",
"95 477 OFFCURVE",
"95 363 CURVE SMOOTH",
"95 0 LINE",
"153 0 LINE",
"153 363 LINE SMOOTH",
"153 448 OFFCURVE",
"193 499 OFFCURVE",
"271 499 CURVE SMOOTH",
"347 499 OFFCURVE",
"393 448 OFFCURVE",
"393 363 CURVE SMOOTH",
"393 0 LINE",
"451 0 LINE",
"451 363 LINE SMOOTH",
"451 435 OFFCURVE",
"486 489 OFFCURVE",
"562 489 CURVE",
"891 489 LINE SMOOTH"
);
},
{
closed = 1;
nodes = (
"733 500 LINE",
"733 0 LINE",
"791 0 LINE",
"791 500 LINE"
);
}
);
};
layerId = "25BA55F5-DD3E-4682-A696-ADF7D9496427";
name = Light;
paths = (
{
closed = 1;
nodes = (
"683 500 LINE",
"683 0 LINE",
"741 0 LINE",
"741 500 LINE"
);
},
{
closed = 1;
nodes = (
"841 543 LINE",
"562 543 LINE",
"491 543 OFFCURVE",
"439 508 OFFCURVE",
"422 450 CURVE",
"407 505 OFFCURVE",
"353 553 OFFCURVE",
"266 553 CURVE SMOOTH",
"157 553 OFFCURVE",
"95 477 OFFCURVE",
"95 363 CURVE SMOOTH",
"95 0 LINE",
"153 0 LINE",
"153 363 LINE SMOOTH",
"153 448 OFFCURVE",
"193 499 OFFCURVE",
"271 499 CURVE SMOOTH",
"347 499 OFFCURVE",
"393 448 OFFCURVE",
"393 363 CURVE SMOOTH",
"393 0 LINE",
"451 0 LINE",
"451 363 LINE SMOOTH",
"451 435 OFFCURVE",
"486 489 OFFCURVE",
"562 489 CURVE",
"841 489 LINE SMOOTH"
);
}
);
width = 871;
},
{
background = {
paths = (
{
closed = 1;
nodes = (
"761 500 LINE",
"761 0 LINE",
"906 0 LINE",
"904 500 LINE"
);
},
{
closed = 1;
nodes = (
"1003 576 LINE",
"606 576 LINE",
"515 576 OFFCURVE",
"474 533 OFFCURVE",
"455 477 CURVE",
"442 528 OFFCURVE",
"387 586 OFFCURVE",
"269 586 CURVE",
"166 586 OFFCURVE",
"75 517 OFFCURVE",
"75 398 CURVE SMOOTH",
"75 0 LINE",
"217 0 LINE",
"217 393 LINE SMOOTH",
"217 442 OFFCURVE",
"246 474 OFFCURVE",
"301 474 CURVE",
"357 474 OFFCURVE",
"384 442 OFFCURVE",
"384 393 CURVE SMOOTH",
"384 0 LINE",
"526 0 LINE",
"526 400 LINE",
"526 446 OFFCURVE",
"553 464 OFFCURVE",
"594 464 CURVE",
"1003 464 LINE"
);
}
);
};
layerId = "7B4D842D-CA8D-4153-9CDE-FADFBE419175";
name = Bold;
paths = (
{
closed = 1;
nodes = (
"701 500 LINE",
"701 0 LINE",
"846 0 LINE",
"844 500 LINE"
);
},
{
closed = 1;
nodes = (
"943 576 LINE",
"606 576 LINE",
"515 576 OFFCURVE",
"474 533 OFFCURVE",
"455 477 CURVE",
"442 528 OFFCURVE",
"387 586 OFFCURVE",
"269 586 CURVE",
"166 586 OFFCURVE",
"75 517 OFFCURVE",
"75 398 CURVE SMOOTH",
"75 0 LINE",
"217 0 LINE",
"217 393 LINE SMOOTH",
"217 442 OFFCURVE",
"246 474 OFFCURVE",
"301 474 CURVE",
"357 474 OFFCURVE",
"384 442 OFFCURVE",
"384 393 CURVE SMOOTH",
"384 0 LINE",
"526 0 LINE",
"526 400 LINE",
"526 446 OFFCURVE",
"553 464 OFFCURVE",
"594 464 CURVE",
"943 464 LINE"
);
}
);
width = 953;
}
);
unicode = 0BF1;
}
{
glyphname = tmRA;
layers = (
{
anchors = (
{
name = abvm;
position = "{320, 543}";
}
);
background = {
paths = (
{
closed = 1;
nodes = (
"95 0 LINE",
"157 0 LINE",
"157 489 LINE",
"383 489 LINE",
"383 45 LINE",
"260 -182 LINE",
"324 -182 LINE",
"445 45 LINE",
"445 489 LINE",
"545 489 LINE",
"545 543 LINE",
"95 543 LINE"
);
}
);
};
layerId = "25BA55F5-DD3E-4682-A696-ADF7D9496427";
name = Light;
paths = (
{
closed = 1;
nodes = (
"95 0 LINE",
"157 0 LINE",
"157 489 LINE",
"383 489 LINE",
"383 62 LINE",
"251 -182 LINE",
"324 -182 LINE",
"445 45 LINE",
"445 489 LINE",
"545 489 LINE",
"545 543 LINE",
"95 543 LINE"
);
}
);
width = 565;
},
{
anchors = (
{
name = abvm;
position = "{355, 576}";
}
);
background = {
paths = (
{
closed = 1;
nodes = (
"75 0 LINE",
"217 0 LINE",
"217 464 LINE",
"395 464 LINE",
"395 34 LINE",
"247 -201 LINE",
"389 -201 LINE",
"537 34 LINE",
"537 464 LINE",
"635 464 LINE",
"635 576 LINE",
"75 576 LINE"
);
}
);
};
layerId = "7B4D842D-CA8D-4153-9CDE-FADFBE419175";
name = Bold;
paths = (
{
closed = 1;
nodes = (
"75 0 LINE",
"217 0 LINE",
"217 464 LINE",
"395 464 LINE",
"395 54 LINE",
"234 -201 LINE",
"389 -201 LINE",
"537 34 LINE",
"537 464 LINE",
"635 464 LINE",
"635 576 LINE",
"75 576 LINE"
);
}
);
width = 645;
}
);
unicode = 0BB0;
}
{
glyphname = tmTen;
layers = (
{
layerId = "25BA55F5-DD3E-4682-A696-ADF7D9496427";
name = Light;
paths = (
{
closed = 1;
nodes = (
"548 718 LINE",
"613 616 OFFCURVE",
"689 452 OFFCURVE",
"689 286 CURVE",
"689 164 OFFCURVE",
"667 44 OFFCURVE",
"556 44 CURVE SMOOTH",
"480 44 OFFCURVE",
"445 108 OFFCURVE",
"445 180 CURVE SMOOTH",
"445 543 LINE",
"387 543 LINE",
"387 180 LINE SMOOTH",
"387 95 OFFCURVE",
"346 44 OFFCURVE",
"270 44 CURVE SMOOTH",
"192 44 OFFCURVE",
"157 95 OFFCURVE",
"157 180 CURVE SMOOTH",
"157 543 LINE",
"99 543 LINE",
"99 180 LINE SMOOTH",
"99 66 OFFCURVE",
"156 -10 OFFCURVE",
"265 -10 CURVE SMOOTH",
"352 -10 OFFCURVE",
"401 38 OFFCURVE",
"416 93 CURVE",
"433 35 OFFCURVE",
"485 -10 OFFCURVE",
"556 -10 CURVE SMOOTH",
"698 -10 OFFCURVE",
"749 122 OFFCURVE",
"749 286 CURVE",
"749 461 OFFCURVE",
"674 630 OFFCURVE",
"616 718 CURVE"
);
}
);
width = 824;
},
{
layerId = "7B4D842D-CA8D-4153-9CDE-FADFBE419175";
name = Bold;
paths = (
{
closed = 1;
nodes = (
"528 766 LINE",
"587 659 OFFCURVE",
"662 488 OFFCURVE",
"662 322 CURVE",
"662 212 OFFCURVE",
"646 102 OFFCURVE",
"567 102 CURVE SMOOTH",
"526 102 OFFCURVE",
"497 130 OFFCURVE",
"497 176 CURVE",
"497 576 LINE",
"355 576 LINE",
"355 176 LINE SMOOTH",
"355 127 OFFCURVE",
"329 102 OFFCURVE",
"287 102 CURVE SMOOTH",
"247 102 OFFCURVE",
"218 126 OFFCURVE",
"218 175 CURVE SMOOTH",
"218 576 LINE",
"75 576 LINE",
"75 184 LINE SMOOTH",
"75 60 OFFCURVE",
"144 -10 OFFCURVE",
"269 -10 CURVE",
"367 -10 OFFCURVE",
"413 48 OFFCURVE",
"426 99 CURVE",
"438 47 OFFCURVE",
"486 -10 OFFCURVE",
"577 -10 CURVE SMOOTH",
"740 -10 OFFCURVE",
"807 127 OFFCURVE",
"807 322 CURVE",
"807 515 OFFCURVE",
"728 677 OFFCURVE",
"684 766 CURVE"
);
}
);
width = 872;
}
);
unicode = 0BF0;
}
{
glyphname = tmYear;
layers = (
{
background = {
paths = (
{
closed = 1;
nodes = (
"1079 0 LINE",
"1079 55 LINE",
"788 55 LINE",
"737 49 LINE",
"737 0 LINE"
);
},
{
closed = 1;
nodes = (
"399 553 OFFCURVE",
"288 427 OFFCURVE",
"288 236 CURVE SMOOTH",
"288 94 OFFCURVE",
"364 -10 OFFCURVE",
"482 -10 CURVE SMOOTH",
"582 -10 OFFCURVE",
"649 61 OFFCURVE",
"649 152 CURVE SMOOTH",
"649 252 OFFCURVE",
"573 314 OFFCURVE",
"486 314 CURVE SMOOTH",
"397 314 OFFCURVE",
"336 259 OFFCURVE",
"336 180 CURVE",
"346 176 LINE",
"342 191 OFFCURVE",
"341 210 OFFCURVE",
"341 237 CURVE SMOOTH",
"341 363 OFFCURVE",
"415 498 OFFCURVE",
"578 498 CURVE",
"725 498 OFFCURVE",
"812 406 OFFCURVE",
"812 268 CURVE SMOOTH",
"812 176 OFFCURVE",
"775 97 OFFCURVE",
"737 49 CURVE",
"794 35 LINE",
"837 76 OFFCURVE",
"874 174 OFFCURVE",
"874 268 CURVE SMOOTH",
"874 422 OFFCURVE",
"772 553 OFFCURVE",
"579 553 CURVE"
);
},
{
closed = 1;
nodes = (
"415 44 OFFCURVE",
"371 87 OFFCURVE",
"371 152 CURVE SMOOTH",
"371 217 OFFCURVE",
"414 260 OFFCURVE",
"480 260 CURVE SMOOTH",
"545 260 OFFCURVE",
"589 217 OFFCURVE",
"589 152 CURVE SMOOTH",
"589 87 OFFCURVE",
"546 44 OFFCURVE",
"481 44 CURVE SMOOTH"
);
},
{
closed = 1;
nodes = (
"1402 489 LINE",
"1502 489 LINE",
"1502 543 LINE",
"1052 543 LINE",
"1052 0 LINE",
"1114 0 LINE",
"1114 489 LINE",
"1340 489 LINE",
"1340 0 LINE",
"1402 0 LINE"
);
},
{
closed = 1;
nodes = (
"1710 281 OFFCURVE",
"1637 357 OFFCURVE",
"1536 357 CURVE SMOOTH",
"1466 357 OFFCURVE",
"1420 315 OFFCURVE",
"1402 281 CURVE",
"1402 170 LINE",
"1402 246 OFFCURVE",
"1456 303 OFFCURVE",
"1524 303 CURVE SMOOTH",
"1594 303 OFFCURVE",
"1648 260 OFFCURVE",
"1648 156 CURVE",
"1648 -47 OFFCURVE",
"1429 -237 OFFCURVE",
"903 -237 CURVE SMOOTH",
"451 -237 OFFCURVE",
"98 -97 OFFCURVE",
"98 255 CURVE SMOOTH",
"98 539 OFFCURVE",
"389 744 OFFCURVE",
"921 744 CURVE SMOOTH",
"1505 744 OFFCURVE",
"1778 571 OFFCURVE",
"1816 282 CURVE SMOOTH",
"1827 199 LINE SMOOTH",
"1841 91 OFFCURVE",
"1892 -12 OFFCURVE",
"2013 -12 CURVE SMOOTH",
"2129 -12 OFFCURVE",
"2200 78 OFFCURVE",
"2200 280 CURVE SMOOTH",
"2200 389 OFFCURVE",
"2160 500 OFFCURVE",
"2139 531 CURVE",
"2075 531 LINE",
"2093 509 OFFCURVE",
"2143 393 OFFCURVE",
"2143 282 CURVE SMOOTH",
"2143 118 OFFCURVE",
"2099 40 OFFCURVE",
"2014 40 CURVE SMOOTH",
"1934 40 OFFCURVE",
"1898 105 OFFCURVE",
"1882 211 CURVE SMOOTH",
"1868 304 LINE SMOOTH",
"1821 618 OFFCURVE",
"1510 798 OFFCURVE",
"921 798 CURVE SMOOTH",
"362 798 OFFCURVE",
"40 575 OFFCURVE",
"40 255 CURVE SMOOTH",
"40 -106 OFFCURVE",
"388 -291 OFFCURVE",
"903 -291 CURVE SMOOTH",
"1454 -291 OFFCURVE",
"1710 -86 OFFCURVE",
"1710 154 CURVE"
);
}
);
};
layerId = "25BA55F5-DD3E-4682-A696-ADF7D9496427";
name = Light;
paths = (
{
closed = 1;
nodes = (
"1079 0 LINE",
"1079 55 LINE",
"788 55 LINE",
"737 49 LINE",
"737 0 LINE"
);
},
{
closed = 1;
nodes = (
"399 553 OFFCURVE",
"288 427 OFFCURVE",
"288 236 CURVE SMOOTH",
"288 94 OFFCURVE",
"364 -10 OFFCURVE",
"482 -10 CURVE SMOOTH",
"582 -10 OFFCURVE",
"649 61 OFFCURVE",
"649 152 CURVE SMOOTH",
"649 252 OFFCURVE",
"573 314 OFFCURVE",
"486 314 CURVE SMOOTH",
"397 314 OFFCURVE",
"336 259 OFFCURVE",
"336 180 CURVE",
"346 176 LINE",
"342 191 OFFCURVE",
"341 210 OFFCURVE",
"341 237 CURVE SMOOTH",
"341 363 OFFCURVE",
"415 498 OFFCURVE",
"578 498 CURVE",
"725 498 OFFCURVE",
"812 406 OFFCURVE",
"812 268 CURVE SMOOTH",
"812 176 OFFCURVE",
"775 97 OFFCURVE",
"737 49 CURVE",
"794 35 LINE",
"837 76 OFFCURVE",
"874 174 OFFCURVE",
"874 268 CURVE SMOOTH",
"874 422 OFFCURVE",
"772 553 OFFCURVE",
"579 553 CURVE"
);
},
{
closed = 1;
nodes = (
"415 44 OFFCURVE",
"371 87 OFFCURVE",
"371 152 CURVE SMOOTH",
"371 217 OFFCURVE",
"414 260 OFFCURVE",
"480 260 CURVE SMOOTH",
"545 260 OFFCURVE",
"589 217 OFFCURVE",
"589 152 CURVE SMOOTH",
"589 87 OFFCURVE",
"546 44 OFFCURVE",
"481 44 CURVE SMOOTH"
);
},
{
closed = 1;
nodes = (
"1402 0 LINE",
"1402 489 LINE",
"1502 489 LINE",
"1502 543 LINE",
"1052 543 LINE",
"1052 0 LINE",
"1114 0 LINE",
"1114 489 LINE",
"1340 489 LINE",
"1340 0 LINE"
);
},
{
closed = 1;
nodes = (
"1505 744 OFFCURVE",
"1778 571 OFFCURVE",
"1816 282 CURVE SMOOTH",
"1827 199 LINE SMOOTH",
"1841 91 OFFCURVE",
"1883 -12 OFFCURVE",
"2004 -12 CURVE SMOOTH",
"2127 -12 OFFCURVE",
"2178 119 OFFCURVE",
"2178 281 CURVE SMOOTH",
"2178 360 OFFCURVE",
"2160 465 OFFCURVE",
"2125 543 CURVE",
"2066 543 LINE",
"2094 479 OFFCURVE",
"2124 363 OFFCURVE",
"2123 282 CURVE SMOOTH",
"2121 158 OFFCURVE",
"2097 40 OFFCURVE",
"2005 40 CURVE SMOOTH",
"1925 40 OFFCURVE",
"1898 105 OFFCURVE",
"1882 211 CURVE SMOOTH",
"1868 304 LINE SMOOTH",
"1821 618 OFFCURVE",
"1510 798 OFFCURVE",
"921 798 CURVE SMOOTH",
"362 798 OFFCURVE",
"40 575 OFFCURVE",
"40 255 CURVE SMOOTH",
"40 -106 OFFCURVE",
"388 -291 OFFCURVE",
"903 -291 CURVE SMOOTH",
"1454 -291 OFFCURVE",
"1710 -86 OFFCURVE",
"1710 154 CURVE",
"1710 281 OFFCURVE",
"1637 357 OFFCURVE",
"1536 357 CURVE SMOOTH",
"1466 357 OFFCURVE",
"1420 315 OFFCURVE",
"1402 281 CURVE",
"1402 170 LINE",
"1402 246 OFFCURVE",
"1456 303 OFFCURVE",
"1524 303 CURVE SMOOTH",
"1594 303 OFFCURVE",
"1648 260 OFFCURVE",
"1648 156 CURVE",
"1648 -47 OFFCURVE",
"1429 -237 OFFCURVE",
"903 -237 CURVE SMOOTH",
"451 -237 OFFCURVE",
"98 -97 OFFCURVE",
"98 255 CURVE SMOOTH",
"98 539 OFFCURVE",
"389 744 OFFCURVE",
"921 744 CURVE SMOOTH"
);
}
);
width = 2248;
},
{
background = {
paths = (
{
closed = 1;
nodes = (
"1180 0 LINE",
"1180 112 LINE",
"908 112 LINE",
"833 92 LINE",
"833 0 LINE"
);
},
{
closed = 1;
nodes = (
"458 586 OFFCURVE",
"344 431 OFFCURVE",
"344 260 CURVE",
"345 104 OFFCURVE",
"438 -10 OFFCURVE",
"576 -10 CURVE SMOOTH",
"696 -10 OFFCURVE",
"772 66 OFFCURVE",
"772 172 CURVE SMOOTH",
"772 277 OFFCURVE",
"703 346 OFFCURVE",
"609 346 CURVE SMOOTH",
"539 346 OFFCURVE",
"479 301 OFFCURVE",
"471 255 CURVE",
"480 232 LINE",
"478 240 OFFCURVE",
"477 250 OFFCURVE",
"477 258 CURVE SMOOTH",
"477 386 OFFCURVE",
"546 474 OFFCURVE",
"680 474 CURVE",
"824 474 OFFCURVE",
"888 384 OFFCURVE",
"888 274 CURVE",
"888 206 OFFCURVE",
"868 141 OFFCURVE",
"833 92 CURVE",
"937 59 LINE",
"997 113 OFFCURVE",
"1023 192 OFFCURVE",
"1023 274 CURVE",
"1025 454 OFFCURVE",
"887 586 OFFCURVE",
"682 586 CURVE"
);
},
{
closed = 1;
nodes = (
"538 104 OFFCURVE",
"509 128 OFFCURVE",
"509 171 CURVE SMOOTH",
"509 214 OFFCURVE",
"538 238 OFFCURVE",
"576 238 CURVE SMOOTH",
"616 238 OFFCURVE",
"643 214 OFFCURVE",
"643 171 CURVE SMOOTH",
"643 128 OFFCURVE",
"616 104 OFFCURVE",
"576 104 CURVE SMOOTH"
);
},
{
closed = 1;
nodes = (
"1597 0 LINE",
"1597 464 LINE",
"1695 464 LINE",
"1695 576 LINE",
"1135 576 LINE",
"1135 0 LINE",
"1277 0 LINE",
"1277 464 LINE",
"1455 464 LINE",
"1455 0 LINE"
);
},
{
closed = 1;
nodes = (
"1453 754 OFFCURVE",
"1944 705 OFFCURVE",
"1984 340 CURVE",
"1995 234 LINE SMOOTH",
"2008 107 OFFCURVE",
"2072 0 OFFCURVE",
"2227 0 CURVE SMOOTH",
"2405 0 OFFCURVE",
"2474 150 OFFCURVE",
"2474 313 CURVE SMOOTH",
"2474 388 OFFCURVE",
"2461 491 OFFCURVE",
"2436 576 CURVE",
"2296 576 LINE",
"2326 500 OFFCURVE",
"2338 383 OFFCURVE",
"2338 315 CURVE SMOOTH",
"2338 209 OFFCURVE",
"2311 120 OFFCURVE",
"2227 120 CURVE SMOOTH",
"2159 120 OFFCURVE",
"2130 173 OFFCURVE",
"2121 256 CURVE SMOOTH",
"2108 375 LINE",
"2069 742 OFFCURVE",
"1616 876 OFFCURVE",
"1024 876 CURVE",
"465 876 OFFCURVE",
"45 670 OFFCURVE",
"45 282 CURVE",
"45 -123 OFFCURVE",
"445 -309 OFFCURVE",
"994 -309 CURVE",
"1515 -309 OFFCURVE",
"1914 -167 OFFCURVE",
"1914 150 CURVE",
"1914 271 OFFCURVE",
"1844 374 OFFCURVE",
"1735 374 CURVE SMOOTH",
"1662 374 OFFCURVE",
"1618 328 OFFCURVE",
"1596 283 CURVE",
"1596 137 LINE",
"1596 213 OFFCURVE",
"1630 256 OFFCURVE",
"1686 256 CURVE SMOOTH",
"1736 256 OFFCURVE",
"1769 211 OFFCURVE",
"1769 147 CURVE",
"1769 -107 OFFCURVE",
"1423 -187 OFFCURVE",
"994 -187 CURVE",
"539 -187 OFFCURVE",
"187 -61 OFFCURVE",
"187 282 CURVE",
"187 613 OFFCURVE",
"559 754 OFFCURVE",
"1024 754 CURVE"
);
}
);
};
layerId = "7B4D842D-CA8D-4153-9CDE-FADFBE419175";
name = Bold;
paths = (
{
closed = 1;
nodes = (
"1180 0 LINE",
"1180 112 LINE",
"908 112 LINE",
"833 92 LINE",
"833 0 LINE"
);
},
{
closed = 1;
nodes = (
"458 586 OFFCURVE",
"344 431 OFFCURVE",
"344 260 CURVE",
"345 104 OFFCURVE",
"438 -10 OFFCURVE",
"576 -10 CURVE SMOOTH",
"696 -10 OFFCURVE",
"772 66 OFFCURVE",
"772 172 CURVE SMOOTH",
"772 277 OFFCURVE",
"703 346 OFFCURVE",
"609 346 CURVE SMOOTH",
"539 346 OFFCURVE",
"479 301 OFFCURVE",
"471 255 CURVE",
"480 232 LINE",
"478 240 OFFCURVE",
"477 250 OFFCURVE",
"477 258 CURVE SMOOTH",
"477 386 OFFCURVE",
"546 474 OFFCURVE",
"680 474 CURVE",
"824 474 OFFCURVE",
"888 384 OFFCURVE",
"888 274 CURVE",
"888 206 OFFCURVE",
"868 141 OFFCURVE",
"833 92 CURVE",
"937 59 LINE",
"997 113 OFFCURVE",
"1023 192 OFFCURVE",
"1023 274 CURVE",
"1025 454 OFFCURVE",
"887 586 OFFCURVE",
"682 586 CURVE"
);
},
{
closed = 1;
nodes = (
"538 104 OFFCURVE",
"509 128 OFFCURVE",
"509 171 CURVE SMOOTH",
"509 214 OFFCURVE",
"538 238 OFFCURVE",
"576 238 CURVE SMOOTH",
"616 238 OFFCURVE",
"643 214 OFFCURVE",
"643 171 CURVE SMOOTH",
"643 128 OFFCURVE",
"616 104 OFFCURVE",
"576 104 CURVE SMOOTH"
);
},
{
closed = 1;
nodes = (
"1597 0 LINE",
"1597 464 LINE",
"1695 464 LINE",
"1695 576 LINE",
"1135 576 LINE",
"1135 0 LINE",
"1277 0 LINE",
"1277 464 LINE",
"1455 464 LINE",
"1455 0 LINE"
);
},
{
closed = 1;
nodes = (
"1473 754 OFFCURVE",
"1947 687 OFFCURVE",
"1988 293 CURVE SMOOTH",
"1996 217 LINE SMOOTH",
"2009 91 OFFCURVE",
"2072 0 OFFCURVE",
"2207 0 CURVE SMOOTH",
"2377 0 OFFCURVE",
"2435 158 OFFCURVE",
"2435 313 CURVE SMOOTH",
"2435 388 OFFCURVE",
"2422 491 OFFCURVE",
"2397 576 CURVE",
"2257 576 LINE",
"2287 500 OFFCURVE",
"2299 383 OFFCURVE",
"2299 315 CURVE SMOOTH",
"2299 217 OFFCURVE",
"2281 120 OFFCURVE",
"2207 120 CURVE SMOOTH",
"2154 120 OFFCURVE",
"2130 162 OFFCURVE",
"2123 228 CURVE SMOOTH",
"2114 318 LINE SMOOTH",
"2074 716 OFFCURVE",
"1616 876 OFFCURVE",
"1024 876 CURVE",
"465 876 OFFCURVE",
"45 670 OFFCURVE",
"45 282 CURVE",
"45 -123 OFFCURVE",
"445 -309 OFFCURVE",
"994 -309 CURVE",
"1515 -309 OFFCURVE",
"1914 -167 OFFCURVE",
"1914 150 CURVE",
"1914 271 OFFCURVE",
"1844 374 OFFCURVE",
"1735 374 CURVE SMOOTH",
"1662 374 OFFCURVE",
"1618 328 OFFCURVE",
"1596 283 CURVE",
"1596 137 LINE",
"1596 213 OFFCURVE",
"1630 256 OFFCURVE",
"1686 256 CURVE SMOOTH",
"1736 256 OFFCURVE",
"1769 211 OFFCURVE",
"1769 147 CURVE",
"1769 -107 OFFCURVE",
"1423 -187 OFFCURVE",
"994 -187 CURVE",
"539 -187 OFFCURVE",
"187 -61 OFFCURVE",
"187 282 CURVE",
"187 613 OFFCURVE",
"559 754 OFFCURVE",
"1024 754 CURVE"
);
}
);
width = 2495;
},
{
associatedMasterId = "7B4D842D-CA8D-4153-9CDE-FADFBE419175";
background = {
paths = (
{
closed = 1;
nodes = (
"1180 0 LINE",
"1180 112 LINE",
"908 112 LINE",
"833 92 LINE",
"833 0 LINE"
);
},
{
closed = 1;
nodes = (
"458 586 OFFCURVE",
"344 431 OFFCURVE",
"344 260 CURVE",
"345 104 OFFCURVE",
"438 -10 OFFCURVE",
"576 -10 CURVE SMOOTH",
"696 -10 OFFCURVE",
"772 66 OFFCURVE",
"772 172 CURVE SMOOTH",
"772 277 OFFCURVE",
"703 346 OFFCURVE",
"609 346 CURVE SMOOTH",
"539 346 OFFCURVE",
"479 301 OFFCURVE",
"471 255 CURVE",
"480 232 LINE",
"478 240 OFFCURVE",
"477 250 OFFCURVE",
"477 258 CURVE SMOOTH",
"477 386 OFFCURVE",
"546 474 OFFCURVE",
"680 474 CURVE",
"824 474 OFFCURVE",
"888 384 OFFCURVE",
"888 274 CURVE",
"888 206 OFFCURVE",
"868 141 OFFCURVE",
"833 92 CURVE",
"937 59 LINE",
"997 113 OFFCURVE",
"1023 192 OFFCURVE",
"1023 274 CURVE",
"1025 454 OFFCURVE",
"887 586 OFFCURVE",
"682 586 CURVE"
);
},
{
closed = 1;
nodes = (
"538 104 OFFCURVE",
"509 128 OFFCURVE",
"509 171 CURVE SMOOTH",
"509 214 OFFCURVE",
"538 238 OFFCURVE",
"576 238 CURVE SMOOTH",
"616 238 OFFCURVE",
"643 214 OFFCURVE",
"643 171 CURVE SMOOTH",
"643 128 OFFCURVE",
"616 104 OFFCURVE",
"576 104 CURVE SMOOTH"
);
},
{
closed = 1;
nodes = (
"1597 0 LINE",
"1597 464 LINE",
"1695 464 LINE",
"1695 576 LINE",
"1135 576 LINE",
"1135 0 LINE",
"1277 0 LINE",
"1277 464 LINE",
"1455 464 LINE",
"1455 0 LINE"
);
},
{
closed = 1;
nodes = (
"1453 754 OFFCURVE",
"1944 705 OFFCURVE",
"1984 340 CURVE",
"1995 234 LINE SMOOTH",
"2008 107 OFFCURVE",
"2072 0 OFFCURVE",
"2227 0 CURVE SMOOTH",
"2405 0 OFFCURVE",
"2474 150 OFFCURVE",
"2474 313 CURVE SMOOTH",
"2474 388 OFFCURVE",
"2461 491 OFFCURVE",
"2436 576 CURVE",
"2296 576 LINE",
"2326 500 OFFCURVE",
"2338 383 OFFCURVE",
"2338 315 CURVE SMOOTH",
"2338 209 OFFCURVE",
"2311 120 OFFCURVE",
"2227 120 CURVE SMOOTH",
"2159 120 OFFCURVE",
"2130 173 OFFCURVE",
"2121 256 CURVE SMOOTH",
"2108 375 LINE",
"2069 742 OFFCURVE",
"1616 876 OFFCURVE",
"1024 876 CURVE",
"465 876 OFFCURVE",
"45 670 OFFCURVE",
"45 282 CURVE",
"45 -123 OFFCURVE",
"445 -309 OFFCURVE",
"994 -309 CURVE",
"1515 -309 OFFCURVE",
"1914 -167 OFFCURVE",
"1914 150 CURVE",
"1914 271 OFFCURVE",
"1844 374 OFFCURVE",
"1735 374 CURVE SMOOTH",
"1662 374 OFFCURVE",
"1618 328 OFFCURVE",
"1596 283 CURVE",
"1596 137 LINE",
"1596 213 OFFCURVE",
"1630 256 OFFCURVE",
"1686 256 CURVE SMOOTH",
"1736 256 OFFCURVE",
"1769 211 OFFCURVE",
"1769 147 CURVE",
"1769 -107 OFFCURVE",
"1423 -187 OFFCURVE",
"994 -187 CURVE",
"539 -187 OFFCURVE",
"187 -61 OFFCURVE",
"187 282 CURVE",
"187 613 OFFCURVE",
"559 754 OFFCURVE",
"1024 754 CURVE"
);
}
);
};
layerId = "08DFA8F6-75E2-4213-8C5A-8752E7842192";
name = "Bold May 5 15, 13:45";
paths = (
{
closed = 1;
nodes = (
"1180 0 LINE",
"1180 112 LINE",
"908 112 LINE",
"833 92 LINE",
"833 0 LINE"
);
},
{
closed = 1;
nodes = (
"458 586 OFFCURVE",
"344 431 OFFCURVE",
"344 260 CURVE",
"345 104 OFFCURVE",
"438 -10 OFFCURVE",
"576 -10 CURVE SMOOTH",
"696 -10 OFFCURVE",
"772 66 OFFCURVE",
"772 172 CURVE SMOOTH",
"772 277 OFFCURVE",
"703 346 OFFCURVE",
"609 346 CURVE SMOOTH",
"539 346 OFFCURVE",
"479 301 OFFCURVE",
"471 255 CURVE",
"480 232 LINE",
"478 240 OFFCURVE",
"477 250 OFFCURVE",
"477 258 CURVE SMOOTH",
"477 386 OFFCURVE",
"546 474 OFFCURVE",
"680 474 CURVE",
"824 474 OFFCURVE",
"888 384 OFFCURVE",
"888 274 CURVE",
"888 206 OFFCURVE",
"868 141 OFFCURVE",
"833 92 CURVE",
"937 59 LINE",
"997 113 OFFCURVE",
"1023 192 OFFCURVE",
"1023 274 CURVE",
"1025 454 OFFCURVE",
"887 586 OFFCURVE",
"682 586 CURVE"
);
},
{
closed = 1;
nodes = (
"538 104 OFFCURVE",
"509 128 OFFCURVE",
"509 171 CURVE SMOOTH",
"509 214 OFFCURVE",
"538 238 OFFCURVE",
"576 238 CURVE SMOOTH",
"616 238 OFFCURVE",
"643 214 OFFCURVE",
"643 171 CURVE SMOOTH",
"643 128 OFFCURVE",
"616 104 OFFCURVE",
"576 104 CURVE SMOOTH"
);
},
{
closed = 1;
nodes = (
"1597 0 LINE",
"1597 464 LINE",
"1695 464 LINE",
"1695 576 LINE",
"1135 576 LINE",
"1135 0 LINE",
"1277 0 LINE",
"1277 464 LINE",
"1455 464 LINE",
"1455 0 LINE"
);
},
{
closed = 1;
nodes = (
"1453 754 OFFCURVE",
"1944 685 OFFCURVE",
"1984 320 CURVE SMOOTH",
"2004 136 OFFCURVE",
"2066 0 OFFCURVE",
"2238 0 CURVE SMOOTH",
"2409 0 OFFCURVE",
"2474 150 OFFCURVE",
"2474 313 CURVE SMOOTH",
"2474 388 OFFCURVE",
"2461 491 OFFCURVE",
"2436 576 CURVE",
"2296 576 LINE",
"2326 500 OFFCURVE",
"2338 383 OFFCURVE",
"2338 315 CURVE SMOOTH",
"2338 209 OFFCURVE",
"2315 120 OFFCURVE",
"2238 120 CURVE SMOOTH",
"2162 120 OFFCURVE",
"2125 191 OFFCURVE",
"2108 355 CURVE SMOOTH",
"2069 722 OFFCURVE",
"1616 876 OFFCURVE",
"1024 876 CURVE",
"465 876 OFFCURVE",
"45 670 OFFCURVE",
"45 282 CURVE",
"45 -123 OFFCURVE",
"445 -309 OFFCURVE",
"994 -309 CURVE",
"1515 -309 OFFCURVE",
"1914 -167 OFFCURVE",
"1914 150 CURVE",
"1914 271 OFFCURVE",
"1844 374 OFFCURVE",
"1735 374 CURVE SMOOTH",
"1662 374 OFFCURVE",
"1618 328 OFFCURVE",
"1596 283 CURVE",
"1596 137 LINE",
"1596 213 OFFCURVE",
"1630 256 OFFCURVE",
"1686 256 CURVE SMOOTH",
"1736 256 OFFCURVE",
"1769 211 OFFCURVE",
"1769 147 CURVE",
"1769 -107 OFFCURVE",
"1423 -187 OFFCURVE",
"994 -187 CURVE",
"539 -187 OFFCURVE",
"187 -61 OFFCURVE",
"187 282 CURVE",
"187 613 OFFCURVE",
"559 754 OFFCURVE",
"1024 754 CURVE"
);
}
);
width = 2539;
}
);
unicode = 0BF5;
}
{
glyphname = tmmE;
layers = (
{
background = {
paths = (
{
closed = 1;
nodes = (
"680 0 LINE",
"680 546 LINE",
"680 691 OFFCURVE",
"603 807 OFFCURVE",
"435 807 CURVE",
"192 807 OFFCURVE",
"75 561 OFFCURVE",
"75 338 CURVE SMOOTH",
"75 179 OFFCURVE",
"130 -10 OFFCURVE",
"302 -10 CURVE SMOOTH",
"402 -10 OFFCURVE",
"471 61 OFFCURVE",
"471 152 CURVE SMOOTH",
"471 252 OFFCURVE",
"394 314 OFFCURVE",
"308 314 CURVE SMOOTH",
"228 314 OFFCURVE",
"149 259 OFFCURVE",
"150 175 CURVE",
"157 181 LINE",
"145 220 OFFCURVE",
"135 270 OFFCURVE",
"135 338 CURVE SMOOTH",
"135 552 OFFCURVE",
"246 752 OFFCURVE",
"434 752 CURVE",
"551 752 OFFCURVE",
"618 677 OFFCURVE",
"618 546 CURVE",
"618 0 LINE"
);
},
{
closed = 1;
nodes = (
"236 44 OFFCURVE",
"193 87 OFFCURVE",
"193 152 CURVE SMOOTH",
"193 217 OFFCURVE",
"236 260 OFFCURVE",
"302 260 CURVE SMOOTH",
"367 260 OFFCURVE",
"411 217 OFFCURVE",
"411 152 CURVE SMOOTH",
"411 87 OFFCURVE",
"367 44 OFFCURVE",
"302 44 CURVE SMOOTH"
);
}
);
};
layerId = "25BA55F5-DD3E-4682-A696-ADF7D9496427";
name = Light;
paths = (
{
closed = 1;
nodes = (
"680 0 LINE",
"680 546 LINE",
"680 691 OFFCURVE",
"603 807 OFFCURVE",
"435 807 CURVE",
"180 807 OFFCURVE",
"75 561 OFFCURVE",
"75 338 CURVE SMOOTH",
"75 179 OFFCURVE",
"130 -10 OFFCURVE",
"302 -10 CURVE SMOOTH",
"407 -10 OFFCURVE",
"478 65 OFFCURVE",
"478 160 CURVE SMOOTH",
"478 265 OFFCURVE",
"398 330 OFFCURVE",
"308 330 CURVE SMOOTH",
"216 330 OFFCURVE",
"144 268 OFFCURVE",
"145 184 CURVE",
"157 181 LINE",
"145 220 OFFCURVE",
"135 270 OFFCURVE",
"135 338 CURVE SMOOTH",
"135 552 OFFCURVE",
"234 752 OFFCURVE",
"434 752 CURVE",
"551 752 OFFCURVE",
"618 677 OFFCURVE",
"618 546 CURVE",
"618 0 LINE"
);
},
{
closed = 1;
nodes = (
"232 46 OFFCURVE",
"187 92 OFFCURVE",
"187 160 CURVE SMOOTH",
"187 228 OFFCURVE",
"232 274 OFFCURVE",
"302 274 CURVE SMOOTH",
"370 274 OFFCURVE",
"416 228 OFFCURVE",
"416 160 CURVE SMOOTH",
"416 92 OFFCURVE",
"370 46 OFFCURVE",
"302 46 CURVE SMOOTH"
);
}
);
width = 775;
},
{
background = {
paths = (
{
closed = 1;
nodes = (
"770 0 LINE",
"770 535 LINE SMOOTH",
"770 717 OFFCURVE",
"644 822 OFFCURVE",
"460 822 CURVE SMOOTH",
"203 822 OFFCURVE",
"55 640 OFFCURVE",
"55 368 CURVE",
"56 162 OFFCURVE",
"158 -13 OFFCURVE",
"346 -13 CURVE SMOOTH",
"468 -13 OFFCURVE",
"539 68 OFFCURVE",
"539 174 CURVE SMOOTH",
"539 282 OFFCURVE",
"458 357 OFFCURVE",
"356 357 CURVE SMOOTH",
"266 357 OFFCURVE",
"180 288 OFFCURVE",
"198 182 CURVE",
"242 189 LINE",
"213 229 OFFCURVE",
"198 286 OFFCURVE",
"198 368 CURVE",
"198 577 OFFCURVE",
"297 710 OFFCURVE",
"460 710 CURVE SMOOTH",
"570 710 OFFCURVE",
"628 640 OFFCURVE",
"628 531 CURVE SMOOTH",
"628 0 LINE"
);
},
{
closed = 1;
nodes = (
"298 101 OFFCURVE",
"273 133 OFFCURVE",
"273 173 CURVE SMOOTH",
"273 213 OFFCURVE",
"298 245 OFFCURVE",
"341 245 CURVE SMOOTH",
"385 245 OFFCURVE",
"410 213 OFFCURVE",
"410 173 CURVE SMOOTH",
"410 133 OFFCURVE",
"385 101 OFFCURVE",
"341 101 CURVE SMOOTH"
);
}
);
};
layerId = "7B4D842D-CA8D-4153-9CDE-FADFBE419175";
name = Bold;
paths = (
{
closed = 1;
nodes = (
"770 0 LINE",
"770 535 LINE SMOOTH",
"770 717 OFFCURVE",
"645 822 OFFCURVE",
"461 822 CURVE SMOOTH",
"204 822 OFFCURVE",
"55 619 OFFCURVE",
"55 360 CURVE",
"56 172 OFFCURVE",
"148 -13 OFFCURVE",
"346 -13 CURVE SMOOTH",
"468 -13 OFFCURVE",
"539 68 OFFCURVE",
"539 174 CURVE SMOOTH",
"539 282 OFFCURVE",
"458 357 OFFCURVE",
"356 357 CURVE SMOOTH",
"266 357 OFFCURVE",
"180 288 OFFCURVE",
"198 182 CURVE",
"242 189 LINE",
"213 229 OFFCURVE",
"198 278 OFFCURVE",
"198 360 CURVE",
"198 556 OFFCURVE",
"298 710 OFFCURVE",
"461 710 CURVE SMOOTH",
"571 710 OFFCURVE",
"628 640 OFFCURVE",
"628 531 CURVE SMOOTH",
"628 0 LINE"
);
},
{
closed = 1;
nodes = (
"298 101 OFFCURVE",
"273 133 OFFCURVE",
"273 173 CURVE SMOOTH",
"273 213 OFFCURVE",
"298 245 OFFCURVE",
"341 245 CURVE SMOOTH",
"385 245 OFFCURVE",
"410 213 OFFCURVE",
"410 173 CURVE SMOOTH",
"410 133 OFFCURVE",
"385 101 OFFCURVE",
"341 101 CURVE SMOOTH"
);
}
);
width = 845;
},
{
associatedMasterId = "7B4D842D-CA8D-4153-9CDE-FADFBE419175";
background = {
paths = (
{
closed = 1;
nodes = (
"775 0 LINE",
"775 541 LINE SMOOTH",
"775 723 OFFCURVE",
"664 822 OFFCURVE",
"470 822 CURVE SMOOTH",
"213 822 OFFCURVE",
"60 640 OFFCURVE",
"60 368 CURVE",
"61 162 OFFCURVE",
"163 -13 OFFCURVE",
"351 -13 CURVE SMOOTH",
"471 -13 OFFCURVE",
"544 63 OFFCURVE",
"544 169 CURVE SMOOTH",
"544 277 OFFCURVE",
"461 343 OFFCURVE",
"367 343 CURVE SMOOTH",
"277 343 OFFCURVE",
"195 270 OFFCURVE",
"222 164 CURVE",
"249 167 LINE",
"216 197 OFFCURVE",
"203 286 OFFCURVE",
"203 368 CURVE",
"203 577 OFFCURVE",
"307 710 OFFCURVE",
"470 710 CURVE SMOOTH",
"585 710 OFFCURVE",
"633 646 OFFCURVE",
"633 537 CURVE SMOOTH",
"633 0 LINE"
);
},
{
closed = 1;
nodes = (
"303 101 OFFCURVE",
"278 128 OFFCURVE",
"278 168 CURVE SMOOTH",
"278 208 OFFCURVE",
"303 235 OFFCURVE",
"346 235 CURVE SMOOTH",
"390 235 OFFCURVE",
"415 208 OFFCURVE",
"415 168 CURVE SMOOTH",
"415 128 OFFCURVE",
"390 101 OFFCURVE",
"346 101 CURVE SMOOTH"
);
}
);
};
layerId = "4FC01ABA-D35B-4678-A6D8-CB19DD823668";
name = "Bold Apr 15 15, 02:48";
paths = (
{
closed = 1;
nodes = (
"52 165 OFFCURVE",
"152 -10 OFFCURVE",
"342 -10 CURVE SMOOTH",
"475 -10 OFFCURVE",
"544 63 OFFCURVE",
"544 169 CURVE SMOOTH",
"544 277 OFFCURVE",
"471 346 OFFCURVE",
"368 346 CURVE SMOOTH",
"330 346 OFFCURVE",
"298 341 OFFCURVE",
"271 331 CURVE",
"271 223 LINE",
"293 230 OFFCURVE",
"320 235 OFFCURVE",
"345 235 CURVE SMOOTH",
"391 235 OFFCURVE",
"416 210 OFFCURVE",
"416 169 CURVE SMOOTH",
"416 128 OFFCURVE",
"390 102 OFFCURVE",
"343 102 CURVE SMOOTH",
"239 102 OFFCURVE",
"195 230 OFFCURVE",
"195 368 CURVE",
"195 577 OFFCURVE",
"299 710 OFFCURVE",
"462 710 CURVE SMOOTH",
"577 710 OFFCURVE",
"633 646 OFFCURVE",
"633 537 CURVE SMOOTH",
"633 0 LINE",
"775 0 LINE",
"775 541 LINE SMOOTH",
"775 723 OFFCURVE",
"656 822 OFFCURVE",
"462 822 CURVE SMOOTH",
"205 822 OFFCURVE",
"52 640 OFFCURVE",
"52 368 CURVE"
);
}
);
width = 850;
},
{
associatedMasterId = "25BA55F5-DD3E-4682-A696-ADF7D9496427";
layerId = "E5297D88-1953-4058-8C1B-ACDE1393F3FD";
name = "Light Apr 15 15, 02:50";
paths = (
{
closed = 1;
nodes = (
"641 0 LINE",
"641 559 LINE",
"641 694 OFFCURVE",
"599 807 OFFCURVE",
"431 807 CURVE",
"188 807 OFFCURVE",
"65 553 OFFCURVE",
"65 330 CURVE SMOOTH",
"65 171 OFFCURVE",
"120 -10 OFFCURVE",
"282 -10 CURVE SMOOTH",
"382 -10 OFFCURVE",
"451 61 OFFCURVE",
"451 152 CURVE SMOOTH",
"451 252 OFFCURVE",
"374 314 OFFCURVE",
"288 314 CURVE SMOOTH",
"218 314 OFFCURVE",
"143 269 OFFCURVE",
"136 185 CURVE",
"141 184 LINE",
"133 219 OFFCURVE",
"125 262 OFFCURVE",
"125 330 CURVE SMOOTH",
"125 544 OFFCURVE",
"242 752 OFFCURVE",
"430 752 CURVE",
"547 752 OFFCURVE",
"579 680 OFFCURVE",
"579 559 CURVE",
"579 0 LINE"
);
},
{
closed = 1;
nodes = (
"216 44 OFFCURVE",
"173 87 OFFCURVE",
"173 152 CURVE SMOOTH",
"173 217 OFFCURVE",
"216 260 OFFCURVE",
"282 260 CURVE SMOOTH",
"347 260 OFFCURVE",
"391 217 OFFCURVE",
"391 152 CURVE SMOOTH",
"391 87 OFFCURVE",
"347 44 OFFCURVE",
"282 44 CURVE SMOOTH"
);
}
);
width = 736;
},
{
associatedMasterId = "7B4D842D-CA8D-4153-9CDE-FADFBE419175";
background = {
paths = (
{
closed = 1;
nodes = (
"770 0 LINE",
"770 535 LINE SMOOTH",
"770 717 OFFCURVE",
"644 822 OFFCURVE",
"460 822 CURVE SMOOTH",
"203 822 OFFCURVE",
"55 640 OFFCURVE",
"55 368 CURVE",
"56 162 OFFCURVE",
"158 -13 OFFCURVE",
"346 -13 CURVE SMOOTH",
"468 -13 OFFCURVE",
"539 68 OFFCURVE",
"539 174 CURVE SMOOTH",
"539 282 OFFCURVE",
"458 357 OFFCURVE",
"356 357 CURVE SMOOTH",
"266 357 OFFCURVE",
"180 288 OFFCURVE",
"198 182 CURVE",
"242 189 LINE",
"213 229 OFFCURVE",
"198 286 OFFCURVE",
"198 368 CURVE",
"198 577 OFFCURVE",
"297 710 OFFCURVE",
"460 710 CURVE SMOOTH",
"570 710 OFFCURVE",
"628 640 OFFCURVE",
"628 531 CURVE SMOOTH",
"628 0 LINE"
);
},
{
closed = 1;
nodes = (
"298 101 OFFCURVE",
"273 133 OFFCURVE",
"273 173 CURVE SMOOTH",
"273 213 OFFCURVE",
"298 245 OFFCURVE",
"341 245 CURVE SMOOTH",
"385 245 OFFCURVE",
"410 213 OFFCURVE",
"410 173 CURVE SMOOTH",
"410 133 OFFCURVE",
"385 101 OFFCURVE",
"341 101 CURVE SMOOTH"
);
}
);
};
layerId = "D51C9E05-3340-464D-9E51-431BEB777EDD";
name = "Bold Apr 24 15, 02:37";
paths = (
{
closed = 1;
nodes = (
"770 0 LINE",
"770 535 LINE SMOOTH",
"770 717 OFFCURVE",
"644 822 OFFCURVE",
"460 822 CURVE SMOOTH",
"203 822 OFFCURVE",
"55 640 OFFCURVE",
"55 368 CURVE",
"56 162 OFFCURVE",
"158 -13 OFFCURVE",
"346 -13 CURVE SMOOTH",
"468 -13 OFFCURVE",
"539 68 OFFCURVE",
"539 174 CURVE SMOOTH",
"539 282 OFFCURVE",
"458 353 OFFCURVE",
"362 353 CURVE SMOOTH",
"272 353 OFFCURVE",
"193 281 OFFCURVE",
"211 175 CURVE",
"244 172 LINE",
"211 202 OFFCURVE",
"198 286 OFFCURVE",
"198 368 CURVE",
"198 577 OFFCURVE",
"297 710 OFFCURVE",
"460 710 CURVE SMOOTH",
"570 710 OFFCURVE",
"628 640 OFFCURVE",
"628 531 CURVE SMOOTH",
"628 0 LINE"
);
},
{
closed = 1;
nodes = (
"298 101 OFFCURVE",
"273 133 OFFCURVE",
"273 173 CURVE SMOOTH",
"273 213 OFFCURVE",
"298 245 OFFCURVE",
"341 245 CURVE SMOOTH",
"385 245 OFFCURVE",
"410 213 OFFCURVE",
"410 173 CURVE SMOOTH",
"410 133 OFFCURVE",
"385 101 OFFCURVE",
"341 101 CURVE SMOOTH"
);
}
);
width = 845;
}
);
unicode = 0BC6;
}
{
glyphname = tmmI;
layers = (
{
layerId = "25BA55F5-DD3E-4682-A696-ADF7D9496427";
name = Light;
paths = (
{
closed = 1;
nodes = (
"153 0 LINE",
"153 552 LINE SMOOTH",
"153 685 OFFCURVE",
"50 776 OFFCURVE",
"-90 776 CURVE SMOOTH",
"-191 776 OFFCURVE",
"-265 719 OFFCURVE",
"-265 630 CURVE SMOOTH",
"-265 553 OFFCURVE",
"-214 502 OFFCURVE",
"-121 500 CURVE",
"-121 543 LINE",
"-179 543 OFFCURVE",
"-207 575 OFFCURVE",
"-207 627 CURVE SMOOTH",
"-207 692 OFFCURVE",
"-155 722 OFFCURVE",
"-90 722 CURVE SMOOTH",
"22 722 OFFCURVE",
"95 655 OFFCURVE",
"95 551 CURVE SMOOTH",
"95 0 LINE"
);
}
);
width = 248;
},
{
background = {
paths = (
{
closed = 1;
nodes = (
"-82 576 LINE",
"-131 576 OFFCURVE",
"-156 600 OFFCURVE",
"-156 635 CURVE SMOOTH",
"-156 680 OFFCURVE",
"-117 701 OFFCURVE",
"-62 701 CURVE SMOOTH",
"26 701 OFFCURVE",
"75 651 OFFCURVE",
"75 564 CURVE SMOOTH",
"75 0 LINE",
"217 0 LINE",
"217 564 LINE SMOOTH",
"217 710 OFFCURVE",
"114 813 OFFCURVE",
"-63 813 CURVE SMOOTH",
"-198 813 OFFCURVE",
"-292 746 OFFCURVE",
"-292 641 CURVE SMOOTH",
"-292 546 OFFCURVE",
"-194 491 OFFCURVE",
"-82 492 CURVE"
);
}
);
};
layerId = "7B4D842D-CA8D-4153-9CDE-FADFBE419175";
name = Bold;
paths = (
{
closed = 1;
nodes = (
"217 0 LINE",
"217 564 LINE SMOOTH",
"217 710 OFFCURVE",
"114 813 OFFCURVE",
"-63 813 CURVE SMOOTH",
"-198 813 OFFCURVE",
"-292 746 OFFCURVE",
"-292 641 CURVE SMOOTH",
"-292 546 OFFCURVE",
"-194 491 OFFCURVE",
"-82 492 CURVE",
"-82 576 LINE",
"-131 576 OFFCURVE",
"-156 600 OFFCURVE",
"-156 635 CURVE SMOOTH",
"-156 680 OFFCURVE",
"-117 701 OFFCURVE",
"-62 701 CURVE SMOOTH",
"26 701 OFFCURVE",
"75 651 OFFCURVE",
"75 564 CURVE SMOOTH",
"75 0 LINE"
);
}
);
width = 292;
}
);
unicode = 0BBF;
}
{
glyphname = tmmII;
layers = (
{
background = {
paths = (
{
closed = 1;
nodes = (
"-123 543 LINE",
"-199 543 OFFCURVE",
"-250 596 OFFCURVE",
"-250 683 CURVE SMOOTH",
"-250 769 OFFCURVE",
"-199 816 OFFCURVE",
"-134 821 CURVE",
"-134 835 LINE",
"-168 819 OFFCURVE",
"-184 793 OFFCURVE",
"-184 750 CURVE SMOOTH",
"-184 684 OFFCURVE",
"-138 634 OFFCURVE",
"-63 634 CURVE SMOOTH",
"12 634 OFFCURVE",
"57 689 OFFCURVE",
"57 751 CURVE SMOOTH",
"57 825 OFFCURVE",
"-2 877 OFFCURVE",
"-100 877 CURVE SMOOTH",
"-216 877 OFFCURVE",
"-308 810 OFFCURVE",
"-308 683 CURVE SMOOTH",
"-308 570 OFFCURVE",
"-230 515 OFFCURVE",
"-147 507 CURVE"
);
},
{
closed = 1;
nodes = (
"-105 687 OFFCURVE",
"-129 715 OFFCURVE",
"-129 752 CURVE SMOOTH",
"-129 790 OFFCURVE",
"-105 818 OFFCURVE",
"-64 818 CURVE SMOOTH",
"-23 818 OFFCURVE",
"1 790 OFFCURVE",
"1 752 CURVE SMOOTH",
"1 715 OFFCURVE",
"-23 687 OFFCURVE",
"-64 687 CURVE SMOOTH"
);
}
);
};
layerId = "25BA55F5-DD3E-4682-A696-ADF7D9496427";
name = Light;
paths = (
{
closed = 1;
nodes = (
"-29 824 OFFCURVE",
"-6 788 OFFCURVE",
"-6 750 CURVE SMOOTH",
"-6 713 OFFCURVE",
"-30 689 OFFCURVE",
"-64 689 CURVE SMOOTH",
"-107 689 OFFCURVE",
"-134 717 OFFCURVE",
"-134 777 CURVE SMOOTH",
"-134 800 OFFCURVE",
"-131 817 OFFCURVE",
"-127 835 CURVE",
"-175 828 LINE",
"-182 807 OFFCURVE",
"-186 783 OFFCURVE",
"-186 764 CURVE SMOOTH",
"-186 689 OFFCURVE",
"-139 637 OFFCURVE",
"-65 637 CURVE SMOOTH",
"10 637 OFFCURVE",
"50 687 OFFCURVE",
"50 749 CURVE SMOOTH",
"50 823 OFFCURVE",
"-3 875 OFFCURVE",
"-101 875 CURVE SMOOTH",
"-217 875 OFFCURVE",
"-312 800 OFFCURVE",
"-312 683 CURVE SMOOTH",
"-312 570 OFFCURVE",
"-228 517 OFFCURVE",
"-140 517 CURVE",
"-123 543 LINE",
"-199 543 OFFCURVE",
"-254 596 OFFCURVE",
"-254 683 CURVE SMOOTH",
"-254 769 OFFCURVE",
"-186 824 OFFCURVE",
"-100 824 CURVE"
);
}
);
width = 0;
},
{
background = {
paths = (
{
closed = 1;
nodes = (
"-187 828 LINE",
"-195 809 OFFCURVE",
"-198 790 OFFCURVE",
"-198 771 CURVE SMOOTH",
"-198 700 OFFCURVE",
"-143 634 OFFCURVE",
"-50 634 CURVE SMOOTH",
"41 634 OFFCURVE",
"98 689 OFFCURVE",
"98 768 CURVE SMOOTH",
"98 862 OFFCURVE",
"20 924 OFFCURVE",
"-98 924 CURVE SMOOTH",
"-257 924 OFFCURVE",
"-375 840 OFFCURVE",
"-375 704 CURVE SMOOTH",
"-375 586 OFFCURVE",
"-270 545 OFFCURVE",
"-138 545 CURVE",
"-110 576 LINE",
"-184 576 OFFCURVE",
"-253 614 OFFCURVE",
"-253 697 CURVE SMOOTH",
"-253 774 OFFCURVE",
"-188 826 OFFCURVE",
"-98 826 CURVE",
"-40 826 OFFCURVE",
"-8 803 OFFCURVE",
"-8 769 CURVE SMOOTH",
"-8 744 OFFCURVE",
"-23 728 OFFCURVE",
"-50 728 CURVE SMOOTH",
"-87 728 OFFCURVE",
"-110 758 OFFCURVE",
"-110 811 CURVE SMOOTH",
"-110 819 OFFCURVE",
"-109 827 OFFCURVE",
"-108 836 CURVE"
);
}
);
};
layerId = "7B4D842D-CA8D-4153-9CDE-FADFBE419175";
name = Bold;
paths = (
{
closed = 1;
nodes = (
"-40 826 OFFCURVE",
"-8 803 OFFCURVE",
"-8 769 CURVE SMOOTH",
"-8 744 OFFCURVE",
"-23 728 OFFCURVE",
"-50 728 CURVE SMOOTH",
"-87 728 OFFCURVE",
"-110 758 OFFCURVE",
"-110 811 CURVE SMOOTH",
"-110 819 OFFCURVE",
"-109 827 OFFCURVE",
"-108 836 CURVE",
"-187 828 LINE",
"-195 809 OFFCURVE",
"-198 790 OFFCURVE",
"-198 771 CURVE SMOOTH",
"-198 700 OFFCURVE",
"-143 634 OFFCURVE",
"-50 634 CURVE SMOOTH",
"41 634 OFFCURVE",
"98 689 OFFCURVE",
"98 768 CURVE SMOOTH",
"98 862 OFFCURVE",
"20 924 OFFCURVE",
"-98 924 CURVE SMOOTH",
"-257 924 OFFCURVE",
"-373 837 OFFCURVE",
"-373 707 CURVE SMOOTH",
"-373 595 OFFCURVE",
"-270 545 OFFCURVE",
"-138 545 CURVE",
"-110 576 LINE",
"-194 576 OFFCURVE",
"-253 614 OFFCURVE",
"-253 689 CURVE SMOOTH",
"-253 774 OFFCURVE",
"-188 826 OFFCURVE",
"-98 826 CURVE"
);
}
);
width = 0;
},
{
associatedMasterId = "25BA55F5-DD3E-4682-A696-ADF7D9496427";
background = {
paths = (
{
closed = 1;
nodes = (
"-123 543 LINE",
"-199 543 OFFCURVE",
"-250 596 OFFCURVE",
"-250 683 CURVE SMOOTH",
"-250 769 OFFCURVE",
"-199 816 OFFCURVE",
"-134 821 CURVE",
"-134 835 LINE",
"-168 819 OFFCURVE",
"-184 793 OFFCURVE",
"-184 750 CURVE SMOOTH",
"-184 684 OFFCURVE",
"-138 634 OFFCURVE",
"-63 634 CURVE SMOOTH",
"12 634 OFFCURVE",
"57 689 OFFCURVE",
"57 751 CURVE SMOOTH",
"57 825 OFFCURVE",
"-2 877 OFFCURVE",
"-100 877 CURVE SMOOTH",
"-216 877 OFFCURVE",
"-308 810 OFFCURVE",
"-308 683 CURVE SMOOTH",
"-308 570 OFFCURVE",
"-230 515 OFFCURVE",
"-147 507 CURVE"
);
},
{
closed = 1;
nodes = (
"-105 687 OFFCURVE",
"-129 715 OFFCURVE",
"-129 752 CURVE SMOOTH",
"-129 790 OFFCURVE",
"-105 818 OFFCURVE",
"-64 818 CURVE SMOOTH",
"-23 818 OFFCURVE",
"1 790 OFFCURVE",
"1 752 CURVE SMOOTH",
"1 715 OFFCURVE",
"-23 687 OFFCURVE",
"-64 687 CURVE SMOOTH"
);
}
);
};
layerId = "54D20F11-5C77-45D0-BA78-6888CE95DFAF";
name = "Light May 5 15, 15:36";
paths = (
{
closed = 1;
nodes = (
"-40 543 LINE",
"-177 535 OFFCURVE",
"-250 596 OFFCURVE",
"-250 698 CURVE SMOOTH",
"-250 759 OFFCURVE",
"-218 806 OFFCURVE",
"-171 829 CURVE",
"-207 753 OFFCURVE",
"-170 649 OFFCURVE",
"-63 649 CURVE SMOOTH",
"12 649 OFFCURVE",
"57 704 OFFCURVE",
"57 766 CURVE SMOOTH",
"57 824 OFFCURVE",
"10 894 OFFCURVE",
"-102 894 CURVE SMOOTH",
"-210 894 OFFCURVE",
"-308 819 OFFCURVE",
"-308 698 CURVE SMOOTH",
"-308 577 OFFCURVE",
"-221 481 OFFCURVE",
"-40 495 CURVE"
);
},
{
closed = 1;
nodes = (
"-130 702 OFFCURVE",
"-148 773 OFFCURVE",
"-118 843 CURVE",
"-114 844 OFFCURVE",
"-109 844 OFFCURVE",
"-104 844 CURVE SMOOTH",
"-32 844 OFFCURVE",
"1 805 OFFCURVE",
"1 766 CURVE SMOOTH",
"1 723 OFFCURVE",
"-28 701 OFFCURVE",
"-63 701 CURVE SMOOTH"
);
}
);
width = 0;
}
);
unicode = 0BC0;
}
{
glyphname = tmmU;
layers = (
{
background = {
paths = (
{
closed = 1;
nodes = (
"70 496 LINE",
"39 466 OFFCURVE",
"25 421 OFFCURVE",
"25 379 CURVE SMOOTH",
"25 285 OFFCURVE",
"95 209 OFFCURVE",
"197 209 CURVE SMOOTH",
"306 209 OFFCURVE",
"366 293 OFFCURVE",
"366 379 CURVE SMOOTH",
"366 495 OFFCURVE",
"270 543 OFFCURVE",
"168 543 CURVE",
"-256 543 LINE",
"-256 489 LINE",
"168 489 LINE",
"249 489 OFFCURVE",
"306 460 OFFCURVE",
"306 379 CURVE SMOOTH",
"306 319 OFFCURVE",
"270 263 OFFCURVE",
"196 263 CURVE SMOOTH",
"125 263 OFFCURVE",
"87 315 OFFCURVE",
"87 379 CURVE SMOOTH",
"87 422 OFFCURVE",
"106 469 OFFCURVE",
"141 496 CURVE"
);
}
);
};
layerId = "25BA55F5-DD3E-4682-A696-ADF7D9496427";
name = Light;
paths = (
{
closed = 1;
nodes = (
"42 469 OFFCURVE",
"25 418 OFFCURVE",
"25 376 CURVE SMOOTH",
"25 275 OFFCURVE",
"95 209 OFFCURVE",
"197 209 CURVE SMOOTH",
"306 209 OFFCURVE",
"366 293 OFFCURVE",
"366 379 CURVE SMOOTH",
"366 479 OFFCURVE",
"290 543 OFFCURVE",
"188 543 CURVE",
"-256 543 LINE",
"-256 489 LINE",
"102 489 LINE",
"83 499 LINE"
);
},
{
closed = 1;
nodes = (
"128 264 OFFCURVE",
"86 312 OFFCURVE",
"86 377 CURVE SMOOTH",
"86 442 OFFCURVE",
"128 490 OFFCURVE",
"196 490 CURVE SMOOTH",
"264 490 OFFCURVE",
"306 442 OFFCURVE",
"306 377 CURVE SMOOTH",
"306 312 OFFCURVE",
"264 264 OFFCURVE",
"196 264 CURVE SMOOTH"
);
}
);
width = 0;
},
{
background = {
paths = (
{
closed = 1;
nodes = (
"24 534 LINE",
"17 510 OFFCURVE",
"14 484 OFFCURVE",
"14 457 CURVE",
"15 314 OFFCURVE",
"99 216 OFFCURVE",
"237 216 CURVE",
"357 216 OFFCURVE",
"427 292 OFFCURVE",
"427 398 CURVE SMOOTH",
"427 513 OFFCURVE",
"331 576 OFFCURVE",
"217 576 CURVE",
"-202 576 LINE",
"-202 464 LINE",
"202 464 LINE",
"265 463 OFFCURVE",
"298 440 OFFCURVE",
"298 397 CURVE SMOOTH",
"298 357 OFFCURVE",
"277 330 OFFCURVE",
"237 330 CURVE SMOOTH",
"175 330 OFFCURVE",
"147 383 OFFCURVE",
"147 455 CURVE SMOOTH",
"147 486 OFFCURVE",
"152 512 OFFCURVE",
"161 534 CURVE"
);
}
);
};
layerId = "7B4D842D-CA8D-4153-9CDE-FADFBE419175";
name = Bold;
paths = (
{
closed = 1;
nodes = (
"39 464 OFFCURVE",
"25 426 OFFCURVE",
"25 391 CURVE",
"26 278 OFFCURVE",
"108 216 OFFCURVE",
"221 216 CURVE",
"341 216 OFFCURVE",
"425 291 OFFCURVE",
"425 397 CURVE SMOOTH",
"425 512 OFFCURVE",
"331 576 OFFCURVE",
"217 576 CURVE",
"-202 576 LINE",
"-202 464 LINE",
"86 464 LINE",
"54 477 LINE"
);
},
{
closed = 1;
nodes = (
"185 330 OFFCURVE",
"157 357 OFFCURVE",
"157 398 CURVE SMOOTH",
"157 439 OFFCURVE",
"185 466 OFFCURVE",
"227 466 CURVE SMOOTH",
"269 466 OFFCURVE",
"297 439 OFFCURVE",
"297 398 CURVE SMOOTH",
"297 357 OFFCURVE",
"269 330 OFFCURVE",
"227 330 CURVE SMOOTH"
);
}
);
width = 0;
},
{
associatedMasterId = "25BA55F5-DD3E-4682-A696-ADF7D9496427";
background = {
paths = (
{
closed = 1;
nodes = (
"70 496 LINE",
"39 466 OFFCURVE",
"25 421 OFFCURVE",
"25 379 CURVE SMOOTH",
"25 285 OFFCURVE",
"95 209 OFFCURVE",
"197 209 CURVE SMOOTH",
"306 209 OFFCURVE",
"366 293 OFFCURVE",
"366 379 CURVE SMOOTH",
"366 495 OFFCURVE",
"270 543 OFFCURVE",
"168 543 CURVE",
"-256 543 LINE",
"-256 489 LINE",
"168 489 LINE",
"249 489 OFFCURVE",
"306 460 OFFCURVE",
"306 379 CURVE SMOOTH",
"306 319 OFFCURVE",
"270 263 OFFCURVE",
"196 263 CURVE SMOOTH",
"125 263 OFFCURVE",
"87 315 OFFCURVE",
"87 379 CURVE SMOOTH",
"87 422 OFFCURVE",
"106 469 OFFCURVE",
"141 496 CURVE"
);
}
);
};
layerId = "48153537-F833-48AE-88C5-5455FF402F13";
name = "Light Apr 30 15, 23:28";
paths = (
{
closed = 1;
nodes = (
"41 514 LINE",
"30 482 OFFCURVE",
"25 447 OFFCURVE",
"25 410 CURVE SMOOTH",
"25 290 OFFCURVE",
"100 209 OFFCURVE",
"207 209 CURVE SMOOTH",
"313 209 OFFCURVE",
"366 293 OFFCURVE",
"366 379 CURVE SMOOTH",
"366 495 OFFCURVE",
"270 543 OFFCURVE",
"168 543 CURVE",
"-256 543 LINE",
"-256 489 LINE",
"168 489 LINE",
"249 489 OFFCURVE",
"306 460 OFFCURVE",
"306 379 CURVE SMOOTH",
"306 319 OFFCURVE",
"277 263 OFFCURVE",
"206 263 CURVE SMOOTH",
"130 263 OFFCURVE",
"87 328 OFFCURVE",
"87 410 CURVE SMOOTH",
"87 448 OFFCURVE",
"93 483 OFFCURVE",
"104 514 CURVE"
);
}
);
width = 0;
}
);
unicode = 0BC1;
}
{
glyphname = tmmUU;
layers = (
{
background = {
paths = (
{
closed = 1;
nodes = (
"-256 489 LINE",
"168 489 LINE",
"249 489 OFFCURVE",
"306 460 OFFCURVE",
"306 379 CURVE SMOOTH",
"306 319 OFFCURVE",
"277 263 OFFCURVE",
"206 263 CURVE SMOOTH",
"130 263 OFFCURVE",
"87 328 OFFCURVE",
"87 410 CURVE SMOOTH",
"87 543 OFFCURVE",
"157 647 OFFCURVE",
"310 647 CURVE",
"437 647 OFFCURVE",
"531 578 OFFCURVE",
"531 440 CURVE SMOOTH",
"531 358 OFFCURVE",
"508 290 OFFCURVE",
"472 219 CURVE",
"538 219 LINE",
"576 289 OFFCURVE",
"593 354 OFFCURVE",
"593 440 CURVE SMOOTH",
"593 594 OFFCURVE",
"484 702 OFFCURVE",
"311 702 CURVE",
"133 702 OFFCURVE",
"25 577 OFFCURVE",
"25 410 CURVE SMOOTH",
"25 290 OFFCURVE",
"100 209 OFFCURVE",
"207 209 CURVE SMOOTH",
"313 209 OFFCURVE",
"366 293 OFFCURVE",
"366 379 CURVE SMOOTH",
"366 495 OFFCURVE",
"270 543 OFFCURVE",
"168 543 CURVE",
"-256 543 LINE"
);
}
);
};
layerId = "25BA55F5-DD3E-4682-A696-ADF7D9496427";
name = Light;
paths = (
{
closed = 1;
nodes = (
"492 242 LINE",
"520 301 OFFCURVE",
"538 361 OFFCURVE",
"538 435 CURVE SMOOTH",
"538 554 OFFCURVE",
"451 667 OFFCURVE",
"287 667 CURVE",
"139 667 OFFCURVE",
"36 570 OFFCURVE",
"36 414 CURVE SMOOTH",
"36 312 OFFCURVE",
"102 244 OFFCURVE",
"193 244 CURVE SMOOTH",
"288 244 OFFCURVE",
"340 315 OFFCURVE",
"340 395 CURVE SMOOTH",
"340 493 OFFCURVE",
"254 543 OFFCURVE",
"160 543 CURVE",
"-196 543 LINE",
"-196 489 LINE",
"160 489 LINE",
"233 489 OFFCURVE",
"280 458 OFFCURVE",
"280 395 CURVE SMOOTH",
"280 341 OFFCURVE",
"250 298 OFFCURVE",
"192 298 CURVE SMOOTH",
"132 298 OFFCURVE",
"98 345 OFFCURVE",
"98 414 CURVE SMOOTH",
"98 536 OFFCURVE",
"168 612 OFFCURVE",
"286 612 CURVE",
"404 612 OFFCURVE",
"476 538 OFFCURVE",
"476 435 CURVE SMOOTH",
"476 361 OFFCURVE",
"454 302 OFFCURVE",
"426 242 CURVE"
);
}
);
width = 0;
},
{
background = {
paths = (
{
closed = 1;
nodes = (
"-202 464 LINE",
"202 464 LINE",
"265 463 OFFCURVE",
"298 440 OFFCURVE",
"298 397 CURVE SMOOTH",
"298 357 OFFCURVE",
"277 330 OFFCURVE",
"237 330 CURVE SMOOTH",
"175 330 OFFCURVE",
"147 383 OFFCURVE",
"147 455 CURVE SMOOTH",
"147 577 OFFCURVE",
"223 630 OFFCURVE",
"337 630 CURVE",
"472 630 OFFCURVE",
"542 552 OFFCURVE",
"542 440 CURVE",
"542 364 OFFCURVE",
"513 276 OFFCURVE",
"473 214 CURVE",
"616 214 LINE",
"651 266 OFFCURVE",
"677 350 OFFCURVE",
"677 440 CURVE",
"679 622 OFFCURVE",
"545 742 OFFCURVE",
"339 742 CURVE",
"135 742 OFFCURVE",
"14 622 OFFCURVE",
"14 457 CURVE",
"15 314 OFFCURVE",
"99 216 OFFCURVE",
"237 216 CURVE",
"357 216 OFFCURVE",
"427 292 OFFCURVE",
"427 398 CURVE SMOOTH",
"427 513 OFFCURVE",
"331 576 OFFCURVE",
"217 576 CURVE",
"-202 576 LINE"
);
}
);
};
layerId = "7B4D842D-CA8D-4153-9CDE-FADFBE419175";
name = Bold;
paths = (
{
closed = 1;
nodes = (
"545 257 LINE",
"575 304 OFFCURVE",
"595 376 OFFCURVE",
"595 453 CURVE",
"597 618 OFFCURVE",
"484 721 OFFCURVE",
"303 721 CURVE",
"128 721 OFFCURVE",
"15 618 OFFCURVE",
"15 468 CURVE",
"16 348 OFFCURVE",
"88 260 OFFCURVE",
"210 260 CURVE",
"319 260 OFFCURVE",
"377 329 OFFCURVE",
"377 418 CURVE SMOOTH",
"377 522 OFFCURVE",
"302 576 OFFCURVE",
"199 576 CURVE",
"-181 576 LINE",
"-181 464 LINE",
"195 464 LINE",
"240 463 OFFCURVE",
"263 449 OFFCURVE",
"263 414 CURVE SMOOTH",
"263 384 OFFCURVE",
"243 363 OFFCURVE",
"210 363 CURVE SMOOTH",
"164 363 OFFCURVE",
"135 403 OFFCURVE",
"135 467 CURVE SMOOTH",
"135 577 OFFCURVE",
"207 619 OFFCURVE",
"301 619 CURVE",
"406 619 OFFCURVE",
"473 555 OFFCURVE",
"473 453 CURVE",
"473 387 OFFCURVE",
"449 312 OFFCURVE",
"415 257 CURVE"
);
}
);
width = 0;
}
);
unicode = 0BC2;
}
{
glyphname = yen;
layers = (
{
layerId = "7B4D842D-CA8D-4153-9CDE-FADFBE419175";
paths = (
{
closed = 1;
nodes = (
"66 271 LINE",
"66 361 LINE",
"283 361 LINE",
"283 271 LINE"
);
},
{
closed = 1;
nodes = (
"568 207 LINE",
"568 117 LINE",
"66 117 LINE",
"66 207 LINE"
);
},
{
closed = 1;
nodes = (
"9 655 LINE",
"189 655 LINE",
"315 409 LINE",
"447 655 LINE",
"626 655 LINE",
"378 226 LINE",
"254 226 LINE"
);
},
{
closed = 1;
nodes = (
"393 253 LINE",
"393 0 LINE",
"239 0 LINE",
"239 253 LINE"
);
},
{
closed = 1;
nodes = (
"347 271 LINE",
"347 361 LINE",
"568 361 LINE",
"568 271 LINE"
);
}
);
width = 635;
},
{
layerId = "25BA55F5-DD3E-4682-A696-ADF7D9496427";
paths = (
{
closed = 1;
nodes = (
"73 312 LINE",
"73 362 LINE",
"252 362 LINE",
"252 312 LINE"
);
},
{
closed = 1;
nodes = (
"493 217 LINE",
"493 167 LINE",
"73 167 LINE",
"73 217 LINE"
);
},
{
closed = 1;
nodes = (
"40 654 LINE",
"108 654 LINE",
"283 311 LINE",
"460 654 LINE",
"528 654 LINE",
"314 252 LINE",
"252 252 LINE"
);
},
{
closed = 1;
nodes = (
"314 272 LINE",
"314 0 LINE",
"252 0 LINE",
"252 272 LINE"
);
},
{
closed = 1;
nodes = (
"314 312 LINE",
"314 362 LINE",
"493 362 LINE",
"493 312 LINE"
);
}
);
width = 572;
}
);
unicode = 00A5;
}
{
glyphname = breve;
layers = (
{
layerId = "7B4D842D-CA8D-4153-9CDE-FADFBE419175";
paths = (
{
closed = 1;
nodes = (
"300 709 OFFCURVE",
"336 740 OFFCURVE",
"336 798 CURVE",
"448 798 LINE",
"448 667 OFFCURVE",
"360 617 OFFCURVE",
"250 617 CURVE",
"140 617 OFFCURVE",
"52 667 OFFCURVE",
"52 798 CURVE",
"164 798 LINE",
"164 740 OFFCURVE",
"200 709 OFFCURVE",
"250 709 CURVE SMOOTH"
);
}
);
width = 500;
},
{
layerId = "25BA55F5-DD3E-4682-A696-ADF7D9496427";
paths = (
{
closed = 1;
nodes = (
"279 693 OFFCURVE",
"303 743 OFFCURVE",
"303 798 CURVE",
"355 798 LINE",
"355 715 OFFCURVE",
"315 645 OFFCURVE",
"200 645 CURVE",
"85 645 OFFCURVE",
"45 715 OFFCURVE",
"45 798 CURVE",
"97 798 LINE",
"97 743 OFFCURVE",
"121 693 OFFCURVE",
"200 693 CURVE SMOOTH"
);
}
);
width = 400;
}
);
unicode = 02D8;
}
{
glyphname = ogonek;
layers = (
{
layerId = "7B4D842D-CA8D-4153-9CDE-FADFBE419175";
paths = (
{
closed = 1;
nodes = (
"373 -120 LINE",
"350 -136 OFFCURVE",
"322 -150 OFFCURVE",
"286 -150 CURVE SMOOTH",
"259 -150 OFFCURVE",
"243 -138 OFFCURVE",
"243 -116 CURVE SMOOTH",
"243 -72 OFFCURVE",
"303 -22 OFFCURVE",
"361 14 CURVE",
"312 78 LINE",
"254 53 OFFCURVE",
"127 -17 OFFCURVE",
"127 -129 CURVE SMOOTH",
"127 -192 OFFCURVE",
"165 -246 OFFCURVE",
"264 -246 CURVE SMOOTH",
"310 -246 OFFCURVE",
"344 -236 OFFCURVE",
"373 -221 CURVE"
);
}
);
width = 500;
},
{
layerId = "25BA55F5-DD3E-4682-A696-ADF7D9496427";
paths = (
{
closed = 1;
nodes = (
"295 -159 LINE",
"280 -170 OFFCURVE",
"253 -179 OFFCURVE",
"231 -179 CURVE SMOOTH",
"189 -179 OFFCURVE",
"161 -157 OFFCURVE",
"161 -114 CURVE SMOOTH",
"161 -60 OFFCURVE",
"210 -18 OFFCURVE",
"272 10 CURVE",
"246 41 LINE",
"174 17 OFFCURVE",
"105 -44 OFFCURVE",
"105 -119 CURVE SMOOTH",
"105 -180 OFFCURVE",
"148 -227 OFFCURVE",
"224 -227 CURVE SMOOTH",
"248 -227 OFFCURVE",
"275 -222 OFFCURVE",
"295 -209 CURVE"
);
}
);
width = 400;
}
);
unicode = 02DB;
}
{
glyphname = ring;
layers = (
{
layerId = "7B4D842D-CA8D-4153-9CDE-FADFBE419175";
paths = (
{
closed = 1;
nodes = (
"114 635 OFFCURVE",
"175 574 OFFCURVE",
"250 574 CURVE SMOOTH",
"325 574 OFFCURVE",
"386 635 OFFCURVE",
"386 710 CURVE SMOOTH",
"386 785 OFFCURVE",
"325 846 OFFCURVE",
"250 846 CURVE SMOOTH",
"175 846 OFFCURVE",
"114 785 OFFCURVE",
"114 710 CURVE SMOOTH"
);
},
{
closed = 1;
nodes = (
"197 742 OFFCURVE",
"218 769 OFFCURVE",
"250 769 CURVE SMOOTH",
"282 769 OFFCURVE",
"303 742 OFFCURVE",
"303 713 CURVE SMOOTH",
"303 684 OFFCURVE",
"282 657 OFFCURVE",
"250 657 CURVE SMOOTH",
"218 657 OFFCURVE",
"197 684 OFFCURVE",
"197 713 CURVE SMOOTH"
);
}
);
width = 500;
},
{
layerId = "25BA55F5-DD3E-4682-A696-ADF7D9496427";
paths = (
{
closed = 1;
nodes = (
"101 669 OFFCURVE",
"145 625 OFFCURVE",
"199 625 CURVE SMOOTH",
"254 625 OFFCURVE",
"298 669 OFFCURVE",
"298 723 CURVE SMOOTH",
"298 778 OFFCURVE",
"254 822 OFFCURVE",
"199 822 CURVE SMOOTH",
"145 822 OFFCURVE",
"101 778 OFFCURVE",
"101 723 CURVE SMOOTH"
);
},
{
closed = 1;
nodes = (
"146 753 OFFCURVE",
"170 777 OFFCURVE",
"199 777 CURVE SMOOTH",
"229 777 OFFCURVE",
"253 753 OFFCURVE",
"253 723 CURVE SMOOTH",
"253 694 OFFCURVE",
"229 670 OFFCURVE",
"199 670 CURVE SMOOTH",
"170 670 OFFCURVE",
"146 694 OFFCURVE",
"146 723 CURVE SMOOTH"
);
}
);
width = 400;
}
);
unicode = 02DA;
}
{
glyphname = slash;
layers = (
{
layerId = "7B4D842D-CA8D-4153-9CDE-FADFBE419175";
paths = (
{
closed = 1;
nodes = (
"149 -103 LINE",
"509 707 LINE",
"357 707 LINE",
"-2 -103 LINE"
);
}
);
width = 464;
},
{
layerId = "25BA55F5-DD3E-4682-A696-ADF7D9496427";
paths = (
{
closed = 1;
nodes = (
"50 -102 LINE",
"417 707 LINE",
"355 707 LINE",
"-11 -102 LINE"
);
}
);
width = 387;
}
);
unicode = 002F;
}
{
glyphname = colon;
layers = (
{
layerId = "7B4D842D-CA8D-4153-9CDE-FADFBE419175";
paths = (
{
closed = 1;
nodes = (
"55 370 OFFCURVE",
"94 331 OFFCURVE",
"143 331 CURVE SMOOTH",
"192 331 OFFCURVE",
"231 370 OFFCURVE",
"231 419 CURVE SMOOTH",
"231 468 OFFCURVE",
"192 507 OFFCURVE",
"143 507 CURVE SMOOTH",
"94 507 OFFCURVE",
"55 468 OFFCURVE",
"55 419 CURVE SMOOTH"
);
},
{
closed = 1;
nodes = (
"55 39 OFFCURVE",
"94 0 OFFCURVE",
"143 0 CURVE SMOOTH",
"192 0 OFFCURVE",
"231 39 OFFCURVE",
"231 88 CURVE SMOOTH",
"231 137 OFFCURVE",
"192 176 OFFCURVE",
"143 176 CURVE SMOOTH",
"94 176 OFFCURVE",
"55 137 OFFCURVE",
"55 88 CURVE SMOOTH"
);
}
);
width = 286;
},
{
layerId = "25BA55F5-DD3E-4682-A696-ADF7D9496427";
paths = (
{
closed = 1;
nodes = (
"60 340 OFFCURVE",
"81 319 OFFCURVE",
"110 319 CURVE SMOOTH",
"139 319 OFFCURVE",
"162 340 OFFCURVE",
"162 369 CURVE SMOOTH",
"162 397 OFFCURVE",
"139 420 OFFCURVE",
"110 420 CURVE SMOOTH",
"81 420 OFFCURVE",
"60 397 OFFCURVE",
"60 369 CURVE SMOOTH"
);
},
{
closed = 1;
nodes = (
"60 20 OFFCURVE",
"81 -1 OFFCURVE",
"110 -1 CURVE SMOOTH",
"139 -1 OFFCURVE",
"162 20 OFFCURVE",
"162 49 CURVE SMOOTH",
"162 77 OFFCURVE",
"139 100 OFFCURVE",
"110 100 CURVE SMOOTH",
"81 100 OFFCURVE",
"60 77 OFFCURVE",
"60 49 CURVE SMOOTH"
);
}
);
width = 222;
}
);
unicode = 003A;
}
{
glyphname = question;
layers = (
{
layerId = "7B4D842D-CA8D-4153-9CDE-FADFBE419175";
paths = (
{
closed = 1;
nodes = (
"106 544 OFFCURVE",
"150 560 OFFCURVE",
"195 560 CURVE SMOOTH",
"253 560 OFFCURVE",
"280 527 OFFCURVE",
"280 481 CURVE SMOOTH",
"280 421 OFFCURVE",
"238 387 OFFCURVE",
"126 387 CURVE",
"129 236 LINE",
"262 236 LINE",
"265 318 LINE",
"315 319 OFFCURVE",
"428 371 OFFCURVE",
"428 499 CURVE SMOOTH",
"428 613 OFFCURVE",
"341 682 OFFCURVE",
"218 682 CURVE SMOOTH",
"156 682 OFFCURVE",
"106 673 OFFCURVE",
"65 654 CURVE",
"65 517 LINE"
);
},
{
closed = 1;
nodes = (
"103 32 OFFCURVE",
"143 -8 OFFCURVE",
"194 -8 CURVE SMOOTH",
"245 -8 OFFCURVE",
"285 32 OFFCURVE",
"285 83 CURVE SMOOTH",
"285 134 OFFCURVE",
"245 174 OFFCURVE",
"194 174 CURVE SMOOTH",
"143 174 OFFCURVE",
"103 134 OFFCURVE",
"103 83 CURVE SMOOTH"
);
}
);
width = 458;
},
{
layerId = "25BA55F5-DD3E-4682-A696-ADF7D9496427";
paths = (
{
closed = 1;
nodes = (
"98 610 OFFCURVE",
"150 624 OFFCURVE",
"202 624 CURVE SMOOTH",
"302 624 OFFCURVE",
"346 569 OFFCURVE",
"346 500 CURVE SMOOTH",
"346 407 OFFCURVE",
"264 366 OFFCURVE",
"144 366 CURVE",
"144 196 LINE",
"205 196 LINE",
"205 312 LINE",
"308 322 OFFCURVE",
"410 377 OFFCURVE",
"410 499 CURVE SMOOTH",
"410 617 OFFCURVE",
"327 682 OFFCURVE",
"201 682 CURVE SMOOTH",
"137 682 OFFCURVE",
"73 660 OFFCURVE",
"40 638 CURVE",
"40 573 LINE"
);
},
{
closed = 1;
nodes = (
"123 13 OFFCURVE",
"144 -8 OFFCURVE",
"173 -8 CURVE SMOOTH",
"202 -8 OFFCURVE",
"225 13 OFFCURVE",
"225 42 CURVE SMOOTH",
"225 70 OFFCURVE",
"202 93 OFFCURVE",
"173 93 CURVE SMOOTH",
"144 93 OFFCURVE",
"123 70 OFFCURVE",
"123 42 CURVE SMOOTH"
);
}
);
width = 450;
}
);
unicode = 003F;
}
{
glyphname = semicolon;
layers = (
{
layerId = "7B4D842D-CA8D-4153-9CDE-FADFBE419175";
paths = (
{
closed = 1;
nodes = (
"73 370 OFFCURVE",
"112 331 OFFCURVE",
"161 331 CURVE SMOOTH",
"210 331 OFFCURVE",
"249 370 OFFCURVE",
"249 419 CURVE SMOOTH",
"249 468 OFFCURVE",
"210 507 OFFCURVE",
"161 507 CURVE SMOOTH",
"112 507 OFFCURVE",
"73 468 OFFCURVE",
"73 419 CURVE SMOOTH"
);
},
{
closed = 1;
nodes = (
"119 -127 LINE",
"255 134 LINE",
"94 134 LINE",
"-7 -127 LINE"
);
}
);
width = 294;
},
{
layerId = "25BA55F5-DD3E-4682-A696-ADF7D9496427";
paths = (
{
closed = 1;
nodes = (
"69 339 OFFCURVE",
"90 318 OFFCURVE",
"119 318 CURVE SMOOTH",
"148 318 OFFCURVE",
"171 339 OFFCURVE",
"171 368 CURVE SMOOTH",
"171 396 OFFCURVE",
"148 419 OFFCURVE",
"119 419 CURVE SMOOTH",
"90 419 OFFCURVE",
"69 396 OFFCURVE",
"69 368 CURVE SMOOTH"
);
},
{
closed = 1;
nodes = (
"46 -122 LINE",
"173 92 LINE",
"83 92 LINE",
"-8 -122 LINE"
);
}
);
width = 207;
}
);
unicode = 003B;
}
{
glyphname = O;
layers = (
{
layerId = "7B4D842D-CA8D-4153-9CDE-FADFBE419175";
paths = (
{
closed = 1;
nodes = (
"40 132 OFFCURVE",
"167 -7 OFFCURVE",
"368 -7 CURVE SMOOTH",
"568 -7 OFFCURVE",
"696 133 OFFCURVE",
"696 339 CURVE SMOOTH",
"696 546 OFFCURVE",
"569 685 OFFCURVE",
"368 685 CURVE SMOOTH",
"168 685 OFFCURVE",
"40 545 OFFCURVE",
"40 339 CURVE SMOOTH"
);
},
{
closed = 1;
nodes = (
"205 465 OFFCURVE",
"268 545 OFFCURVE",
"368 545 CURVE SMOOTH",
"468 545 OFFCURVE",
"531 465 OFFCURVE",
"531 339 CURVE SMOOTH",
"531 213 OFFCURVE",
"468 133 OFFCURVE",
"368 133 CURVE SMOOTH",
"268 133 OFFCURVE",
"205 213 OFFCURVE",
"205 339 CURVE SMOOTH"
);
}
);
width = 736;
},
{
layerId = "25BA55F5-DD3E-4682-A696-ADF7D9496427";
paths = (
{
closed = 1;
nodes = (
"50 128 OFFCURVE",
"169 -8 OFFCURVE",
"347 -8 CURVE SMOOTH",
"529 -8 OFFCURVE",
"641 128 OFFCURVE",
"641 340 CURVE SMOOTH",
"641 552 OFFCURVE",
"533 688 OFFCURVE",
"345 688 CURVE SMOOTH",
"164 688 OFFCURVE",
"50 552 OFFCURVE",
"50 340 CURVE SMOOTH"
);
},
{
closed = 1;
nodes = (
"114 519 OFFCURVE",
"200 628 OFFCURVE",
"345 628 CURVE SMOOTH",
"495 628 OFFCURVE",
"577 519 OFFCURVE",
"577 340 CURVE SMOOTH",
"577 161 OFFCURVE",
"495 52 OFFCURVE",
"347 52 CURVE SMOOTH",
"207 52 OFFCURVE",
"114 161 OFFCURVE",
"114 340 CURVE SMOOTH"
);
}
);
width = 691;
}
);
unicode = 004F;
}
{
glyphname = asciicircum;
layers = (
{
layerId = "7B4D842D-CA8D-4153-9CDE-FADFBE419175";
paths = (
{
closed = 1;
nodes = (
"168 332 LINE",
"307 594 LINE",
"184 594 LINE",
"33 332 LINE"
);
},
{
closed = 1;
nodes = (
"184 594 LINE",
"323 332 LINE",
"458 332 LINE",
"307 594 LINE"
);
}
);
width = 491;
},
{
layerId = "25BA55F5-DD3E-4682-A696-ADF7D9496427";
paths = (
{
closed = 1;
nodes = (
"112 332 LINE",
"247 594 LINE",
"188 594 LINE",
"48 332 LINE"
);
},
{
closed = 1;
nodes = (
"210 594 LINE",
"341 332 LINE",
"405 332 LINE",
"270 594 LINE"
);
}
);
width = 453;
}
);
unicode = 005E;
}
{
glyphname = backslash;
layers = (
{
layerId = "7B4D842D-CA8D-4153-9CDE-FADFBE419175";
paths = (
{
closed = 1;
nodes = (
"315 -103 LINE",
"-45 707 LINE",
"107 707 LINE",
"466 -103 LINE"
);
}
);
width = 464;
},
{
layerId = "25BA55F5-DD3E-4682-A696-ADF7D9496427";
paths = (
{
closed = 1;
nodes = (
"336 -103 LINE",
"-30 707 LINE",
"32 707 LINE",
"398 -103 LINE"
);
}
);
width = 386;
}
);
unicode = 005C;
}
{
glyphname = bracketleft;
layers = (
{
layerId = "7B4D842D-CA8D-4153-9CDE-FADFBE419175";
paths = (
{
closed = 1;
nodes = (
"203 -196 LINE",
"203 707 LINE",
"65 707 LINE",
"65 -196 LINE"
);
},
{
closed = 1;
nodes = (
"348 580 LINE",
"348 707 LINE",
"65 707 LINE",
"65 580 LINE"
);
},
{
closed = 1;
nodes = (
"348 -196 LINE",
"348 -68 LINE",
"65 -68 LINE",
"65 -196 LINE"
);
}
);
width = 363;
},
{
layerId = "25BA55F5-DD3E-4682-A696-ADF7D9496427";
paths = (
{
closed = 1;
nodes = (
"142 -179 LINE",
"142 707 LINE",
"80 707 LINE",
"80 -179 LINE"
);
},
{
closed = 1;
nodes = (
"296 652 LINE",
"296 707 LINE",
"80 707 LINE",
"80 652 LINE"
);
},
{
closed = 1;
nodes = (
"296 -179 LINE",
"296 -123 LINE",
"80 -123 LINE",
"80 -179 LINE"
);
}
);
width = 296;
}
);
unicode = 005B;
}
{
glyphname = bracketright;
layers = (
{
layerId = "7B4D842D-CA8D-4153-9CDE-FADFBE419175";
paths = (
{
closed = 1;
nodes = (
"160 -196 LINE",
"160 707 LINE",
"298 707 LINE",
"298 -196 LINE"
);
},
{
closed = 1;
nodes = (
"15 580 LINE",
"15 707 LINE",
"298 707 LINE",
"298 580 LINE"
);
},
{
closed = 1;
nodes = (
"15 -196 LINE",
"15 -68 LINE",
"298 -68 LINE",
"298 -196 LINE"
);
}
);
width = 363;
},
{
layerId = "25BA55F5-DD3E-4682-A696-ADF7D9496427";
paths = (
{
closed = 1;
nodes = (
"154 -179 LINE",
"154 707 LINE",
"216 707 LINE",
"216 -179 LINE"
);
},
{
closed = 1;
nodes = (
"0 652 LINE",
"0 707 LINE",
"216 707 LINE",
"216 652 LINE"
);
},
{
closed = 1;
nodes = (
"0 -179 LINE",
"0 -123 LINE",
"216 -123 LINE",
"216 -179 LINE"
);
}
);
width = 296;
}
);
unicode = 005D;
}
{
glyphname = j;
layers = (
{
layerId = "7B4D842D-CA8D-4153-9CDE-FADFBE419175";
paths = (
{
closed = 1;
nodes = (
"-7 -194 OFFCURVE",
"16 -198 OFFCURVE",
"39 -198 CURVE SMOOTH",
"155 -198 OFFCURVE",
"214 -125 OFFCURVE",
"214 -21 CURVE SMOOTH",
"214 507 LINE",
"69 507 LINE",
"69 -19 LINE SMOOTH",
"69 -68 OFFCURVE",
"47 -86 OFFCURVE",
"17 -86 CURVE SMOOTH",
"0 -86 OFFCURVE",
"-20 -80 OFFCURVE",
"-40 -71 CURVE",
"-40 -182 LINE"
);
},
{
closed = 1;
nodes = (
"56 607 OFFCURVE",
"94 569 OFFCURVE",
"141 569 CURVE SMOOTH",
"188 569 OFFCURVE",
"226 607 OFFCURVE",
"226 654 CURVE SMOOTH",
"226 701 OFFCURVE",
"188 739 OFFCURVE",
"141 739 CURVE SMOOTH",
"94 739 OFFCURVE",
"56 701 OFFCURVE",
"56 654 CURVE SMOOTH"
);
}
);
width = 274;
},
{
layerId = "25BA55F5-DD3E-4682-A696-ADF7D9496427";
paths = (
{
closed = 1;
nodes = (
"-24 -189 OFFCURVE",
"-5 -194 OFFCURVE",
"22 -194 CURVE SMOOTH",
"96 -194 OFFCURVE",
"141 -148 OFFCURVE",
"141 -64 CURVE SMOOTH",
"141 507 LINE",
"80 507 LINE",
"80 -62 LINE SMOOTH",
"80 -116 OFFCURVE",
"58 -136 OFFCURVE",
"23 -136 CURVE SMOOTH",
"1 -136 OFFCURVE",
"-23 -131 OFFCURVE",
"-47 -120 CURVE",
"-47 -180 LINE"
);
},
{
closed = 1;
nodes = (
"67 645 OFFCURVE",
"85 627 OFFCURVE",
"109 627 CURVE SMOOTH",
"133 627 OFFCURVE",
"152 645 OFFCURVE",
"152 669 CURVE SMOOTH",
"152 693 OFFCURVE",
"133 712 OFFCURVE",
"109 712 CURVE SMOOTH",
"85 712 OFFCURVE",
"67 693 OFFCURVE",
"67 669 CURVE SMOOTH"
);
}
);
width = 216;
}
);
unicode = 006A;
}
{
glyphname = l;
layers = (
{
layerId = "7B4D842D-CA8D-4153-9CDE-FADFBE419175";
paths = (
{
closed = 1;
nodes = (
"211 0 LINE",
"211 707 LINE",
"65 707 LINE",
"65 0 LINE"
);
}
);
width = 276;
},
{
layerId = "25BA55F5-DD3E-4682-A696-ADF7D9496427";
paths = (
{
closed = 1;
nodes = (
"141 0 LINE",
"141 707 LINE",
"80 707 LINE",
"80 0 LINE"
);
}
);
width = 221;
}
);
unicode = 006C;
}
{
glyphname = n;
layers = (
{
layerId = "7B4D842D-CA8D-4153-9CDE-FADFBE419175";
paths = (
{
closed = 1;
nodes = (
"206 0 LINE",
"206 507 LINE",
"60 507 LINE",
"60 0 LINE"
);
},
{
closed = 1;
nodes = (
"525 0 LINE",
"525 329 LINE SMOOTH",
"525 451 OFFCURVE",
"460 512 OFFCURVE",
"359 512 CURVE SMOOTH",
"251 512 OFFCURVE",
"189 437 OFFCURVE",
"189 339 CURVE SMOOTH",
"189 268 LINE",
"206 268 LINE",
"206 356 OFFCURVE",
"249 394 OFFCURVE",
"299 394 CURVE SMOOTH",
"348 394 OFFCURVE",
"379 364 OFFCURVE",
"379 302 CURVE SMOOTH",
"379 0 LINE"
);
}
);
width = 580;
},
{
layerId = "25BA55F5-DD3E-4682-A696-ADF7D9496427";
paths = (
{
closed = 1;
nodes = (
"137 0 LINE",
"137 507 LINE",
"76 507 LINE",
"76 0 LINE"
);
},
{
closed = 1;
nodes = (
"459 0 LINE",
"459 354 LINE SMOOTH",
"459 448 OFFCURVE",
"397 515 OFFCURVE",
"298 515 CURVE SMOOTH",
"190 515 OFFCURVE",
"116 447 OFFCURVE",
"110 299 CURVE SMOOTH",
"110 280 LINE",
"137 280 LINE",
"137 394 OFFCURVE",
"212 456 OFFCURVE",
"289 456 CURVE SMOOTH",
"351 456 OFFCURVE",
"398 416 OFFCURVE",
"398 335 CURVE SMOOTH",
"398 0 LINE"
);
}
);
width = 529;
}
);
unicode = 006E;
}
{
glyphname = asciitilde;
layers = (
{
layerId = "7B4D842D-CA8D-4153-9CDE-FADFBE419175";
paths = (
{
closed = 1;
nodes = (
"494 344 OFFCURVE",
"469 320 OFFCURVE",
"421 320 CURVE",
"359 320 OFFCURVE",
"318 369 OFFCURVE",
"200 369 CURVE SMOOTH",
"124 369 OFFCURVE",
"61 307 OFFCURVE",
"28 260 CURVE",
"129 180 LINE",
"159 215 OFFCURVE",
"184 238 OFFCURVE",
"232 238 CURVE SMOOTH",
"308 238 OFFCURVE",
"345 189 OFFCURVE",
"452 189 CURVE SMOOTH",
"536 189 OFFCURVE",
"592 251 OFFCURVE",
"625 298 CURVE",
"524 379 LINE"
);
}
);
width = 654;
},
{
layerId = "25BA55F5-DD3E-4682-A696-ADF7D9496427";
paths = (
{
closed = 1;
nodes = (
"480 276 OFFCURVE",
"449 252 OFFCURVE",
"411 252 CURVE SMOOTH",
"338 252 OFFCURVE",
"285 332 OFFCURVE",
"190 332 CURVE SMOOTH",
"136 332 OFFCURVE",
"84 305 OFFCURVE",
"38 241 CURVE",
"78 204 LINE",
"114 257 OFFCURVE",
"155 276 OFFCURVE",
"197 276 CURVE SMOOTH",
"255 276 OFFCURVE",
"328 195 OFFCURVE",
"411 195 CURVE SMOOTH",
"472 195 OFFCURVE",
"511 224 OFFCURVE",
"546 280 CURVE",
"499 312 LINE"
);
}
);
width = 585;
}
);
unicode = 007E;
}
{
glyphname = braceleft;
layers = (
{
layerId = "7B4D842D-CA8D-4153-9CDE-FADFBE419175";
paths = (
{
closed = 1;
nodes = (
"229 263 OFFCURVE",
"285 322 OFFCURVE",
"285 407 CURVE SMOOTH",
"285 451 OFFCURVE",
"273 494 OFFCURVE",
"273 522 CURVE SMOOTH",
"273 555 OFFCURVE",
"297 577 OFFCURVE",
"324 577 CURVE SMOOTH",
"334 577 OFFCURVE",
"345 574 OFFCURVE",
"355 568 CURVE",
"355 703 LINE",
"332 711 OFFCURVE",
"310 715 OFFCURVE",
"289 715 CURVE SMOOTH",
"196 715 OFFCURVE",
"130 639 OFFCURVE",
"130 535 CURVE SMOOTH",
"130 493 OFFCURVE",
"142 455 OFFCURVE",
"142 421 CURVE SMOOTH",
"142 374 OFFCURVE",
"112 325 OFFCURVE",
"57 325 CURVE SMOOTH",
"47 325 OFFCURVE",
"40 325 OFFCURVE",
"40 325 CURVE",
"40 184 LINE",
"40 184 OFFCURVE",
"47 185 OFFCURVE",
"57 185 CURVE SMOOTH",
"112 185 OFFCURVE",
"142 135 OFFCURVE",
"142 88 CURVE SMOOTH",
"142 54 OFFCURVE",
"130 16 OFFCURVE",
"130 -26 CURVE SMOOTH",
"130 -130 OFFCURVE",
"196 -206 OFFCURVE",
"289 -206 CURVE SMOOTH",
"310 -206 OFFCURVE",
"332 -202 OFFCURVE",
"355 -194 CURVE",
"355 -59 LINE",
"345 -65 OFFCURVE",
"334 -68 OFFCURVE",
"324 -68 CURVE SMOOTH",
"297 -68 OFFCURVE",
"273 -46 OFFCURVE",
"273 -13 CURVE SMOOTH",
"273 15 OFFCURVE",
"285 58 OFFCURVE",
"285 102 CURVE SMOOTH",
"285 187 OFFCURVE",
"229 247 OFFCURVE",
"169 255 CURVE"
);
}
);
width = 380;
},
{
layerId = "25BA55F5-DD3E-4682-A696-ADF7D9496427";
paths = (
{
closed = 1;
nodes = (
"198 278 OFFCURVE",
"235 336 OFFCURVE",
"235 404 CURVE SMOOTH",
"235 466 OFFCURVE",
"212 512 OFFCURVE",
"212 573 CURVE SMOOTH",
"212 615 OFFCURVE",
"231 652 OFFCURVE",
"278 652 CURVE SMOOTH",
"288 652 OFFCURVE",
"301 649 OFFCURVE",
"312 643 CURVE",
"312 705 LINE",
"298 710 OFFCURVE",
"284 712 OFFCURVE",
"270 712 CURVE SMOOTH",
"206 712 OFFCURVE",
"148 661 OFFCURVE",
"148 571 CURVE SMOOTH",
"148 516 OFFCURVE",
"171 469 OFFCURVE",
"171 420 CURVE SMOOTH",
"171 359 OFFCURVE",
"143 308 OFFCURVE",
"82 297 CURVE SMOOTH",
"71 295 OFFCURVE",
"59 295 OFFCURVE",
"50 295 CURVE",
"50 234 LINE",
"59 234 OFFCURVE",
"74 234 OFFCURVE",
"82 232 CURVE SMOOTH",
"147 216 OFFCURVE",
"171 168 OFFCURVE",
"171 107 CURVE SMOOTH",
"171 58 OFFCURVE",
"148 11 OFFCURVE",
"148 -44 CURVE SMOOTH",
"148 -134 OFFCURVE",
"206 -185 OFFCURVE",
"270 -185 CURVE SMOOTH",
"284 -185 OFFCURVE",
"298 -183 OFFCURVE",
"312 -178 CURVE",
"312 -116 LINE",
"301 -122 OFFCURVE",
"288 -125 OFFCURVE",
"278 -125 CURVE SMOOTH",
"231 -125 OFFCURVE",
"212 -88 OFFCURVE",
"212 -46 CURVE SMOOTH",
"212 15 OFFCURVE",
"235 61 OFFCURVE",
"235 123 CURVE SMOOTH",
"235 191 OFFCURVE",
"198 250 OFFCURVE",
"112 264 CURVE"
);
}
);
width = 322;
}
);
unicode = 007B;
}
{
glyphname = braceright;
layers = (
{
layerId = "7B4D842D-CA8D-4153-9CDE-FADFBE419175";
paths = (
{
closed = 1;
nodes = (
"151 247 OFFCURVE",
"95 187 OFFCURVE",
"95 102 CURVE SMOOTH",
"95 58 OFFCURVE",
"107 15 OFFCURVE",
"107 -13 CURVE SMOOTH",
"107 -46 OFFCURVE",
"83 -68 OFFCURVE",
"56 -68 CURVE SMOOTH",
"46 -68 OFFCURVE",
"35 -65 OFFCURVE",
"25 -59 CURVE",
"25 -194 LINE",
"48 -202 OFFCURVE",
"70 -206 OFFCURVE",
"91 -206 CURVE SMOOTH",
"184 -206 OFFCURVE",
"250 -130 OFFCURVE",
"250 -26 CURVE SMOOTH",
"250 16 OFFCURVE",
"238 54 OFFCURVE",
"238 88 CURVE SMOOTH",
"238 135 OFFCURVE",
"268 185 OFFCURVE",
"323 185 CURVE SMOOTH",
"333 185 OFFCURVE",
"340 184 OFFCURVE",
"340 184 CURVE",
"340 325 LINE",
"340 325 OFFCURVE",
"333 325 OFFCURVE",
"323 325 CURVE SMOOTH",
"268 325 OFFCURVE",
"238 374 OFFCURVE",
"238 421 CURVE SMOOTH",
"238 455 OFFCURVE",
"250 493 OFFCURVE",
"250 535 CURVE SMOOTH",
"250 639 OFFCURVE",
"184 715 OFFCURVE",
"91 715 CURVE SMOOTH",
"70 715 OFFCURVE",
"48 711 OFFCURVE",
"25 703 CURVE",
"25 568 LINE",
"35 574 OFFCURVE",
"46 577 OFFCURVE",
"56 577 CURVE SMOOTH",
"83 577 OFFCURVE",
"107 555 OFFCURVE",
"107 522 CURVE SMOOTH",
"107 494 OFFCURVE",
"95 451 OFFCURVE",
"95 407 CURVE SMOOTH",
"95 322 OFFCURVE",
"151 263 OFFCURVE",
"211 255 CURVE"
);
}
);
width = 380;
},
{
layerId = "25BA55F5-DD3E-4682-A696-ADF7D9496427";
paths = (
{
closed = 1;
nodes = (
"124 250 OFFCURVE",
"87 191 OFFCURVE",
"87 123 CURVE SMOOTH",
"87 61 OFFCURVE",
"110 15 OFFCURVE",
"110 -46 CURVE SMOOTH",
"110 -88 OFFCURVE",
"91 -125 OFFCURVE",
"44 -125 CURVE SMOOTH",
"34 -125 OFFCURVE",
"21 -122 OFFCURVE",
"10 -116 CURVE",
"10 -178 LINE",
"24 -183 OFFCURVE",
"38 -185 OFFCURVE",
"52 -185 CURVE SMOOTH",
"116 -185 OFFCURVE",
"174 -134 OFFCURVE",
"174 -44 CURVE SMOOTH",
"174 11 OFFCURVE",
"151 58 OFFCURVE",
"151 107 CURVE SMOOTH",
"151 168 OFFCURVE",
"175 216 OFFCURVE",
"240 232 CURVE SMOOTH",
"248 234 OFFCURVE",
"263 234 OFFCURVE",
"272 234 CURVE",
"272 295 LINE",
"263 295 OFFCURVE",
"251 295 OFFCURVE",
"240 297 CURVE SMOOTH",
"179 308 OFFCURVE",
"151 359 OFFCURVE",
"151 420 CURVE SMOOTH",
"151 469 OFFCURVE",
"174 516 OFFCURVE",
"174 571 CURVE SMOOTH",
"174 661 OFFCURVE",
"116 712 OFFCURVE",
"52 712 CURVE SMOOTH",
"38 712 OFFCURVE",
"24 710 OFFCURVE",
"10 705 CURVE",
"10 643 LINE",
"21 649 OFFCURVE",
"34 652 OFFCURVE",
"44 652 CURVE SMOOTH",
"91 652 OFFCURVE",
"110 615 OFFCURVE",
"110 573 CURVE SMOOTH",
"110 512 OFFCURVE",
"87 466 OFFCURVE",
"87 404 CURVE SMOOTH",
"87 336 OFFCURVE",
"124 278 OFFCURVE",
"210 264 CURVE"
);
}
);
width = 322;
}
);
unicode = 007D;
}
{
glyphname = Lcaron;
layers = (
{
layerId = "7B4D842D-CA8D-4153-9CDE-FADFBE419175";
paths = (
{
closed = 1;
nodes = (
"219 674 LINE",
"219 0 LINE",
"65 0 LINE",
"65 674 LINE"
);
},
{
closed = 1;
nodes = (
"468 135 LINE",
"468 0 LINE",
"123 0 LINE",
"123 135 LINE"
);
},
{
closed = 1;
nodes = (
"385 488 LINE",
"501 699 LINE",
"350 699 LINE",
"279 488 LINE"
);
}
);
width = 488;
},
{
layerId = "25BA55F5-DD3E-4682-A696-ADF7D9496427";
paths = (
{
closed = 1;
nodes = (
"142 674 LINE",
"142 0 LINE",
"80 0 LINE",
"80 674 LINE"
);
},
{
closed = 1;
nodes = (
"439 57 LINE",
"439 0 LINE",
"88 0 LINE",
"88 57 LINE"
);
},
{
closed = 1;
nodes = (
"294 515 LINE",
"404 702 LINE",
"328 702 LINE",
"240 515 LINE"
);
}
);
width = 474;
}
);
unicode = 013D;
}
{
glyphname = Lcommaaccent;
layers = (
{
layerId = "7B4D842D-CA8D-4153-9CDE-FADFBE419175";
paths = (
{
closed = 1;
nodes = (
"65 0 LINE",
"219 0 LINE",
"219 674 LINE",
"65 674 LINE"
);
},
{
closed = 1;
nodes = (
"123 0 LINE",
"468 0 LINE",
"468 135 LINE",
"123 135 LINE"
);
},
{
closed = 1;
nodes = (
"245 -262 LINE",
"361 -51 LINE",
"210 -51 LINE",
"139 -262 LINE"
);
}
);
width = 488;
},
{
layerId = "25BA55F5-DD3E-4682-A696-ADF7D9496427";
paths = (
{
closed = 1;
nodes = (
"80 0 LINE",
"142 0 LINE",
"142 674 LINE",
"80 674 LINE"
);
},
{
closed = 1;
nodes = (
"88 0 LINE",
"439 0 LINE",
"439 57 LINE",
"88 57 LINE"
);
},
{
closed = 1;
nodes = (
"193 -238 LINE",
"303 -51 LINE",
"227 -51 LINE",
"139 -238 LINE"
);
}
);
width = 474;
}
);
unicode = 013B;
}
{
glyphname = exclam;
layers = (
{
layerId = "7B4D842D-CA8D-4153-9CDE-FADFBE419175";
paths = (
{
closed = 1;
nodes = (
"214 236 LINE",
"214 674 LINE",
"75 674 LINE",
"75 236 LINE"
);
},
{
closed = 1;
nodes = (
"52 32 OFFCURVE",
"92 -8 OFFCURVE",
"143 -8 CURVE SMOOTH",
"194 -8 OFFCURVE",
"234 32 OFFCURVE",
"234 83 CURVE SMOOTH",
"234 134 OFFCURVE",
"194 174 OFFCURVE",
"143 174 CURVE SMOOTH",
"92 174 OFFCURVE",
"52 134 OFFCURVE",
"52 83 CURVE SMOOTH"
);
}
);
width = 289;
},
{
layerId = "25BA55F5-DD3E-4682-A696-ADF7D9496427";
paths = (
{
closed = 1;
nodes = (
"151 196 LINE",
"151 674 LINE",
"90 674 LINE",
"90 196 LINE"
);
},
{
closed = 1;
nodes = (
"69 13 OFFCURVE",
"90 -8 OFFCURVE",
"119 -8 CURVE SMOOTH",
"148 -8 OFFCURVE",
"171 13 OFFCURVE",
"171 42 CURVE SMOOTH",
"171 70 OFFCURVE",
"148 93 OFFCURVE",
"119 93 CURVE SMOOTH",
"90 93 OFFCURVE",
"69 70 OFFCURVE",
"69 42 CURVE SMOOTH"
);
}
);
width = 241;
}
);
unicode = 0021;
}
{
glyphname = quotedbl;
layers = (
{
layerId = "7B4D842D-CA8D-4153-9CDE-FADFBE419175";
paths = (
{
closed = 1;
nodes = (
"162 420 LINE",
"162 681 LINE",
"40 681 LINE",
"40 420 LINE"
);
},
{
closed = 1;
nodes = (
"347 420 LINE",
"347 681 LINE",
"225 681 LINE",
"225 420 LINE"
);
}
);
width = 387;
},
{
layerId = "25BA55F5-DD3E-4682-A696-ADF7D9496427";
paths = (
{
closed = 1;
nodes = (
"102 451 LINE",
"102 681 LINE",
"45 681 LINE",
"45 451 LINE"
);
},
{
closed = 1;
nodes = (
"226 451 LINE",
"226 681 LINE",
"169 681 LINE",
"169 451 LINE"
);
}
);
width = 271;
}
);
unicode = 0022;
}
{
glyphname = numbersign;
layers = (
{
layerId = "7B4D842D-CA8D-4153-9CDE-FADFBE419175";
paths = (
{
closed = 1;
nodes = (
"712 400 LINE",
"712 516 LINE",
"79 516 LINE",
"79 400 LINE"
);
},
{
closed = 1;
nodes = (
"496 0 LINE",
"639 673 LINE",
"515 673 LINE",
"373 0 LINE"
);
},
{
closed = 1;
nodes = (
"236 0 LINE",
"379 673 LINE",
"255 673 LINE",
"113 0 LINE"
);
},
{
closed = 1;
nodes = (
"678 154 LINE",
"678 265 LINE",
"45 265 LINE",
"45 154 LINE"
);
}
);
width = 757;
},
{
layerId = "25BA55F5-DD3E-4682-A696-ADF7D9496427";
paths = (
{
closed = 1;
nodes = (
"642 449 LINE",
"642 500 LINE",
"114 500 LINE",
"114 449 LINE"
);
},
{
closed = 1;
nodes = (
"436 0 LINE",
"577 674 LINE",
"520 674 LINE",
"377 0 LINE"
);
},
{
closed = 1;
nodes = (
"187 0 LINE",
"330 674 LINE",
"271 674 LINE",
"130 0 LINE"
);
},
{
closed = 1;
nodes = (
"585 174 LINE",
"585 225 LINE",
"55 225 LINE",
"55 174 LINE"
);
}
);
width = 697;
}
);
unicode = 0023;
}
{
glyphname = lozenge;
layers = (
{
layerId = "7B4D842D-CA8D-4153-9CDE-FADFBE419175";
paths = (
{
closed = 1;
nodes = (
"177 337 LINE",
"202 295 LINE SMOOTH",
"274 174 OFFCURVE",
"302 113 OFFCURVE",
"302 113 CURVE",
"302 113 OFFCURVE",
"329 174 OFFCURVE",
"404 295 CURVE SMOOTH",
"430 337 LINE",
"575 337 LINE",
"376 0 LINE",
"226 0 LINE",
"29 337 LINE"
);
},
{
closed = 1;
nodes = (
"376 674 LINE",
"575 337 LINE",
"430 337 LINE",
"404 379 LINE SMOOTH",
"329 500 OFFCURVE",
"302 561 OFFCURVE",
"302 561 CURVE",
"302 561 OFFCURVE",
"274 500 OFFCURVE",
"202 379 CURVE SMOOTH",
"177 337 LINE",
"29 337 LINE",
"226 674 LINE"
);
}
);
width = 604;
},
{
layerId = "25BA55F5-DD3E-4682-A696-ADF7D9496427";
paths = (
{
closed = 1;
nodes = (
"130 337 LINE",
"179 242 LINE SMOOTH",
"244 116 OFFCURVE",
"276 54 OFFCURVE",
"276 54 CURVE",
"276 54 OFFCURVE",
"308 117 OFFCURVE",
"374 242 CURVE SMOOTH",
"423 337 LINE",
"495 337 LINE",
"315 0 LINE",
"233 0 LINE",
"58 337 LINE"
);
},
{
closed = 1;
nodes = (
"315 674 LINE",
"495 337 LINE",
"423 337 LINE",
"374 432 LINE SMOOTH",
"308 557 OFFCURVE",
"276 620 OFFCURVE",
"276 620 CURVE",
"276 620 OFFCURVE",
"244 558 OFFCURVE",
"179 432 CURVE SMOOTH",
"130 337 LINE",
"58 337 LINE",
"233 674 LINE"
);
}
);
width = 553;
}
);
unicode = 25CA;
}
{
glyphname = three;
layers = (
{
layerId = "7B4D842D-CA8D-4153-9CDE-FADFBE419175";
paths = (
{
closed = 1;
nodes = (
"229 392 OFFCURVE",
"285 413 OFFCURVE",
"285 464 CURVE SMOOTH",
"285 513 OFFCURVE",
"248 533 OFFCURVE",
"195 533 CURVE SMOOTH",
"146 533 OFFCURVE",
"90 511 OFFCURVE",
"56 490 CURVE",
"56 626 LINE",
"92 644 OFFCURVE",
"149 663 OFFCURVE",
"205 663 CURVE SMOOTH",
"348 663 OFFCURVE",
"435 587 OFFCURVE",
"435 481 CURVE SMOOTH",
"435 383 OFFCURVE",
"369 318 OFFCURVE",
"251 311 CURVE",
"251 335 LINE",
"372 342 OFFCURVE",
"448 287 OFFCURVE",
"448 180 CURVE SMOOTH",
"448 71 OFFCURVE",
"362 -5 OFFCURVE",
"207 -5 CURVE SMOOTH",
"145 -5 OFFCURVE",
"75 7 OFFCURVE",
"30 29 CURVE",
"30 169 LINE",
"77 143 OFFCURVE",
"129 125 OFFCURVE",
"195 125 CURVE SMOOTH",
"263 125 OFFCURVE",
"299 158 OFFCURVE",
"299 199 CURVE SMOOTH",
"299 238 OFFCURVE",
"269 272 OFFCURVE",
"164 272 CURVE",
"164 392 LINE"
);
},
{
closed = 1;
nodes = (
"129 272 LINE",
"129 392 LINE",
"288 392 LINE",
"288 272 LINE"
);
}
);
width = 483;
},
{
layerId = "25BA55F5-DD3E-4682-A696-ADF7D9496427";
paths = (
{
closed = 1;
nodes = (
"258 358 OFFCURVE",
"322 405 OFFCURVE",
"322 485 CURVE SMOOTH",
"322 565 OFFCURVE",
"269 602 OFFCURVE",
"189 602 CURVE SMOOTH",
"144 602 OFFCURVE",
"93 585 OFFCURVE",
"58 562 CURVE",
"58 624 LINE",
"85 642 OFFCURVE",
"137 660 OFFCURVE",
"188 660 CURVE SMOOTH",
"323 660 OFFCURVE",
"386 578 OFFCURVE",
"386 491 CURVE SMOOTH",
"386 411 OFFCURVE",
"340 340 OFFCURVE",
"237 318 CURVE",
"238 338 LINE",
"333 335 OFFCURVE",
"406 275 OFFCURVE",
"406 180 CURVE SMOOTH",
"406 80 OFFCURVE",
"337 -6 OFFCURVE",
"199 -6 CURVE SMOOTH",
"150 -6 OFFCURVE",
"84 6 OFFCURVE",
"40 27 CURVE",
"40 89 LINE",
"90 63 OFFCURVE",
"144 52 OFFCURVE",
"200 52 CURVE SMOOTH",
"292 52 OFFCURVE",
"343 107 OFFCURVE",
"343 182 CURVE SMOOTH",
"343 262 OFFCURVE",
"282 303 OFFCURVE",
"186 303 CURVE",
"186 358 LINE"
);
},
{
closed = 1;
nodes = (
"142 303 LINE",
"142 358 LINE",
"225 358 LINE",
"225 303 LINE"
);
}
);
width = 461;
}
);
unicode = 0033;
}
{
glyphname = four;
layers = (
{
layerId = "7B4D842D-CA8D-4153-9CDE-FADFBE419175";
paths = (
{
closed = 1;
nodes = (
"542 263 LINE",
"542 139 LINE",
"30 139 LINE",
"30 263 LINE"
);
},
{
closed = 1;
nodes = (
"364 656 LINE",
"173 263 LINE",
"30 263 LINE",
"230 656 LINE"
);
},
{
closed = 1;
nodes = (
"462 656 LINE",
"462 0 LINE",
"317 0 LINE",
"317 656 LINE"
);
}
);
width = 562;
},
{
layerId = "25BA55F5-DD3E-4682-A696-ADF7D9496427";
paths = (
{
closed = 1;
nodes = (
"509 219 LINE",
"509 164 LINE",
"45 164 LINE",
"45 219 LINE"
);
},
{
closed = 1;
nodes = (
"369 654 LINE",
"108 219 LINE",
"45 219 LINE",
"307 654 LINE"
);
},
{
closed = 1;
nodes = (
"408 654 LINE",
"408 0 LINE",
"348 0 LINE",
"348 654 LINE"
);
}
);
width = 534;
}
);
unicode = 0034;
}
{
glyphname = six;
layers = (
{
layerId = "7B4D842D-CA8D-4153-9CDE-FADFBE419175";
paths = (
{
closed = 1;
nodes = (
"160 364 OFFCURVE",
"228 422 OFFCURVE",
"321 422 CURVE SMOOTH",
"435 422 OFFCURVE",
"512 341 OFFCURVE",
"512 212 CURVE SMOOTH",
"512 85 OFFCURVE",
"428 -20 OFFCURVE",
"279 -20 CURVE SMOOTH",
"112 -20 OFFCURVE",
"35 112 OFFCURVE",
"35 299 CURVE SMOOTH",
"35 527 OFFCURVE",
"175 666 OFFCURVE",
"358 666 CURVE SMOOTH",
"396 666 OFFCURVE",
"436 658 OFFCURVE",
"461 650 CURVE",
"461 515 LINE",
"433 530 OFFCURVE",
"404 536 OFFCURVE",
"370 536 CURVE SMOOTH",
"245 536 OFFCURVE",
"184 427 OFFCURVE",
"184 299 CURVE SMOOTH",
"184 157 OFFCURVE",
"229 110 OFFCURVE",
"280 110 CURVE SMOOTH",
"332 110 OFFCURVE",
"363 149 OFFCURVE",
"363 209 CURVE SMOOTH",
"363 262 OFFCURVE",
"334 299 OFFCURVE",
"281 299 CURVE SMOOTH",
"216 299 OFFCURVE",
"175 252 OFFCURVE",
"141 196 CURVE",
"135 295 LINE"
);
}
);
width = 537;
},
{
layerId = "25BA55F5-DD3E-4682-A696-ADF7D9496427";
paths = (
{
closed = 1;
nodes = (
"138 383 OFFCURVE",
"219 421 OFFCURVE",
"290 421 CURVE SMOOTH",
"413 421 OFFCURVE",
"484 336 OFFCURVE",
"484 213 CURVE SMOOTH",
"484 79 OFFCURVE",
"403 -8 OFFCURVE",
"285 -8 CURVE SMOOTH",
"135 -8 OFFCURVE",
"57 122 OFFCURVE",
"57 295 CURVE SMOOTH",
"57 499 OFFCURVE",
"155 675 OFFCURVE",
"350 675 CURVE SMOOTH",
"386 675 OFFCURVE",
"411 670 OFFCURVE",
"439 660 CURVE",
"439 598 LINE",
"413 610 OFFCURVE",
"383 617 OFFCURVE",
"349 617 CURVE SMOOTH",
"190 617 OFFCURVE",
"117 455 OFFCURVE",
"117 295 CURVE SMOOTH",
"117 130 OFFCURVE",
"189 49 OFFCURVE",
"285 49 CURVE SMOOTH",
"369 49 OFFCURVE",
"420 118 OFFCURVE",
"420 215 CURVE SMOOTH",
"420 308 OFFCURVE",
"365 363 OFFCURVE",
"289 363 CURVE SMOOTH",
"206 363 OFFCURVE",
"132 313 OFFCURVE",
"99 259 CURVE",
"99 322 LINE"
);
}
);
width = 523;
}
);
unicode = 0036;
}
